<?xml version="1.0" standalone="no"?>
<svg id="Group30" width="928" height="438" viewBox="0 0 928 438" fill="none" xmlns="http://www.w3.org/2000/svg" style="max-width: 100%; max-height: 100%;">
<path d="M25.1211 382V380.852C27.4818 379.53 29.6191 378.318 31.5332 377.215C33.4564 376.103 35.0924 375.064 36.4414 374.098C37.7904 373.122 38.8249 372.197 39.5449 371.322C40.265 370.438 40.6068 369.563 40.5703 368.697C40.543 368.05 40.3607 367.462 40.0234 366.934C39.6953 366.396 39.2168 365.94 38.5879 365.566C37.959 365.184 37.1842 364.887 36.2637 364.678C35.3431 364.468 34.2812 364.363 33.0781 364.363C32.3307 364.363 31.6152 364.404 30.9316 364.486C30.2572 364.568 29.6009 364.696 28.9629 364.869C28.334 365.033 27.7188 365.243 27.1172 365.498C26.5156 365.753 25.9232 366.054 25.3398 366.4V364.527C25.9688 364.272 26.5794 364.044 27.1719 363.844C27.7643 363.634 28.3659 363.456 28.9766 363.311C29.5872 363.165 30.2207 363.055 30.877 362.982C31.5332 362.91 32.235 362.873 32.9824 362.873C34.3223 362.873 35.5618 363.005 36.7012 363.27C37.8405 363.534 38.8249 363.921 39.6543 364.432C40.4837 364.933 41.1309 365.553 41.5957 366.291C42.0697 367.029 42.3066 367.877 42.3066 368.834C42.3066 369.7 42.0104 370.566 41.418 371.432C40.8255 372.298 39.9596 373.195 38.8203 374.125C37.6901 375.055 36.2956 376.035 34.6367 377.064C32.9779 378.094 31.082 379.215 28.9492 380.428H42.7031V382H25.1211ZM66.0137 372.621C66.0137 373.669 65.8815 374.64 65.6172 375.533C65.362 376.417 65.0065 377.219 64.5508 377.939C64.0951 378.66 63.5527 379.298 62.9238 379.854C62.2949 380.4 61.6113 380.861 60.873 381.234C60.1439 381.608 59.3691 381.891 58.5488 382.082C57.7376 382.273 56.9128 382.369 56.0742 382.369C55.2357 382.369 54.4062 382.273 53.5859 382.082C52.7747 381.891 52 381.608 51.2617 381.234C50.5234 380.861 49.8398 380.4 49.2109 379.854C48.582 379.298 48.0352 378.66 47.5703 377.939C47.1146 377.219 46.7546 376.417 46.4902 375.533C46.235 374.64 46.1074 373.669 46.1074 372.621C46.1074 371.573 46.235 370.607 46.4902 369.723C46.7546 368.829 47.1146 368.023 47.5703 367.303C48.0352 366.583 48.582 365.949 49.2109 365.402C49.8398 364.846 50.5234 364.382 51.2617 364.008C52 363.634 52.7747 363.352 53.5859 363.16C54.4062 362.969 55.2357 362.873 56.0742 362.873C56.9128 362.873 57.7376 362.969 58.5488 363.16C59.3691 363.352 60.1439 363.634 60.873 364.008C61.6113 364.382 62.2949 364.846 62.9238 365.402C63.5527 365.949 64.0951 366.583 64.5508 367.303C65.0065 368.023 65.362 368.829 65.6172 369.723C65.8815 370.607 66.0137 371.573 66.0137 372.621ZM64.3047 372.621C64.3047 371.691 64.1908 370.839 63.9629 370.064C63.7441 369.29 63.4388 368.597 63.0469 367.986C62.6641 367.376 62.2083 366.842 61.6797 366.387C61.151 365.931 60.5814 365.557 59.9707 365.266C59.3691 364.965 58.7357 364.742 58.0703 364.596C57.4049 364.441 56.7396 364.363 56.0742 364.363C55.0716 364.363 54.0781 364.532 53.0938 364.869C52.1094 365.197 51.2253 365.703 50.4414 366.387C49.6576 367.07 49.0241 367.932 48.541 368.971C48.0579 370.001 47.8164 371.217 47.8164 372.621C47.8164 374.025 48.0579 375.246 48.541 376.285C49.0241 377.315 49.6576 378.172 50.4414 378.855C51.2253 379.539 52.1094 380.049 53.0938 380.387C54.0781 380.715 55.0716 380.879 56.0742 380.879C56.7396 380.879 57.4049 380.806 58.0703 380.66C58.7357 380.505 59.3737 380.277 59.9844 379.977C60.5951 379.676 61.1647 379.298 61.6934 378.842C62.222 378.386 62.6777 377.853 63.0605 377.242C63.4525 376.622 63.7578 375.93 63.9766 375.164C64.1953 374.398 64.3047 373.551 64.3047 372.621ZM72.207 382V364.719L67.7227 366.127V364.609L72.207 363.215H73.8887V382H72.207ZM89.8438 364.363C88.6497 364.363 87.597 364.468 86.6855 364.678C85.7741 364.887 84.9857 365.184 84.3203 365.566C83.6549 365.94 83.099 366.391 82.6523 366.92C82.2057 367.439 81.8457 368.018 81.5723 368.656C81.3079 369.285 81.1165 369.96 80.998 370.68C80.8796 371.391 80.8203 372.129 80.8203 372.895C81.194 372.639 81.6406 372.348 82.1602 372.02C82.6797 371.682 83.2858 371.368 83.9785 371.076C84.6712 370.775 85.446 370.525 86.3027 370.324C87.1686 370.115 88.1302 370.01 89.1875 370.01C90.3997 370.01 91.5254 370.137 92.5645 370.393C93.6126 370.648 94.5195 371.031 95.2852 371.541C96.0508 372.051 96.6478 372.694 97.0762 373.469C97.5137 374.234 97.7324 375.137 97.7324 376.176C97.7324 377.033 97.5365 377.839 97.1445 378.596C96.7526 379.343 96.1784 379.999 95.4219 380.564C94.6745 381.12 93.7493 381.562 92.6465 381.891C91.5527 382.21 90.2995 382.369 88.8867 382.369C87.474 382.369 86.166 382.182 84.9629 381.809C83.7598 381.426 82.7207 380.856 81.8457 380.1C80.9707 379.334 80.2871 378.377 79.7949 377.229C79.3027 376.08 79.0566 374.731 79.0566 373.182C79.0566 371.66 79.2708 370.27 79.6992 369.012C80.1367 367.745 80.8021 366.656 81.6953 365.744C82.5885 364.833 83.7188 364.126 85.0859 363.625C86.4531 363.124 88.0664 362.873 89.9258 362.873C90.4271 362.873 90.9375 362.9 91.457 362.955C91.9766 363.01 92.487 363.083 92.9883 363.174C93.4896 363.256 93.9772 363.356 94.4512 363.475C94.9342 363.593 95.3854 363.721 95.8047 363.857V365.676C95.5039 365.539 95.1484 365.398 94.7383 365.252C94.3372 365.097 93.8861 364.956 93.3848 364.828C92.8835 364.691 92.3366 364.582 91.7441 364.5C91.1517 364.409 90.5182 364.363 89.8438 364.363ZM88.668 371.5C87.7109 371.5 86.8359 371.618 86.043 371.855C85.25 372.083 84.5299 372.366 83.8828 372.703C83.2448 373.04 82.6751 373.396 82.1738 373.77C81.6816 374.134 81.2578 374.453 80.9023 374.727C81.0117 375.492 81.2168 376.244 81.5176 376.982C81.8275 377.712 82.2832 378.368 82.8848 378.951C83.4954 379.525 84.2793 379.99 85.2363 380.346C86.2025 380.701 87.3919 380.879 88.8047 380.879C89.9805 380.879 91.015 380.77 91.9082 380.551C92.8105 380.323 93.5671 380.004 94.1777 379.594C94.7884 379.184 95.2487 378.691 95.5586 378.117C95.8685 377.534 96.0234 376.887 96.0234 376.176C96.0234 375.456 95.8776 374.809 95.5859 374.234C95.3034 373.651 94.8613 373.159 94.2598 372.758C93.6582 372.357 92.8926 372.047 91.9629 371.828C91.0423 371.609 89.944 371.5 88.668 371.5ZM101.137 373.455V371.773H111.773V373.455H101.137ZM115.137 382V380.852C117.497 379.53 119.635 378.318 121.549 377.215C123.472 376.103 125.108 375.064 126.457 374.098C127.806 373.122 128.84 372.197 129.561 371.322C130.281 370.438 130.622 369.563 130.586 368.697C130.559 368.05 130.376 367.462 130.039 366.934C129.711 366.396 129.232 365.94 128.604 365.566C127.975 365.184 127.2 364.887 126.279 364.678C125.359 364.468 124.297 364.363 123.094 364.363C122.346 364.363 121.631 364.404 120.947 364.486C120.273 364.568 119.617 364.696 118.979 364.869C118.35 365.033 117.734 365.243 117.133 365.498C116.531 365.753 115.939 366.054 115.355 366.4V364.527C115.984 364.272 116.595 364.044 117.188 363.844C117.78 363.634 118.382 363.456 118.992 363.311C119.603 363.165 120.236 363.055 120.893 362.982C121.549 362.91 122.251 362.873 122.998 362.873C124.338 362.873 125.577 363.005 126.717 363.27C127.856 363.534 128.84 363.921 129.67 364.432C130.499 364.933 131.146 365.553 131.611 366.291C132.085 367.029 132.322 367.877 132.322 368.834C132.322 369.7 132.026 370.566 131.434 371.432C130.841 372.298 129.975 373.195 128.836 374.125C127.706 375.055 126.311 376.035 124.652 377.064C122.993 378.094 121.098 379.215 118.965 380.428H132.719V382H115.137ZM156.029 372.621C156.029 373.669 155.897 374.64 155.633 375.533C155.378 376.417 155.022 377.219 154.566 377.939C154.111 378.66 153.568 379.298 152.939 379.854C152.311 380.4 151.627 380.861 150.889 381.234C150.16 381.608 149.385 381.891 148.564 382.082C147.753 382.273 146.928 382.369 146.09 382.369C145.251 382.369 144.422 382.273 143.602 382.082C142.79 381.891 142.016 381.608 141.277 381.234C140.539 380.861 139.855 380.4 139.227 379.854C138.598 379.298 138.051 378.66 137.586 377.939C137.13 377.219 136.77 376.417 136.506 375.533C136.251 374.64 136.123 373.669 136.123 372.621C136.123 371.573 136.251 370.607 136.506 369.723C136.77 368.829 137.13 368.023 137.586 367.303C138.051 366.583 138.598 365.949 139.227 365.402C139.855 364.846 140.539 364.382 141.277 364.008C142.016 363.634 142.79 363.352 143.602 363.16C144.422 362.969 145.251 362.873 146.09 362.873C146.928 362.873 147.753 362.969 148.564 363.16C149.385 363.352 150.16 363.634 150.889 364.008C151.627 364.382 152.311 364.846 152.939 365.402C153.568 365.949 154.111 366.583 154.566 367.303C155.022 368.023 155.378 368.829 155.633 369.723C155.897 370.607 156.029 371.573 156.029 372.621ZM154.32 372.621C154.32 371.691 154.206 370.839 153.979 370.064C153.76 369.29 153.454 368.597 153.062 367.986C152.68 367.376 152.224 366.842 151.695 366.387C151.167 365.931 150.597 365.557 149.986 365.266C149.385 364.965 148.751 364.742 148.086 364.596C147.421 364.441 146.755 364.363 146.09 364.363C145.087 364.363 144.094 364.532 143.109 364.869C142.125 365.197 141.241 365.703 140.457 366.387C139.673 367.07 139.04 367.932 138.557 368.971C138.074 370.001 137.832 371.217 137.832 372.621C137.832 374.025 138.074 375.246 138.557 376.285C139.04 377.315 139.673 378.172 140.457 378.855C141.241 379.539 142.125 380.049 143.109 380.387C144.094 380.715 145.087 380.879 146.09 380.879C146.755 380.879 147.421 380.806 148.086 380.66C148.751 380.505 149.389 380.277 150 379.977C150.611 379.676 151.18 379.298 151.709 378.842C152.238 378.386 152.693 377.853 153.076 377.242C153.468 376.622 153.773 375.93 153.992 375.164C154.211 374.398 154.32 373.551 154.32 372.621ZM162.223 382V364.719L157.738 366.127V364.609L162.223 363.215H163.904V382H162.223ZM176.414 380.879C177.608 380.879 178.656 380.774 179.559 380.564C180.47 380.355 181.258 380.059 181.924 379.676C182.589 379.293 183.145 378.833 183.592 378.295C184.038 377.757 184.394 377.165 184.658 376.518C184.932 375.87 185.123 375.178 185.232 374.439C185.351 373.692 185.415 372.917 185.424 372.115C185.023 372.462 184.567 372.817 184.057 373.182C183.546 373.546 182.954 373.879 182.279 374.18C181.605 374.48 180.839 374.731 179.982 374.932C179.126 375.123 178.15 375.219 177.057 375.219C175.844 375.219 174.714 375.096 173.666 374.85C172.627 374.594 171.725 374.212 170.959 373.701C170.193 373.191 169.592 372.553 169.154 371.787C168.726 371.012 168.512 370.105 168.512 369.066C168.512 368.21 168.708 367.408 169.1 366.66C169.492 365.904 170.061 365.247 170.809 364.691C171.565 364.126 172.49 363.684 173.584 363.365C174.687 363.037 175.945 362.873 177.357 362.873C178.77 362.873 180.078 363.064 181.281 363.447C182.484 363.821 183.523 364.391 184.398 365.156C185.273 365.913 185.957 366.865 186.449 368.014C186.941 369.162 187.188 370.511 187.188 372.061C187.188 373.583 186.969 374.977 186.531 376.244C186.103 377.502 185.442 378.587 184.549 379.498C183.656 380.4 182.525 381.107 181.158 381.617C179.8 382.118 178.191 382.369 176.332 382.369C175.767 382.369 175.206 382.337 174.65 382.273C174.104 382.219 173.566 382.141 173.037 382.041C172.508 381.95 172.003 381.845 171.52 381.727C171.036 381.599 170.585 381.467 170.166 381.33V379.512C170.467 379.648 170.818 379.799 171.219 379.963C171.629 380.118 172.094 380.264 172.613 380.4C173.133 380.537 173.707 380.651 174.336 380.742C174.974 380.833 175.667 380.879 176.414 380.879ZM177.59 373.742C178.538 373.742 179.404 373.633 180.188 373.414C180.98 373.195 181.691 372.922 182.32 372.594C182.958 372.257 183.523 371.892 184.016 371.5C184.508 371.099 184.932 370.725 185.287 370.379C185.223 369.905 185.114 369.426 184.959 368.943C184.813 368.46 184.604 367.995 184.33 367.549C184.066 367.102 183.733 366.688 183.332 366.305C182.94 365.913 182.462 365.576 181.896 365.293C181.34 365.001 180.693 364.773 179.955 364.609C179.217 364.445 178.378 364.363 177.439 364.363C176.264 364.363 175.225 364.477 174.322 364.705C173.429 364.924 172.677 365.238 172.066 365.648C171.456 366.059 170.995 366.555 170.686 367.139C170.376 367.713 170.221 368.355 170.221 369.066C170.221 369.786 170.362 370.438 170.645 371.021C170.936 371.596 171.383 372.083 171.984 372.484C172.586 372.885 173.347 373.195 174.268 373.414C175.197 373.633 176.305 373.742 177.59 373.742Z" fill="#F9FBFF" stroke-dasharray="0,0,0,845.3364868164062">
<animate attributeType="XML" attributeName="stroke-dasharray" repeatCount="1" dur="3.5714285714285716s" values="0,0,0,845.3364868164062; 
          0,422.6682434082031,422.6682434082031,0; 
          845.3364868164062,0,0,0" keyTimes="0; 0.5; 1" fill="freeze" restart="always"></animate></path>
<path d="M362.121 382V380.852C364.482 379.53 366.619 378.318 368.533 377.215C370.456 376.103 372.092 375.064 373.441 374.098C374.79 373.122 375.825 372.197 376.545 371.322C377.265 370.438 377.607 369.563 377.57 368.697C377.543 368.05 377.361 367.462 377.023 366.934C376.695 366.396 376.217 365.94 375.588 365.566C374.959 365.184 374.184 364.887 373.264 364.678C372.343 364.468 371.281 364.363 370.078 364.363C369.331 364.363 368.615 364.404 367.932 364.486C367.257 364.568 366.601 364.696 365.963 364.869C365.334 365.033 364.719 365.243 364.117 365.498C363.516 365.753 362.923 366.054 362.34 366.4V364.527C362.969 364.272 363.579 364.044 364.172 363.844C364.764 363.634 365.366 363.456 365.977 363.311C366.587 363.165 367.221 363.055 367.877 362.982C368.533 362.91 369.235 362.873 369.982 362.873C371.322 362.873 372.562 363.005 373.701 363.27C374.84 363.534 375.825 363.921 376.654 364.432C377.484 364.933 378.131 365.553 378.596 366.291C379.07 367.029 379.307 367.877 379.307 368.834C379.307 369.7 379.01 370.566 378.418 371.432C377.826 372.298 376.96 373.195 375.82 374.125C374.69 375.055 373.296 376.035 371.637 377.064C369.978 378.094 368.082 379.215 365.949 380.428H379.703V382H362.121ZM403.014 372.621C403.014 373.669 402.882 374.64 402.617 375.533C402.362 376.417 402.007 377.219 401.551 377.939C401.095 378.66 400.553 379.298 399.924 379.854C399.295 380.4 398.611 380.861 397.873 381.234C397.144 381.608 396.369 381.891 395.549 382.082C394.738 382.273 393.913 382.369 393.074 382.369C392.236 382.369 391.406 382.273 390.586 382.082C389.775 381.891 389 381.608 388.262 381.234C387.523 380.861 386.84 380.4 386.211 379.854C385.582 379.298 385.035 378.66 384.57 377.939C384.115 377.219 383.755 376.417 383.49 375.533C383.235 374.64 383.107 373.669 383.107 372.621C383.107 371.573 383.235 370.607 383.49 369.723C383.755 368.829 384.115 368.023 384.57 367.303C385.035 366.583 385.582 365.949 386.211 365.402C386.84 364.846 387.523 364.382 388.262 364.008C389 363.634 389.775 363.352 390.586 363.16C391.406 362.969 392.236 362.873 393.074 362.873C393.913 362.873 394.738 362.969 395.549 363.16C396.369 363.352 397.144 363.634 397.873 364.008C398.611 364.382 399.295 364.846 399.924 365.402C400.553 365.949 401.095 366.583 401.551 367.303C402.007 368.023 402.362 368.829 402.617 369.723C402.882 370.607 403.014 371.573 403.014 372.621ZM401.305 372.621C401.305 371.691 401.191 370.839 400.963 370.064C400.744 369.29 400.439 368.597 400.047 367.986C399.664 367.376 399.208 366.842 398.68 366.387C398.151 365.931 397.581 365.557 396.971 365.266C396.369 364.965 395.736 364.742 395.07 364.596C394.405 364.441 393.74 364.363 393.074 364.363C392.072 364.363 391.078 364.532 390.094 364.869C389.109 365.197 388.225 365.703 387.441 366.387C386.658 367.07 386.024 367.932 385.541 368.971C385.058 370.001 384.816 371.217 384.816 372.621C384.816 374.025 385.058 375.246 385.541 376.285C386.024 377.315 386.658 378.172 387.441 378.855C388.225 379.539 389.109 380.049 390.094 380.387C391.078 380.715 392.072 380.879 393.074 380.879C393.74 380.879 394.405 380.806 395.07 380.66C395.736 380.505 396.374 380.277 396.984 379.977C397.595 379.676 398.165 379.298 398.693 378.842C399.222 378.386 399.678 377.853 400.061 377.242C400.452 376.622 400.758 375.93 400.977 375.164C401.195 374.398 401.305 373.551 401.305 372.621ZM405.844 382V380.852C408.204 379.53 410.342 378.318 412.256 377.215C414.179 376.103 415.815 375.064 417.164 374.098C418.513 373.122 419.548 372.197 420.268 371.322C420.988 370.438 421.329 369.563 421.293 368.697C421.266 368.05 421.083 367.462 420.746 366.934C420.418 366.396 419.939 365.94 419.311 365.566C418.682 365.184 417.907 364.887 416.986 364.678C416.066 364.468 415.004 364.363 413.801 364.363C413.053 364.363 412.338 364.404 411.654 364.486C410.98 364.568 410.324 364.696 409.686 364.869C409.057 365.033 408.441 365.243 407.84 365.498C407.238 365.753 406.646 366.054 406.062 366.4V364.527C406.691 364.272 407.302 364.044 407.895 363.844C408.487 363.634 409.089 363.456 409.699 363.311C410.31 363.165 410.943 363.055 411.6 362.982C412.256 362.91 412.958 362.873 413.705 362.873C415.045 362.873 416.285 363.005 417.424 363.27C418.563 363.534 419.548 363.921 420.377 364.432C421.206 364.933 421.854 365.553 422.318 366.291C422.792 367.029 423.029 367.877 423.029 368.834C423.029 369.7 422.733 370.566 422.141 371.432C421.548 372.298 420.682 373.195 419.543 374.125C418.413 375.055 417.018 376.035 415.359 377.064C413.701 378.094 411.805 379.215 409.672 380.428H423.426V382H405.844ZM446.736 372.621C446.736 373.669 446.604 374.64 446.34 375.533C446.085 376.417 445.729 377.219 445.273 377.939C444.818 378.66 444.275 379.298 443.646 379.854C443.018 380.4 442.334 380.861 441.596 381.234C440.867 381.608 440.092 381.891 439.271 382.082C438.46 382.273 437.635 382.369 436.797 382.369C435.958 382.369 435.129 382.273 434.309 382.082C433.497 381.891 432.723 381.608 431.984 381.234C431.246 380.861 430.562 380.4 429.934 379.854C429.305 379.298 428.758 378.66 428.293 377.939C427.837 377.219 427.477 376.417 427.213 375.533C426.958 374.64 426.83 373.669 426.83 372.621C426.83 371.573 426.958 370.607 427.213 369.723C427.477 368.829 427.837 368.023 428.293 367.303C428.758 366.583 429.305 365.949 429.934 365.402C430.562 364.846 431.246 364.382 431.984 364.008C432.723 363.634 433.497 363.352 434.309 363.16C435.129 362.969 435.958 362.873 436.797 362.873C437.635 362.873 438.46 362.969 439.271 363.16C440.092 363.352 440.867 363.634 441.596 364.008C442.334 364.382 443.018 364.846 443.646 365.402C444.275 365.949 444.818 366.583 445.273 367.303C445.729 368.023 446.085 368.829 446.34 369.723C446.604 370.607 446.736 371.573 446.736 372.621ZM445.027 372.621C445.027 371.691 444.913 370.839 444.686 370.064C444.467 369.29 444.161 368.597 443.77 367.986C443.387 367.376 442.931 366.842 442.402 366.387C441.874 365.931 441.304 365.557 440.693 365.266C440.092 364.965 439.458 364.742 438.793 364.596C438.128 364.441 437.462 364.363 436.797 364.363C435.794 364.363 434.801 364.532 433.816 364.869C432.832 365.197 431.948 365.703 431.164 366.387C430.38 367.07 429.747 367.932 429.264 368.971C428.781 370.001 428.539 371.217 428.539 372.621C428.539 374.025 428.781 375.246 429.264 376.285C429.747 377.315 430.38 378.172 431.164 378.855C431.948 379.539 432.832 380.049 433.816 380.387C434.801 380.715 435.794 380.879 436.797 380.879C437.462 380.879 438.128 380.806 438.793 380.66C439.458 380.505 440.096 380.277 440.707 379.977C441.318 379.676 441.887 379.298 442.416 378.842C442.945 378.386 443.4 377.853 443.783 377.242C444.175 376.622 444.48 375.93 444.699 375.164C444.918 374.398 445.027 373.551 445.027 372.621Z" fill="#F9FBFF" stroke-dasharray="0,0,0,453.93408203125"><animate attributeType="XML" attributeName="stroke-dasharray" repeatCount="1" dur="3.5714285714285716s" values="0,0,0,453.93408203125; 
          0,226.967041015625,226.967041015625,0; 
          453.93408203125,0,0,0" keyTimes="0; 0.5; 1" fill="freeze"></animate></path>
<path d="M727.121 382V380.852C729.482 379.53 731.619 378.318 733.533 377.215C735.456 376.103 737.092 375.064 738.441 374.098C739.79 373.122 740.825 372.197 741.545 371.322C742.265 370.438 742.607 369.563 742.57 368.697C742.543 368.05 742.361 367.462 742.023 366.934C741.695 366.396 741.217 365.94 740.588 365.566C739.959 365.184 739.184 364.887 738.264 364.678C737.343 364.468 736.281 364.363 735.078 364.363C734.331 364.363 733.615 364.404 732.932 364.486C732.257 364.568 731.601 364.696 730.963 364.869C730.334 365.033 729.719 365.243 729.117 365.498C728.516 365.753 727.923 366.054 727.34 366.4V364.527C727.969 364.272 728.579 364.044 729.172 363.844C729.764 363.634 730.366 363.456 730.977 363.311C731.587 363.165 732.221 363.055 732.877 362.982C733.533 362.91 734.235 362.873 734.982 362.873C736.322 362.873 737.562 363.005 738.701 363.27C739.84 363.534 740.825 363.921 741.654 364.432C742.484 364.933 743.131 365.553 743.596 366.291C744.07 367.029 744.307 367.877 744.307 368.834C744.307 369.7 744.01 370.566 743.418 371.432C742.826 372.298 741.96 373.195 740.82 374.125C739.69 375.055 738.296 376.035 736.637 377.064C734.978 378.094 733.082 379.215 730.949 380.428H744.703V382H727.121ZM768.014 372.621C768.014 373.669 767.882 374.64 767.617 375.533C767.362 376.417 767.007 377.219 766.551 377.939C766.095 378.66 765.553 379.298 764.924 379.854C764.295 380.4 763.611 380.861 762.873 381.234C762.144 381.608 761.369 381.891 760.549 382.082C759.738 382.273 758.913 382.369 758.074 382.369C757.236 382.369 756.406 382.273 755.586 382.082C754.775 381.891 754 381.608 753.262 381.234C752.523 380.861 751.84 380.4 751.211 379.854C750.582 379.298 750.035 378.66 749.57 377.939C749.115 377.219 748.755 376.417 748.49 375.533C748.235 374.64 748.107 373.669 748.107 372.621C748.107 371.573 748.235 370.607 748.49 369.723C748.755 368.829 749.115 368.023 749.57 367.303C750.035 366.583 750.582 365.949 751.211 365.402C751.84 364.846 752.523 364.382 753.262 364.008C754 363.634 754.775 363.352 755.586 363.16C756.406 362.969 757.236 362.873 758.074 362.873C758.913 362.873 759.738 362.969 760.549 363.16C761.369 363.352 762.144 363.634 762.873 364.008C763.611 364.382 764.295 364.846 764.924 365.402C765.553 365.949 766.095 366.583 766.551 367.303C767.007 368.023 767.362 368.829 767.617 369.723C767.882 370.607 768.014 371.573 768.014 372.621ZM766.305 372.621C766.305 371.691 766.191 370.839 765.963 370.064C765.744 369.29 765.439 368.597 765.047 367.986C764.664 367.376 764.208 366.842 763.68 366.387C763.151 365.931 762.581 365.557 761.971 365.266C761.369 364.965 760.736 364.742 760.07 364.596C759.405 364.441 758.74 364.363 758.074 364.363C757.072 364.363 756.078 364.532 755.094 364.869C754.109 365.197 753.225 365.703 752.441 366.387C751.658 367.07 751.024 367.932 750.541 368.971C750.058 370.001 749.816 371.217 749.816 372.621C749.816 374.025 750.058 375.246 750.541 376.285C751.024 377.315 751.658 378.172 752.441 378.855C753.225 379.539 754.109 380.049 755.094 380.387C756.078 380.715 757.072 380.879 758.074 380.879C758.74 380.879 759.405 380.806 760.07 380.66C760.736 380.505 761.374 380.277 761.984 379.977C762.595 379.676 763.165 379.298 763.693 378.842C764.222 378.386 764.678 377.853 765.061 377.242C765.452 376.622 765.758 375.93 765.977 375.164C766.195 374.398 766.305 373.551 766.305 372.621ZM770.844 382V380.852C773.204 379.53 775.342 378.318 777.256 377.215C779.179 376.103 780.815 375.064 782.164 374.098C783.513 373.122 784.548 372.197 785.268 371.322C785.988 370.438 786.329 369.563 786.293 368.697C786.266 368.05 786.083 367.462 785.746 366.934C785.418 366.396 784.939 365.94 784.311 365.566C783.682 365.184 782.907 364.887 781.986 364.678C781.066 364.468 780.004 364.363 778.801 364.363C778.053 364.363 777.338 364.404 776.654 364.486C775.98 364.568 775.324 364.696 774.686 364.869C774.057 365.033 773.441 365.243 772.84 365.498C772.238 365.753 771.646 366.054 771.062 366.4V364.527C771.691 364.272 772.302 364.044 772.895 363.844C773.487 363.634 774.089 363.456 774.699 363.311C775.31 363.165 775.943 363.055 776.6 362.982C777.256 362.91 777.958 362.873 778.705 362.873C780.045 362.873 781.285 363.005 782.424 363.27C783.563 363.534 784.548 363.921 785.377 364.432C786.206 364.933 786.854 365.553 787.318 366.291C787.792 367.029 788.029 367.877 788.029 368.834C788.029 369.7 787.733 370.566 787.141 371.432C786.548 372.298 785.682 373.195 784.543 374.125C783.413 375.055 782.018 376.035 780.359 377.064C778.701 378.094 776.805 379.215 774.672 380.428H788.426V382H770.844ZM794.605 382V364.719L790.121 366.127V364.609L794.605 363.215H796.287V382H794.605Z" fill="#F9FBFF" stroke-dasharray="0,0,0,389.6402893066406"><animate attributeType="XML" attributeName="stroke-dasharray" repeatCount="1" dur="3.5714285714285716s" values="0,0,0,389.6402893066406; 
          0,194.8201446533203,194.8201446533203,0; 
          389.6402893066406,0,0,0" keyTimes="0; 0.5; 1" fill="freeze"></animate></path>
<path d="M767.5 9.52628C764.715 7.91858 761.285 7.91858 758.5 9.52628L630.606 83.366C627.821 84.9737 626.106 87.9449 626.106 91.1603V238.84C626.106 242.055 627.821 245.026 630.606 246.634L758.5 320.474C761.285 322.081 764.715 322.081 767.5 320.474L895.394 246.634C898.179 245.026 899.894 242.055 899.894 238.84V91.1602C899.894 87.9449 898.179 84.9737 895.394 83.366L767.5 9.52628Z" fill="url(#paint0_linear_1143_10858)" stroke="#38D2C0" stroke-width="12" stroke-dasharray="0,0,0,942.6263427734375"><animate attributeType="XML" attributeName="stroke-dasharray" repeatCount="1" dur="3.5714285714285716s" values="0,0,0,942.6263427734375; 
          0,471.31317138671875,471.31317138671875,0; 
          942.6263427734375,0,0,0" keyTimes="0; 0.5; 1" fill="freeze"></animate></path>
<path d="M742.036 190.72C738.148 190.72 734.716 189.688 731.74 187.624C728.812 185.56 726.508 182.728 724.828 179.128C723.148 175.48 722.308 171.28 722.308 166.528C722.308 160.96 723.244 156.112 725.116 151.984C726.988 147.808 729.628 144.568 733.036 142.264C736.444 139.96 740.404 138.808 744.916 138.808C747.028 138.808 749.116 139.096 751.18 139.672C753.244 140.248 755.092 141.088 756.724 142.192L754.132 146.224C752.644 145.36 751.084 144.688 749.452 144.208C747.82 143.728 746.164 143.488 744.484 143.488C741.028 143.488 738.028 144.4 735.484 146.224C732.988 148 731.044 150.568 729.652 153.928C728.308 157.288 727.588 161.32 727.492 166.024C729.364 163.624 731.596 161.752 734.188 160.408C736.78 159.064 739.468 158.392 742.252 158.392C745.516 158.392 748.42 159.064 750.964 160.408C753.508 161.752 755.5 163.624 756.94 166.024C758.38 168.376 759.1 171.064 759.1 174.088C759.1 177.256 758.356 180.112 756.868 182.656C755.38 185.152 753.34 187.12 750.748 188.56C748.204 190 745.3 190.72 742.036 190.72ZM741.532 162.64C738.892 162.64 736.348 163.312 733.9 164.656C731.5 165.952 729.412 167.752 727.636 170.056C728.02 173.272 728.836 176.104 730.084 178.552C731.38 180.952 733.036 182.824 735.052 184.168C737.116 185.512 739.42 186.184 741.964 186.184C744.268 186.184 746.308 185.68 748.084 184.672C749.908 183.616 751.324 182.176 752.332 180.352C753.388 178.528 753.916 176.488 753.916 174.232C753.916 171.976 753.388 169.984 752.332 168.256C751.276 166.48 749.812 165.112 747.94 164.152C746.116 163.144 743.98 162.64 741.532 162.64ZM783.942 138.808C787.83 138.808 791.238 139.84 794.166 141.904C797.142 143.968 799.47 146.824 801.15 150.472C802.83 154.072 803.67 158.248 803.67 163C803.67 168.568 802.734 173.44 800.862 177.616C798.99 181.744 796.35 184.96 792.942 187.264C789.582 189.568 785.622 190.72 781.062 190.72C778.998 190.72 776.91 190.432 774.798 189.856C772.734 189.232 770.886 188.392 769.254 187.336L771.846 183.304C773.334 184.168 774.894 184.84 776.526 185.32C778.206 185.8 779.862 186.04 781.494 186.04C784.95 186.04 787.926 185.152 790.422 183.376C792.966 181.552 794.934 178.96 796.326 175.6C797.718 172.192 798.438 168.16 798.486 163.504C796.614 165.904 794.382 167.776 791.79 169.12C789.198 170.464 786.51 171.136 783.726 171.136C780.462 171.136 777.558 170.464 775.014 169.12C772.47 167.728 770.478 165.856 769.038 163.504C767.598 161.152 766.878 158.464 766.878 155.44C766.878 152.224 767.622 149.368 769.11 146.872C770.598 144.376 772.614 142.408 775.158 140.968C777.75 139.528 780.678 138.808 783.942 138.808ZM784.446 166.888C787.086 166.888 789.606 166.24 792.006 164.944C794.454 163.6 796.566 161.776 798.342 159.472C798.006 156.208 797.19 153.376 795.894 150.976C794.598 148.576 792.942 146.704 790.926 145.36C788.91 144.016 786.606 143.344 784.014 143.344C781.758 143.344 779.718 143.872 777.894 144.928C776.07 145.936 774.63 147.352 773.574 149.176C772.566 150.952 772.062 152.992 772.062 155.296C772.062 157.552 772.59 159.568 773.646 161.344C774.702 163.072 776.166 164.44 778.038 165.448C779.91 166.408 782.046 166.888 784.446 166.888Z" fill="white" stroke-dasharray="0,0,0,563.8521118164062"><animate attributeType="XML" attributeName="stroke-dasharray" repeatCount="1" dur="3.5714285714285716s" values="0,0,0,563.8521118164062; 
          0,281.9260559082031,281.9260559082031,0; 
          563.8521118164062,0,0,0" keyTimes="0; 0.5; 1" fill="freeze"></animate></path>
<path d="M408.5 49.5263C405.715 47.9186 402.285 47.9186 399.5 49.5263L288.926 113.366C286.142 114.974 284.426 117.945 284.426 121.16V248.84C284.426 252.055 286.142 255.026 288.926 256.634L399.5 320.474C402.285 322.081 405.715 322.081 408.5 320.474L519.074 256.634C521.858 255.026 523.574 252.055 523.574 248.84V121.16C523.574 117.945 521.858 114.974 519.074 113.366L408.5 49.5263Z" fill="url(#paint1_linear_1143_10858)" stroke="#38D2C0" stroke-width="12" stroke-dasharray="0,0,0,822.626708984375"><animate attributeType="XML" attributeName="stroke-dasharray" repeatCount="1" dur="3.5714285714285716s" values="0,0,0,822.626708984375; 
          0,411.3133544921875,411.3133544921875,0; 
          822.626708984375,0,0,0" keyTimes="0; 0.5; 1" fill="freeze"></animate></path>
<path d="M387.976 207.62C384.628 207.62 381.673 206.731 379.11 204.954C376.589 203.177 374.605 200.738 373.158 197.638C371.711 194.497 370.988 190.88 370.988 186.788C370.988 181.993 371.794 177.819 373.406 174.264C375.018 170.668 377.291 167.878 380.226 165.894C383.161 163.91 386.571 162.918 390.456 162.918C392.275 162.918 394.073 163.166 395.85 163.662C397.627 164.158 399.219 164.881 400.624 165.832L398.392 169.304C397.111 168.56 395.767 167.981 394.362 167.568C392.957 167.155 391.531 166.948 390.084 166.948C387.108 166.948 384.525 167.733 382.334 169.304C380.185 170.833 378.511 173.045 377.312 175.938C376.155 178.831 375.535 182.303 375.452 186.354C377.064 184.287 378.986 182.675 381.218 181.518C383.45 180.361 385.765 179.782 388.162 179.782C390.973 179.782 393.473 180.361 395.664 181.518C397.855 182.675 399.57 184.287 400.81 186.354C402.05 188.379 402.67 190.694 402.67 193.298C402.67 196.026 402.029 198.485 400.748 200.676C399.467 202.825 397.71 204.52 395.478 205.76C393.287 207 390.787 207.62 387.976 207.62ZM387.542 183.44C385.269 183.44 383.078 184.019 380.97 185.176C378.903 186.292 377.105 187.842 375.576 189.826C375.907 192.595 376.609 195.034 377.684 197.142C378.8 199.209 380.226 200.821 381.962 201.978C383.739 203.135 385.723 203.714 387.914 203.714C389.898 203.714 391.655 203.28 393.184 202.412C394.755 201.503 395.974 200.263 396.842 198.692C397.751 197.121 398.206 195.365 398.206 193.422C398.206 191.479 397.751 189.764 396.842 188.276C395.933 186.747 394.672 185.569 393.06 184.742C391.489 183.874 389.65 183.44 387.542 183.44ZM409.981 207V203.714L427.341 184.742C428.705 183.254 429.759 181.952 430.503 180.836C431.288 179.679 431.825 178.604 432.115 177.612C432.445 176.62 432.611 175.566 432.611 174.45C432.611 172.259 431.743 170.461 430.007 169.056C428.312 167.609 426.142 166.886 423.497 166.886C421.471 166.886 419.591 167.279 417.855 168.064C416.119 168.849 414.176 170.213 412.027 172.156L409.423 169.056C411.696 166.989 413.99 165.46 416.305 164.468C418.619 163.435 421.037 162.918 423.559 162.918C426.163 162.918 428.477 163.414 430.503 164.406C432.528 165.357 434.119 166.679 435.277 168.374C436.434 170.069 437.013 172.011 437.013 174.202C437.013 175.649 436.827 176.992 436.455 178.232C436.083 179.431 435.421 180.733 434.471 182.138C433.52 183.502 432.156 185.155 430.379 187.098L415.561 203.156L437.943 203.094V207H409.981Z" fill="white" stroke-dasharray="0,0,0,440.25885009765625"><animate attributeType="XML" attributeName="stroke-dasharray" repeatCount="1" dur="3.5714285714285716s" values="0,0,0,440.25885009765625; 
          0,220.12942504882812,220.12942504882812,0; 
          440.25885009765625,0,0,0" keyTimes="0; 0.5; 1" fill="freeze"></animate></path>
<path d="M109.5 129.526C106.715 127.919 103.285 127.919 100.5 129.526L24.5673 173.366C21.7827 174.974 20.0673 177.945 20.0673 181.16V268.84C20.0673 272.055 21.7827 275.026 24.5673 276.634L100.5 320.474C103.285 322.081 106.715 322.081 109.5 320.474L185.433 276.634C188.217 275.026 189.933 272.055 189.933 268.84V181.16C189.933 177.945 188.217 174.974 185.433 173.366L109.5 129.526Z" fill="url(#paint2_linear_1143_10858)" stroke="#38D2C0" stroke-width="12" stroke-dasharray="0,0,0,582.62646484375"><animate attributeType="XML" attributeName="stroke-dasharray" repeatCount="1" dur="3.5714285714285716s" values="0,0,0,582.62646484375; 
          0,291.313232421875,291.313232421875,0; 
          582.62646484375,0,0,0" keyTimes="0; 0.5; 1" fill="freeze"></animate></path>
<path d="M97.2238 240V232.146H80.5078V229.71L97.0138 210.6H100.29V229.5H103.818V232.146H100.29V240H97.2238ZM84.2878 229.5H97.2238V214.506L84.2878 229.5ZM108.921 240V237.774L120.681 224.922C121.605 223.914 122.319 223.032 122.823 222.276C123.355 221.492 123.719 220.764 123.915 220.092C124.139 219.42 124.251 218.706 124.251 217.95C124.251 216.466 123.663 215.248 122.487 214.296C121.339 213.316 119.869 212.826 118.077 212.826C116.705 212.826 115.431 213.092 114.255 213.624C113.079 214.156 111.763 215.08 110.307 216.396L108.543 214.296C110.083 212.896 111.637 211.86 113.205 211.188C114.773 210.488 116.411 210.138 118.119 210.138C119.883 210.138 121.451 210.474 122.823 211.146C124.195 211.79 125.273 212.686 126.057 213.834C126.841 214.982 127.233 216.298 127.233 217.782C127.233 218.762 127.107 219.672 126.855 220.512C126.603 221.324 126.155 222.206 125.511 223.158C124.867 224.082 123.943 225.202 122.739 226.518L112.701 237.396L127.863 237.354V240H108.921Z" fill="white" stroke-dasharray="0,0,0,276.58905029296875"><animate attributeType="XML" attributeName="stroke-dasharray" repeatCount="1" dur="3.5714285714285716s" values="0,0,0,276.58905029296875; 
          0,138.29452514648438,138.29452514648438,0; 
          276.58905029296875,0,0,0" keyTimes="0; 0.5; 1" fill="freeze"></animate></path>
<path d="M29.666 429.292L30.1 427.346L28.2939 428.27L28 427.598L29.918 426.674L28.476 425.568L28.98 424.994L30.366 426.114L30.73 424.266H31.472L31.052 426.114L32.816 425.232L33.124 425.89L31.2339 426.786L32.718 427.906L32.186 428.494L30.7859 427.36L30.408 429.292H29.666ZM33.131 434.066L35.217 424.266H42.091L41.881 425.218H36.071L35.329 428.648H39.137L38.941 429.586H35.133L34.377 433.114H40.257L40.061 434.066H33.131ZM40.797 436.922L42.897 427.052H43.905L43.793 427.556C44.399 427.155 45.043 426.954 45.725 426.954C46.322 426.954 46.8489 427.094 47.3069 427.374C47.7729 427.654 48.142 428.037 48.413 428.522C48.683 429.007 48.819 429.558 48.819 430.174C48.819 430.725 48.716 431.243 48.511 431.728C48.315 432.213 48.039 432.643 47.685 433.016C47.339 433.38 46.933 433.669 46.467 433.884C46 434.089 45.501 434.192 44.969 434.192C44.493 434.192 44.049 434.103 43.639 433.926C43.237 433.749 42.892 433.497 42.603 433.17L41.805 436.922H40.797ZM44.941 433.268C45.482 433.268 45.967 433.133 46.397 432.862C46.835 432.591 47.181 432.227 47.433 431.77C47.694 431.313 47.825 430.809 47.825 430.258C47.825 429.791 47.7269 429.381 47.5309 429.026C47.3349 428.662 47.059 428.377 46.705 428.172C46.359 427.967 45.963 427.864 45.515 427.864C45.151 427.864 44.801 427.929 44.465 428.06C44.138 428.181 43.8439 428.363 43.5829 428.606L42.827 432.134C43.013 432.479 43.298 432.755 43.681 432.96C44.063 433.165 44.483 433.268 44.941 433.268ZM49.506 434.066L50.99 427.052H51.998L50.514 434.066H49.506ZM51.844 425.708C51.667 425.708 51.518 425.647 51.396 425.526C51.284 425.405 51.228 425.255 51.228 425.078C51.228 424.938 51.261 424.812 51.326 424.7C51.401 424.579 51.499 424.485 51.62 424.42C51.742 424.345 51.868 424.308 51.998 424.308C52.176 424.308 52.3199 424.369 52.4319 424.49C52.5539 424.602 52.614 424.747 52.614 424.924C52.614 425.064 52.577 425.195 52.502 425.316C52.437 425.428 52.344 425.521 52.222 425.596C52.11 425.671 51.984 425.708 51.844 425.708ZM54.928 434.206C54.358 434.206 53.803 434.089 53.262 433.856C52.72 433.623 52.286 433.305 51.96 432.904L52.632 432.274C52.949 432.629 53.304 432.899 53.696 433.086C54.097 433.273 54.517 433.366 54.956 433.366C55.478 433.366 55.908 433.245 56.244 433.002C56.589 432.759 56.762 432.451 56.762 432.078C56.762 431.817 56.673 431.611 56.496 431.462C56.318 431.303 56.029 431.177 55.628 431.084L54.48 430.818C53.882 430.687 53.444 430.477 53.164 430.188C52.884 429.899 52.744 429.521 52.744 429.054C52.744 428.625 52.851 428.256 53.066 427.948C53.28 427.631 53.579 427.383 53.962 427.206C54.344 427.029 54.792 426.94 55.306 426.94C55.828 426.94 56.323 427.033 56.79 427.22C57.266 427.397 57.709 427.673 58.12 428.046L57.504 428.718C57.158 428.41 56.7899 428.177 56.3979 428.018C56.0149 427.85 55.632 427.766 55.25 427.766C54.774 427.766 54.391 427.878 54.102 428.102C53.812 428.326 53.668 428.615 53.668 428.97C53.668 429.231 53.752 429.437 53.92 429.586C54.097 429.735 54.386 429.857 54.788 429.95L55.936 430.216C56.552 430.356 57.0039 430.571 57.2939 430.86C57.5829 431.14 57.728 431.513 57.728 431.98C57.728 432.4 57.602 432.778 57.35 433.114C57.107 433.45 56.776 433.716 56.356 433.912C55.936 434.108 55.46 434.206 54.928 434.206ZM62.157 434.206C61.531 434.206 60.971 434.061 60.477 433.772C59.991 433.483 59.604 433.086 59.315 432.582C59.035 432.069 58.895 431.495 58.895 430.86C58.895 430.328 58.993 429.824 59.189 429.348C59.385 428.872 59.655 428.452 60.001 428.088C60.355 427.724 60.757 427.439 61.205 427.234C61.662 427.019 62.1469 426.912 62.6609 426.912C63.2859 426.912 63.841 427.057 64.327 427.346C64.821 427.635 65.209 428.032 65.489 428.536C65.778 429.04 65.923 429.614 65.923 430.258C65.923 430.79 65.825 431.294 65.629 431.77C65.433 432.246 65.157 432.666 64.803 433.03C64.457 433.394 64.056 433.683 63.599 433.898C63.151 434.103 62.67 434.206 62.157 434.206ZM62.199 433.282C62.572 433.282 62.922 433.207 63.249 433.058C63.575 432.899 63.865 432.685 64.117 432.414C64.369 432.134 64.565 431.817 64.705 431.462C64.854 431.098 64.929 430.715 64.929 430.314C64.929 429.838 64.826 429.413 64.621 429.04C64.425 428.667 64.149 428.373 63.795 428.158C63.449 427.943 63.057 427.836 62.619 427.836C62.245 427.836 61.895 427.915 61.569 428.074C61.242 428.223 60.953 428.438 60.701 428.718C60.449 428.989 60.248 429.306 60.099 429.67C59.959 430.025 59.889 430.403 59.889 430.804C59.889 431.271 59.987 431.695 60.183 432.078C60.388 432.451 60.663 432.745 61.009 432.96C61.363 433.175 61.76 433.282 62.199 433.282ZM70.1089 434.178C69.5209 434.178 68.994 434.038 68.527 433.758C68.061 433.478 67.692 433.095 67.421 432.61C67.151 432.125 67.015 431.574 67.015 430.958C67.015 430.407 67.113 429.894 67.309 429.418C67.515 428.933 67.795 428.508 68.149 428.144C68.504 427.771 68.915 427.481 69.381 427.276C69.848 427.061 70.347 426.954 70.879 426.954C71.355 426.954 71.7939 427.043 72.1949 427.22C72.6059 427.388 72.956 427.635 73.245 427.962L74.029 424.266L75.079 424.028L72.951 434.066H71.943L72.041 433.576C71.453 433.977 70.8089 434.178 70.1089 434.178ZM70.3329 433.282C70.6879 433.282 71.033 433.217 71.369 433.086C71.705 432.946 72.004 432.755 72.265 432.512L73.021 428.984C72.835 428.648 72.55 428.377 72.167 428.172C71.785 427.967 71.365 427.864 70.907 427.864C70.375 427.864 69.89 427.999 69.451 428.27C69.013 428.541 68.663 428.905 68.401 429.362C68.14 429.81 68.009 430.314 68.009 430.874C68.009 431.341 68.107 431.756 68.303 432.12C68.509 432.484 68.784 432.769 69.129 432.974C69.484 433.179 69.8849 433.282 70.3329 433.282ZM78.511 434.192C77.858 434.192 77.274 434.052 76.761 433.772C76.248 433.492 75.8459 433.105 75.5569 432.61C75.2679 432.106 75.123 431.537 75.123 430.902C75.123 430.361 75.216 429.852 75.403 429.376C75.599 428.891 75.865 428.466 76.201 428.102C76.546 427.738 76.938 427.453 77.377 427.248C77.825 427.043 78.301 426.94 78.805 426.94C79.374 426.94 79.883 427.085 80.331 427.374C80.779 427.663 81.134 428.055 81.395 428.55C81.656 429.045 81.787 429.609 81.787 430.244C81.787 430.337 81.7819 430.44 81.7729 430.552C81.7729 430.655 81.764 430.762 81.745 430.874H76.131C76.14 431.341 76.252 431.756 76.467 432.12C76.682 432.484 76.971 432.773 77.335 432.988C77.699 433.193 78.105 433.296 78.553 433.296C78.898 433.296 79.234 433.245 79.561 433.142C79.888 433.039 80.182 432.899 80.443 432.722L80.975 433.436C80.592 433.697 80.2 433.889 79.799 434.01C79.398 434.131 78.968 434.192 78.511 434.192ZM76.229 430.048H80.821C80.793 429.619 80.686 429.241 80.499 428.914C80.312 428.587 80.065 428.331 79.757 428.144C79.449 427.948 79.099 427.85 78.707 427.85C78.315 427.85 77.946 427.948 77.601 428.144C77.265 428.331 76.976 428.592 76.733 428.928C76.5 429.255 76.332 429.628 76.229 430.048ZM85.17 434.206C84.601 434.206 84.045 434.089 83.504 433.856C82.963 433.623 82.529 433.305 82.202 432.904L82.874 432.274C83.191 432.629 83.546 432.899 83.938 433.086C84.339 433.273 84.759 433.366 85.198 433.366C85.721 433.366 86.15 433.245 86.486 433.002C86.831 432.759 87.004 432.451 87.004 432.078C87.004 431.817 86.915 431.611 86.738 431.462C86.561 431.303 86.271 431.177 85.87 431.084L84.722 430.818C84.125 430.687 83.6859 430.477 83.4059 430.188C83.1259 429.899 82.986 429.521 82.986 429.054C82.986 428.625 83.093 428.256 83.308 427.948C83.523 427.631 83.821 427.383 84.204 427.206C84.587 427.029 85.035 426.94 85.548 426.94C86.071 426.94 86.565 427.033 87.032 427.22C87.508 427.397 87.951 427.673 88.362 428.046L87.746 428.718C87.401 428.41 87.032 428.177 86.64 428.018C86.257 427.85 85.875 427.766 85.492 427.766C85.016 427.766 84.633 427.878 84.344 428.102C84.055 428.326 83.91 428.615 83.91 428.97C83.91 429.231 83.994 429.437 84.162 429.586C84.339 429.735 84.629 429.857 85.03 429.95L86.178 430.216C86.794 430.356 87.2469 430.571 87.5359 430.86C87.8249 431.14 87.97 431.513 87.97 431.98C87.97 432.4 87.844 432.778 87.592 433.114C87.349 433.45 87.018 433.716 86.598 433.912C86.178 434.108 85.702 434.206 85.17 434.206ZM93.812 434.066L92.342 427.052H93.42L94.554 432.722L98.11 427.052H99.244L94.764 434.066H93.812ZM98.711 434.066L100.195 427.052H101.203L99.719 434.066H98.711ZM101.049 425.708C100.872 425.708 100.723 425.647 100.601 425.526C100.489 425.405 100.433 425.255 100.433 425.078C100.433 424.938 100.466 424.812 100.531 424.7C100.606 424.579 100.704 424.485 100.825 424.42C100.947 424.345 101.073 424.308 101.203 424.308C101.381 424.308 101.525 424.369 101.637 424.49C101.759 424.602 101.819 424.747 101.819 424.924C101.819 425.064 101.782 425.195 101.707 425.316C101.642 425.428 101.549 425.521 101.427 425.596C101.315 425.671 101.189 425.708 101.049 425.708ZM104.777 437.006C104.263 437.006 103.736 436.913 103.195 436.726C102.663 436.549 102.196 436.301 101.795 435.984L102.327 435.214C102.737 435.503 103.139 435.723 103.531 435.872C103.932 436.021 104.333 436.096 104.735 436.096C105.827 436.096 106.494 435.541 106.737 434.43L106.919 433.562C106.321 433.963 105.673 434.164 104.973 434.164C104.385 434.164 103.857 434.024 103.391 433.744C102.924 433.464 102.555 433.086 102.285 432.61C102.023 432.125 101.893 431.574 101.893 430.958C101.893 430.407 101.991 429.889 102.187 429.404C102.392 428.919 102.667 428.494 103.013 428.13C103.367 427.757 103.778 427.467 104.245 427.262C104.711 427.057 105.211 426.954 105.743 426.954C106.209 426.954 106.648 427.038 107.059 427.206C107.469 427.374 107.815 427.621 108.095 427.948L108.291 427.052H109.299L107.745 434.528C107.577 435.331 107.236 435.942 106.723 436.362C106.219 436.791 105.57 437.006 104.777 437.006ZM105.197 433.268C105.934 433.268 106.583 433.011 107.143 432.498L107.885 428.984C107.698 428.639 107.413 428.368 107.031 428.172C106.648 427.967 106.228 427.864 105.771 427.864C105.239 427.864 104.753 427.999 104.315 428.27C103.876 428.541 103.526 428.905 103.265 429.362C103.013 429.81 102.887 430.314 102.887 430.874C102.887 431.341 102.985 431.756 103.181 432.12C103.377 432.475 103.647 432.755 103.993 432.96C104.347 433.165 104.749 433.268 105.197 433.268ZM109.608 434.066L111.092 427.052H112.1L110.616 434.066H109.608ZM111.946 425.708C111.769 425.708 111.619 425.647 111.498 425.526C111.386 425.405 111.33 425.255 111.33 425.078C111.33 424.938 111.363 424.812 111.428 424.7C111.503 424.579 111.601 424.485 111.722 424.42C111.843 424.345 111.969 424.308 112.1 424.308C112.277 424.308 112.422 424.369 112.534 424.49C112.655 424.602 112.716 424.747 112.716 424.924C112.716 425.064 112.679 425.195 112.604 425.316C112.539 425.428 112.445 425.521 112.324 425.596C112.212 425.671 112.086 425.708 111.946 425.708ZM112.383 434.066L114.469 424.266L115.519 424.028L113.391 434.066H112.383ZM117.637 434.164C116.918 434.164 116.339 433.987 115.901 433.632C115.462 433.277 115.243 432.801 115.243 432.204C115.243 431.747 115.359 431.35 115.593 431.014C115.826 430.669 116.157 430.403 116.587 430.216C117.016 430.02 117.52 429.922 118.099 429.922C118.509 429.922 118.906 429.978 119.289 430.09C119.681 430.193 120.031 430.337 120.339 430.524L120.521 429.698C120.651 429.063 120.577 428.587 120.297 428.27C120.026 427.953 119.545 427.794 118.855 427.794C118.556 427.794 118.239 427.841 117.903 427.934C117.576 428.018 117.193 428.153 116.755 428.34L116.475 427.514C116.96 427.309 117.413 427.159 117.833 427.066C118.253 426.973 118.649 426.926 119.023 426.926C119.657 426.926 120.18 427.033 120.591 427.248C121.001 427.463 121.286 427.775 121.445 428.186C121.613 428.587 121.636 429.068 121.515 429.628L120.577 434.066H119.583L119.709 433.492C119.391 433.716 119.06 433.884 118.715 433.996C118.379 434.108 118.019 434.164 117.637 434.164ZM117.903 433.366C118.267 433.366 118.612 433.31 118.939 433.198C119.275 433.077 119.592 432.895 119.891 432.652L120.171 431.336C119.639 430.897 118.943 430.678 118.085 430.678C117.543 430.678 117.095 430.813 116.741 431.084C116.386 431.355 116.209 431.695 116.209 432.106C116.209 432.498 116.358 432.806 116.657 433.03C116.955 433.254 117.371 433.366 117.903 433.366ZM122.241 434.066L123.725 427.052H124.733L124.579 427.752C125.204 427.201 125.913 426.926 126.707 426.926C127.257 426.926 127.719 427.052 128.093 427.304C128.475 427.556 128.746 427.901 128.905 428.34C129.063 428.779 129.082 429.278 128.961 429.838L128.065 434.066H127.057L127.925 429.964C128.065 429.32 127.99 428.802 127.701 428.41C127.421 428.018 126.977 427.822 126.371 427.822C125.988 427.822 125.624 427.906 125.279 428.074C124.943 428.242 124.639 428.485 124.369 428.802L123.249 434.066H122.241ZM133.288 434.192C132.69 434.192 132.154 434.057 131.678 433.786C131.202 433.506 130.828 433.128 130.558 432.652C130.287 432.167 130.152 431.616 130.152 431C130.152 430.449 130.254 429.931 130.46 429.446C130.665 428.951 130.945 428.517 131.3 428.144C131.664 427.771 132.079 427.477 132.546 427.262C133.012 427.047 133.512 426.94 134.044 426.94C134.566 426.94 135.07 427.061 135.556 427.304C136.041 427.547 136.428 427.869 136.718 428.27L135.976 428.956C135.724 428.601 135.425 428.335 135.08 428.158C134.744 427.971 134.375 427.878 133.974 427.878C133.6 427.878 133.241 427.962 132.896 428.13C132.56 428.289 132.261 428.513 132 428.802C131.738 429.082 131.533 429.409 131.384 429.782C131.234 430.146 131.16 430.538 131.16 430.958C131.16 431.387 131.258 431.779 131.454 432.134C131.659 432.489 131.93 432.769 132.266 432.974C132.611 433.179 132.994 433.282 133.414 433.282C133.75 433.282 134.081 433.217 134.408 433.086C134.744 432.955 135.075 432.769 135.402 432.526L135.892 433.254C135.089 433.879 134.221 434.192 133.288 434.192ZM140.376 434.192C139.723 434.192 139.139 434.052 138.626 433.772C138.113 433.492 137.711 433.105 137.422 432.61C137.133 432.106 136.988 431.537 136.988 430.902C136.988 430.361 137.081 429.852 137.268 429.376C137.464 428.891 137.73 428.466 138.066 428.102C138.411 427.738 138.803 427.453 139.242 427.248C139.69 427.043 140.166 426.94 140.67 426.94C141.239 426.94 141.748 427.085 142.196 427.374C142.644 427.663 142.999 428.055 143.26 428.55C143.521 429.045 143.652 429.609 143.652 430.244C143.652 430.337 143.647 430.44 143.638 430.552C143.638 430.655 143.629 430.762 143.61 430.874H137.996C138.005 431.341 138.117 431.756 138.332 432.12C138.547 432.484 138.836 432.773 139.2 432.988C139.564 433.193 139.97 433.296 140.418 433.296C140.763 433.296 141.099 433.245 141.426 433.142C141.753 433.039 142.047 432.899 142.308 432.722L142.84 433.436C142.457 433.697 142.065 433.889 141.664 434.01C141.263 434.131 140.833 434.192 140.376 434.192ZM138.094 430.048H142.686C142.658 429.619 142.551 429.241 142.364 428.914C142.177 428.587 141.93 428.331 141.622 428.144C141.314 427.948 140.964 427.85 140.572 427.85C140.18 427.85 139.811 427.948 139.466 428.144C139.13 428.331 138.841 428.592 138.598 428.928C138.365 429.255 138.197 429.628 138.094 430.048ZM146.713 436.922L148.813 427.052H149.821L149.709 427.556C150.315 427.155 150.959 426.954 151.641 426.954C152.238 426.954 152.765 427.094 153.223 427.374C153.689 427.654 154.058 428.037 154.329 428.522C154.599 429.007 154.735 429.558 154.735 430.174C154.735 430.725 154.632 431.243 154.427 431.728C154.231 432.213 153.955 432.643 153.601 433.016C153.255 433.38 152.849 433.669 152.383 433.884C151.916 434.089 151.417 434.192 150.885 434.192C150.409 434.192 149.965 434.103 149.555 433.926C149.153 433.749 148.808 433.497 148.519 433.17L147.721 436.922H146.713ZM150.857 433.268C151.398 433.268 151.883 433.133 152.313 432.862C152.751 432.591 153.097 432.227 153.349 431.77C153.61 431.313 153.741 430.809 153.741 430.258C153.741 429.791 153.643 429.381 153.447 429.026C153.251 428.662 152.975 428.377 152.621 428.172C152.275 427.967 151.879 427.864 151.431 427.864C151.067 427.864 150.717 427.929 150.381 428.06C150.054 428.181 149.76 428.363 149.499 428.606L148.743 432.134C148.929 432.479 149.214 432.755 149.597 432.96C149.979 433.165 150.399 433.268 150.857 433.268ZM159.09 434.206C158.465 434.206 157.905 434.061 157.41 433.772C156.925 433.483 156.538 433.086 156.248 432.582C155.968 432.069 155.828 431.495 155.828 430.86C155.828 430.328 155.926 429.824 156.122 429.348C156.318 428.872 156.589 428.452 156.934 428.088C157.289 427.724 157.69 427.439 158.138 427.234C158.596 427.019 159.081 426.912 159.594 426.912C160.22 426.912 160.775 427.057 161.26 427.346C161.755 427.635 162.142 428.032 162.422 428.536C162.712 429.04 162.856 429.614 162.856 430.258C162.856 430.79 162.758 431.294 162.562 431.77C162.366 432.246 162.091 432.666 161.736 433.03C161.391 433.394 160.99 433.683 160.532 433.898C160.084 434.103 159.604 434.206 159.09 434.206ZM159.132 433.282C159.506 433.282 159.856 433.207 160.182 433.058C160.509 432.899 160.798 432.685 161.05 432.414C161.302 432.134 161.498 431.817 161.638 431.462C161.788 431.098 161.862 430.715 161.862 430.314C161.862 429.838 161.76 429.413 161.554 429.04C161.358 428.667 161.083 428.373 160.728 428.158C160.383 427.943 159.991 427.836 159.552 427.836C159.179 427.836 158.829 427.915 158.502 428.074C158.176 428.223 157.886 428.438 157.634 428.718C157.382 428.989 157.182 429.306 157.032 429.67C156.892 430.025 156.822 430.403 156.822 430.804C156.822 431.271 156.92 431.695 157.116 432.078C157.322 432.451 157.597 432.745 157.942 432.96C158.297 433.175 158.694 433.282 159.132 433.282ZM166.343 434.192C165.792 434.192 165.326 434.066 164.943 433.814C164.56 433.553 164.29 433.203 164.131 432.764C163.982 432.325 163.963 431.826 164.075 431.266L164.971 427.052H165.979L165.111 431.154C164.971 431.798 165.046 432.316 165.335 432.708C165.624 433.1 166.068 433.296 166.665 433.296C167.057 433.296 167.426 433.212 167.771 433.044C168.116 432.867 168.42 432.615 168.681 432.288L169.801 427.052H170.809L169.311 434.066H168.303L168.457 433.366C167.832 433.917 167.127 434.192 166.343 434.192ZM173.232 434.066L171.762 427.052H172.84L173.974 432.722L177.53 427.052H178.664L174.184 434.066H173.232ZM180.541 434.164C179.822 434.164 179.244 433.987 178.805 433.632C178.366 433.277 178.147 432.801 178.147 432.204C178.147 431.747 178.264 431.35 178.497 431.014C178.73 430.669 179.062 430.403 179.491 430.216C179.92 430.02 180.424 429.922 181.003 429.922C181.414 429.922 181.81 429.978 182.193 430.09C182.585 430.193 182.935 430.337 183.243 430.524L183.425 429.698C183.556 429.063 183.481 428.587 183.201 428.27C182.93 427.953 182.45 427.794 181.759 427.794C181.46 427.794 181.143 427.841 180.807 427.934C180.48 428.018 180.098 428.153 179.659 428.34L179.379 427.514C179.864 427.309 180.317 427.159 180.737 427.066C181.157 426.973 181.554 426.926 181.927 426.926C182.562 426.926 183.084 427.033 183.495 427.248C183.906 427.463 184.19 427.775 184.349 428.186C184.517 428.587 184.54 429.068 184.419 429.628L183.481 434.066H182.487L182.613 433.492C182.296 433.716 181.964 433.884 181.619 433.996C181.283 434.108 180.924 434.164 180.541 434.164ZM180.807 433.366C181.171 433.366 181.516 433.31 181.843 433.198C182.179 433.077 182.496 432.895 182.795 432.652L183.075 431.336C182.543 430.897 181.848 430.678 180.989 430.678C180.448 430.678 180 430.813 179.645 431.084C179.29 431.355 179.113 431.695 179.113 432.106C179.113 432.498 179.262 432.806 179.561 433.03C179.86 433.254 180.275 433.366 180.807 433.366ZM185.145 434.066L186.629 427.052H187.637L187.483 427.752C188.108 427.201 188.818 426.926 189.611 426.926C190.162 426.926 190.624 427.052 190.997 427.304C191.38 427.556 191.65 427.901 191.809 428.34C191.968 428.779 191.986 429.278 191.865 429.838L190.969 434.066H189.961L190.829 429.964C190.969 429.32 190.894 428.802 190.605 428.41C190.325 428.018 189.882 427.822 189.275 427.822C188.892 427.822 188.528 427.906 188.183 428.074C187.847 428.242 187.544 428.485 187.273 428.802L186.153 434.066H185.145ZM195.357 434.192C194.703 434.192 194.227 434.038 193.929 433.73C193.639 433.413 193.555 432.969 193.677 432.4L194.615 427.934H193.131L193.327 427.052H194.797L195.175 425.274L196.253 425.008L195.819 427.052H197.863L197.667 427.934H195.623L194.713 432.176C194.629 432.577 194.666 432.867 194.825 433.044C194.983 433.212 195.291 433.296 195.749 433.296C195.879 433.296 196.005 433.287 196.127 433.268C196.248 433.24 196.393 433.203 196.561 433.156L196.379 434.066C196.229 434.103 196.061 434.131 195.875 434.15C195.697 434.178 195.525 434.192 195.357 434.192ZM203.144 434.206C202.575 434.206 202.02 434.089 201.478 433.856C200.937 433.623 200.503 433.305 200.176 432.904L200.848 432.274C201.166 432.629 201.52 432.899 201.912 433.086C202.314 433.273 202.734 433.366 203.172 433.366C203.695 433.366 204.124 433.245 204.46 433.002C204.806 432.759 204.978 432.451 204.978 432.078C204.978 431.817 204.89 431.611 204.712 431.462C204.535 431.303 204.246 431.177 203.844 431.084L202.696 430.818C202.099 430.687 201.66 430.477 201.38 430.188C201.1 429.899 200.96 429.521 200.96 429.054C200.96 428.625 201.068 428.256 201.282 427.948C201.497 427.631 201.796 427.383 202.178 427.206C202.561 427.029 203.009 426.94 203.522 426.94C204.045 426.94 204.54 427.033 205.006 427.22C205.482 427.397 205.926 427.673 206.336 428.046L205.72 428.718C205.375 428.41 205.006 428.177 204.614 428.018C204.232 427.85 203.849 427.766 203.466 427.766C202.99 427.766 202.608 427.878 202.318 428.102C202.029 428.326 201.884 428.615 201.884 428.97C201.884 429.231 201.968 429.437 202.136 429.586C202.314 429.735 202.603 429.857 203.004 429.95L204.152 430.216C204.768 430.356 205.221 430.571 205.51 430.86C205.8 431.14 205.944 431.513 205.944 431.98C205.944 432.4 205.818 432.778 205.566 433.114C205.324 433.45 204.992 433.716 204.572 433.912C204.152 434.108 203.676 434.206 203.144 434.206ZM207.741 426.954L209.155 424H210.275L208.553 426.954H207.741ZM212.728 434.192C212.074 434.192 211.491 434.052 210.978 433.772C210.464 433.492 210.063 433.105 209.774 432.61C209.484 432.106 209.34 431.537 209.34 430.902C209.34 430.361 209.433 429.852 209.62 429.376C209.816 428.891 210.082 428.466 210.418 428.102C210.763 427.738 211.155 427.453 211.594 427.248C212.042 427.043 212.518 426.94 213.022 426.94C213.591 426.94 214.1 427.085 214.548 427.374C214.996 427.663 215.35 428.055 215.612 428.55C215.873 429.045 216.004 429.609 216.004 430.244C216.004 430.337 215.999 430.44 215.99 430.552C215.99 430.655 215.98 430.762 215.962 430.874H210.348C210.357 431.341 210.469 431.756 210.684 432.12C210.898 432.484 211.188 432.773 211.552 432.988C211.916 433.193 212.322 433.296 212.77 433.296C213.115 433.296 213.451 433.245 213.778 433.142C214.104 433.039 214.398 432.899 214.66 432.722L215.192 433.436C214.809 433.697 214.417 433.889 214.016 434.01C213.614 434.131 213.185 434.192 212.728 434.192ZM210.446 430.048H215.038C215.01 429.619 214.902 429.241 214.716 428.914C214.529 428.587 214.282 428.331 213.974 428.144C213.666 427.948 213.316 427.85 212.924 427.85C212.532 427.85 212.163 427.948 211.818 428.144C211.482 428.331 211.192 428.592 210.95 428.928C210.716 429.255 210.548 429.628 210.446 430.048ZM212.63 425.666L214.268 424.042H215.598L213.568 425.666H212.63ZM219.337 434.192C218.684 434.192 218.208 434.038 217.909 433.73C217.62 433.413 217.536 432.969 217.657 432.4L218.595 427.934H217.111L217.307 427.052H218.777L219.155 425.274L220.233 425.008L219.799 427.052H221.843L221.647 427.934H219.603L218.693 432.176C218.609 432.577 218.647 432.867 218.805 433.044C218.964 433.212 219.272 433.296 219.729 433.296C219.86 433.296 219.986 433.287 220.107 433.268C220.229 433.24 220.373 433.203 220.541 433.156L220.359 434.066C220.21 434.103 220.042 434.131 219.855 434.15C219.678 434.178 219.505 434.192 219.337 434.192ZM225.114 434.192C224.461 434.192 223.878 434.052 223.364 433.772C222.851 433.492 222.45 433.105 222.16 432.61C221.871 432.106 221.726 431.537 221.726 430.902C221.726 430.361 221.82 429.852 222.006 429.376C222.202 428.891 222.468 428.466 222.804 428.102C223.15 427.738 223.542 427.453 223.98 427.248C224.428 427.043 224.904 426.94 225.408 426.94C225.978 426.94 226.486 427.085 226.934 427.374C227.382 427.663 227.737 428.055 227.998 428.55C228.26 429.045 228.39 429.609 228.39 430.244C228.39 430.337 228.386 430.44 228.376 430.552C228.376 430.655 228.367 430.762 228.348 430.874H222.734C222.744 431.341 222.856 431.756 223.07 432.12C223.285 432.484 223.574 432.773 223.938 432.988C224.302 433.193 224.708 433.296 225.156 433.296C225.502 433.296 225.838 433.245 226.164 433.142C226.491 433.039 226.785 432.899 227.046 432.722L227.578 433.436C227.196 433.697 226.804 433.889 226.402 434.01C226.001 434.131 225.572 434.192 225.114 434.192ZM222.832 430.048H227.424C227.396 429.619 227.289 429.241 227.102 428.914C226.916 428.587 226.668 428.331 226.36 428.144C226.052 427.948 225.702 427.85 225.31 427.85C224.918 427.85 224.55 427.948 224.204 428.144C223.868 428.331 223.579 428.592 223.336 428.928C223.103 429.255 222.935 429.628 222.832 430.048ZM229.059 434.066L230.543 427.052H231.551L231.397 427.752C232.022 427.201 232.732 426.926 233.525 426.926C234.076 426.926 234.538 427.052 234.911 427.304C235.294 427.556 235.564 427.901 235.723 428.34C235.882 428.779 235.9 429.278 235.779 429.838L234.883 434.066H233.875L234.743 429.964C234.883 429.32 234.808 428.802 234.519 428.41C234.239 428.018 233.796 427.822 233.189 427.822C232.806 427.822 232.442 427.906 232.097 428.074C231.761 428.242 231.458 428.485 231.187 428.802L230.067 434.066H229.059ZM240.092 434.178C239.504 434.178 238.977 434.038 238.51 433.758C238.043 433.478 237.675 433.095 237.404 432.61C237.133 432.125 236.998 431.574 236.998 430.958C236.998 430.407 237.096 429.894 237.292 429.418C237.497 428.933 237.777 428.508 238.132 428.144C238.487 427.771 238.897 427.481 239.364 427.276C239.831 427.061 240.33 426.954 240.862 426.954C241.338 426.954 241.777 427.043 242.178 427.22C242.589 427.388 242.939 427.635 243.228 427.962L244.012 424.266L245.062 424.028L242.934 434.066H241.926L242.024 433.576C241.436 433.977 240.792 434.178 240.092 434.178ZM240.316 433.282C240.671 433.282 241.016 433.217 241.352 433.086C241.688 432.946 241.987 432.755 242.248 432.512L243.004 428.984C242.817 428.648 242.533 428.377 242.15 428.172C241.767 427.967 241.347 427.864 240.89 427.864C240.358 427.864 239.873 427.999 239.434 428.27C238.995 428.541 238.645 428.905 238.384 429.362C238.123 429.81 237.992 430.314 237.992 430.874C237.992 431.341 238.09 431.756 238.286 432.12C238.491 432.484 238.767 432.769 239.112 432.974C239.467 433.179 239.868 433.282 240.316 433.282ZM244.685 434.066L246.183 427.052H247.177L246.995 427.934C247.257 427.607 247.56 427.355 247.905 427.178C248.251 426.991 248.619 426.898 249.011 426.898C249.301 426.898 249.548 426.94 249.753 427.024L249.557 427.976C249.464 427.929 249.343 427.892 249.193 427.864C249.044 427.836 248.899 427.822 248.759 427.822C247.947 427.822 247.271 428.27 246.729 429.166L245.693 434.066H244.685ZM253.087 434.192C252.434 434.192 251.85 434.052 251.337 433.772C250.824 433.492 250.422 433.105 250.133 432.61C249.844 432.106 249.699 431.537 249.699 430.902C249.699 430.361 249.792 429.852 249.979 429.376C250.175 428.891 250.441 428.466 250.777 428.102C251.122 427.738 251.514 427.453 251.953 427.248C252.401 427.043 252.877 426.94 253.381 426.94C253.95 426.94 254.459 427.085 254.907 427.374C255.355 427.663 255.71 428.055 255.971 428.55C256.232 429.045 256.363 429.609 256.363 430.244C256.363 430.337 256.358 430.44 256.349 430.552C256.349 430.655 256.34 430.762 256.321 430.874H250.707C250.716 431.341 250.828 431.756 251.043 432.12C251.258 432.484 251.547 432.773 251.911 432.988C252.275 433.193 252.681 433.296 253.129 433.296C253.474 433.296 253.81 433.245 254.137 433.142C254.464 433.039 254.758 432.899 255.019 432.722L255.551 433.436C255.168 433.697 254.776 433.889 254.375 434.01C253.974 434.131 253.544 434.192 253.087 434.192ZM250.805 430.048H255.397C255.369 429.619 255.262 429.241 255.075 428.914C254.888 428.587 254.641 428.331 254.333 428.144C254.025 427.948 253.675 427.85 253.283 427.85C252.891 427.85 252.522 427.948 252.177 428.144C251.841 428.331 251.552 428.592 251.309 428.928C251.076 429.255 250.908 429.628 250.805 430.048ZM263.526 434.178C262.938 434.178 262.41 434.038 261.944 433.758C261.477 433.478 261.108 433.095 260.838 432.61C260.567 432.125 260.432 431.574 260.432 430.958C260.432 430.407 260.53 429.894 260.726 429.418C260.931 428.933 261.211 428.508 261.566 428.144C261.92 427.771 262.331 427.481 262.798 427.276C263.264 427.061 263.764 426.954 264.296 426.954C264.772 426.954 265.21 427.043 265.612 427.22C266.022 427.388 266.372 427.635 266.662 427.962L267.446 424.266L268.496 424.028L266.368 434.066H265.36L265.458 433.576C264.87 433.977 264.226 434.178 263.526 434.178ZM263.75 433.282C264.104 433.282 264.45 433.217 264.786 433.086C265.122 432.946 265.42 432.755 265.682 432.512L266.438 428.984C266.251 428.648 265.966 428.377 265.584 428.172C265.201 427.967 264.781 427.864 264.324 427.864C263.792 427.864 263.306 427.999 262.868 428.27C262.429 428.541 262.079 428.905 261.818 429.362C261.556 429.81 261.426 430.314 261.426 430.874C261.426 431.341 261.524 431.756 261.72 432.12C261.925 432.484 262.2 432.769 262.546 432.974C262.9 433.179 263.302 433.282 263.75 433.282ZM271.927 434.192C271.274 434.192 270.69 434.052 270.177 433.772C269.664 433.492 269.262 433.105 268.973 432.61C268.684 432.106 268.539 431.537 268.539 430.902C268.539 430.361 268.632 429.852 268.819 429.376C269.015 428.891 269.281 428.466 269.617 428.102C269.962 427.738 270.354 427.453 270.793 427.248C271.241 427.043 271.717 426.94 272.221 426.94C272.79 426.94 273.299 427.085 273.747 427.374C274.195 427.663 274.55 428.055 274.811 428.55C275.072 429.045 275.203 429.609 275.203 430.244C275.203 430.337 275.198 430.44 275.189 430.552C275.189 430.655 275.18 430.762 275.161 430.874H269.547C269.556 431.341 269.668 431.756 269.883 432.12C270.098 432.484 270.387 432.773 270.751 432.988C271.115 433.193 271.521 433.296 271.969 433.296C272.314 433.296 272.65 433.245 272.977 433.142C273.304 433.039 273.598 432.899 273.859 432.722L274.391 433.436C274.008 433.697 273.616 433.889 273.215 434.01C272.814 434.131 272.384 434.192 271.927 434.192ZM269.645 430.048H274.237C274.209 429.619 274.102 429.241 273.915 428.914C273.728 428.587 273.481 428.331 273.173 428.144C272.865 427.948 272.515 427.85 272.123 427.85C271.731 427.85 271.362 427.948 271.017 428.144C270.681 428.331 270.392 428.592 270.149 428.928C269.916 429.255 269.748 429.628 269.645 430.048ZM281.665 434.192C281.115 434.192 280.648 434.066 280.265 433.814C279.883 433.553 279.612 433.203 279.453 432.764C279.304 432.325 279.285 431.826 279.397 431.266L280.293 427.052H281.301L280.433 431.154C280.293 431.798 280.368 432.316 280.657 432.708C280.947 433.1 281.39 433.296 281.987 433.296C282.379 433.296 282.748 433.212 283.093 433.044C283.439 432.867 283.742 432.615 284.003 432.288L285.123 427.052H286.131L284.633 434.066H283.625L283.779 433.366C283.154 433.917 282.449 434.192 281.665 434.192ZM286.413 434.066L287.897 427.052H288.905L288.751 427.752C289.376 427.201 290.085 426.926 290.879 426.926C291.429 426.926 291.891 427.052 292.265 427.304C292.647 427.556 292.918 427.901 293.077 428.34C293.235 428.779 293.254 429.278 293.133 429.838L292.237 434.066H291.229L292.097 429.964C292.237 429.32 292.162 428.802 291.873 428.41C291.593 428.018 291.149 427.822 290.543 427.822C290.16 427.822 289.796 427.906 289.451 428.074C289.115 428.242 288.811 428.485 288.541 428.802L287.421 434.066H286.413ZM299.445 434.164C298.727 434.164 298.148 433.987 297.709 433.632C297.271 433.277 297.051 432.801 297.051 432.204C297.051 431.747 297.168 431.35 297.401 431.014C297.635 430.669 297.966 430.403 298.395 430.216C298.825 430.02 299.329 429.922 299.907 429.922C300.318 429.922 300.715 429.978 301.097 430.09C301.489 430.193 301.839 430.337 302.147 430.524L302.329 429.698C302.46 429.063 302.385 428.587 302.105 428.27C301.835 427.953 301.354 427.794 300.663 427.794C300.365 427.794 300.047 427.841 299.711 427.934C299.385 428.018 299.002 428.153 298.563 428.34L298.283 427.514C298.769 427.309 299.221 427.159 299.641 427.066C300.061 426.973 300.458 426.926 300.831 426.926C301.466 426.926 301.989 427.033 302.399 427.248C302.81 427.463 303.095 427.775 303.253 428.186C303.421 428.587 303.445 429.068 303.323 429.628L302.385 434.066H301.391L301.517 433.492C301.2 433.716 300.869 433.884 300.523 433.996C300.187 434.108 299.828 434.164 299.445 434.164ZM299.711 433.366C300.075 433.366 300.421 433.31 300.747 433.198C301.083 433.077 301.401 432.895 301.699 432.652L301.979 431.336C301.447 430.897 300.752 430.678 299.893 430.678C299.352 430.678 298.904 430.813 298.549 431.084C298.195 431.355 298.017 431.695 298.017 432.106C298.017 432.498 298.167 432.806 298.465 433.03C298.764 433.254 299.179 433.366 299.711 433.366ZM300.845 425.666L299.151 424.042H300.453L301.727 425.666H300.845ZM306.441 436.922L308.541 427.052H309.549L309.437 427.556C310.044 427.155 310.688 426.954 311.369 426.954C311.966 426.954 312.494 427.094 312.951 427.374C313.418 427.654 313.786 428.037 314.057 428.522C314.328 429.007 314.463 429.558 314.463 430.174C314.463 430.725 314.36 431.243 314.155 431.728C313.959 432.213 313.684 432.643 313.329 433.016C312.984 433.38 312.578 433.669 312.111 433.884C311.644 434.089 311.145 434.192 310.613 434.192C310.137 434.192 309.694 434.103 309.283 433.926C308.882 433.749 308.536 433.497 308.247 433.17L307.449 436.922H306.441ZM310.585 433.268C311.126 433.268 311.612 433.133 312.041 432.862C312.48 432.591 312.825 432.227 313.077 431.77C313.338 431.313 313.469 430.809 313.469 430.258C313.469 429.791 313.371 429.381 313.175 429.026C312.979 428.662 312.704 428.377 312.349 428.172C312.004 427.967 311.607 427.864 311.159 427.864C310.795 427.864 310.445 427.929 310.109 428.06C309.782 428.181 309.488 428.363 309.227 428.606L308.471 432.134C308.658 432.479 308.942 432.755 309.325 432.96C309.708 433.165 310.128 433.268 310.585 433.268ZM315.151 434.066L317.237 424.266L318.287 424.028L316.159 434.066H315.151ZM320.712 434.192C320.162 434.192 319.695 434.066 319.312 433.814C318.93 433.553 318.659 433.203 318.5 432.764C318.351 432.325 318.332 431.826 318.444 431.266L319.34 427.052H320.348L319.48 431.154C319.34 431.798 319.415 432.316 319.704 432.708C319.994 433.1 320.437 433.296 321.034 433.296C321.426 433.296 321.795 433.212 322.14 433.044C322.486 432.867 322.789 432.615 323.05 432.288L324.17 427.052H325.178L323.68 434.066H322.672L322.826 433.366C322.201 433.917 321.496 434.192 320.712 434.192ZM328.105 434.206C327.536 434.206 326.981 434.089 326.439 433.856C325.898 433.623 325.464 433.305 325.137 432.904L325.809 432.274C326.127 432.629 326.481 432.899 326.873 433.086C327.275 433.273 327.695 433.366 328.133 433.366C328.656 433.366 329.085 433.245 329.421 433.002C329.767 432.759 329.939 432.451 329.939 432.078C329.939 431.817 329.851 431.611 329.673 431.462C329.496 431.303 329.207 431.177 328.805 431.084L327.657 430.818C327.06 430.687 326.621 430.477 326.341 430.188C326.061 429.899 325.921 429.521 325.921 429.054C325.921 428.625 326.029 428.256 326.243 427.948C326.458 427.631 326.757 427.383 327.139 427.206C327.522 427.029 327.97 426.94 328.483 426.94C329.006 426.94 329.501 427.033 329.967 427.22C330.443 427.397 330.887 427.673 331.297 428.046L330.681 428.718C330.336 428.41 329.967 428.177 329.575 428.018C329.193 427.85 328.81 427.766 328.427 427.766C327.951 427.766 327.569 427.878 327.279 428.102C326.99 428.326 326.845 428.615 326.845 428.97C326.845 429.231 326.929 429.437 327.097 429.586C327.275 429.735 327.564 429.857 327.965 429.95L329.113 430.216C329.729 430.356 330.182 430.571 330.471 430.86C330.761 431.14 330.905 431.513 330.905 431.98C330.905 432.4 330.779 432.778 330.527 433.114C330.285 433.45 329.953 433.716 329.533 433.912C329.113 434.108 328.637 434.206 328.105 434.206ZM331.598 434.066L333.082 427.052H334.09L332.606 434.066H331.598ZM333.936 425.708C333.759 425.708 333.609 425.647 333.488 425.526C333.376 425.405 333.32 425.255 333.32 425.078C333.32 424.938 333.353 424.812 333.418 424.7C333.493 424.579 333.591 424.485 333.712 424.42C333.833 424.345 333.959 424.308 334.09 424.308C334.267 424.308 334.412 424.369 334.524 424.49C334.645 424.602 334.706 424.747 334.706 424.924C334.706 425.064 334.669 425.195 334.594 425.316C334.529 425.428 334.435 425.521 334.314 425.596C334.202 425.671 334.076 425.708 333.936 425.708ZM338.153 434.192C337.5 434.192 336.917 434.052 336.403 433.772C335.89 433.492 335.489 433.105 335.199 432.61C334.91 432.106 334.765 431.537 334.765 430.902C334.765 430.361 334.859 429.852 335.045 429.376C335.241 428.891 335.507 428.466 335.843 428.102C336.189 427.738 336.581 427.453 337.019 427.248C337.467 427.043 337.943 426.94 338.447 426.94C339.017 426.94 339.525 427.085 339.973 427.374C340.421 427.663 340.776 428.055 341.037 428.55C341.299 429.045 341.429 429.609 341.429 430.244C341.429 430.337 341.425 430.44 341.415 430.552C341.415 430.655 341.406 430.762 341.387 430.874H335.773C335.783 431.341 335.895 431.756 336.109 432.12C336.324 432.484 336.613 432.773 336.977 432.988C337.341 433.193 337.747 433.296 338.195 433.296C338.541 433.296 338.877 433.245 339.203 433.142C339.53 433.039 339.824 432.899 340.085 432.722L340.617 433.436C340.235 433.697 339.843 433.889 339.441 434.01C339.04 434.131 338.611 434.192 338.153 434.192ZM335.871 430.048H340.463C340.435 429.619 340.328 429.241 340.141 428.914C339.955 428.587 339.707 428.331 339.399 428.144C339.091 427.948 338.741 427.85 338.349 427.85C337.957 427.85 337.589 427.948 337.243 428.144C336.907 428.331 336.618 428.592 336.375 428.928C336.142 429.255 335.974 429.628 335.871 430.048ZM344.884 434.192C344.333 434.192 343.867 434.066 343.484 433.814C343.101 433.553 342.831 433.203 342.672 432.764C342.523 432.325 342.504 431.826 342.616 431.266L343.512 427.052H344.52L343.652 431.154C343.512 431.798 343.587 432.316 343.876 432.708C344.165 433.1 344.609 433.296 345.206 433.296C345.598 433.296 345.967 433.212 346.312 433.044C346.657 432.867 346.961 432.615 347.222 432.288L348.342 427.052H349.35L347.852 434.066H346.844L346.998 433.366C346.373 433.917 345.668 434.192 344.884 434.192ZM349.603 434.066L351.101 427.052H352.095L351.913 427.934C352.175 427.607 352.478 427.355 352.823 427.178C353.169 426.991 353.537 426.898 353.929 426.898C354.219 426.898 354.466 426.94 354.671 427.024L354.475 427.976C354.382 427.929 354.261 427.892 354.111 427.864C353.962 427.836 353.817 427.822 353.677 427.822C352.865 427.822 352.189 428.27 351.647 429.166L350.611 434.066H349.603ZM357.076 434.206C356.507 434.206 355.951 434.089 355.41 433.856C354.869 433.623 354.435 433.305 354.108 432.904L354.78 432.274C355.097 432.629 355.452 432.899 355.844 433.086C356.245 433.273 356.665 433.366 357.104 433.366C357.627 433.366 358.056 433.245 358.392 433.002C358.737 432.759 358.91 432.451 358.91 432.078C358.91 431.817 358.821 431.611 358.644 431.462C358.467 431.303 358.177 431.177 357.776 431.084L356.628 430.818C356.031 430.687 355.592 430.477 355.312 430.188C355.032 429.899 354.892 429.521 354.892 429.054C354.892 428.625 354.999 428.256 355.214 427.948C355.429 427.631 355.727 427.383 356.11 427.206C356.493 427.029 356.941 426.94 357.454 426.94C357.977 426.94 358.471 427.033 358.938 427.22C359.414 427.397 359.857 427.673 360.268 428.046L359.652 428.718C359.307 428.41 358.938 428.177 358.546 428.018C358.163 427.85 357.781 427.766 357.398 427.766C356.922 427.766 356.539 427.878 356.25 428.102C355.961 428.326 355.816 428.615 355.816 428.97C355.816 429.231 355.9 429.437 356.068 429.586C356.245 429.735 356.535 429.857 356.936 429.95L358.084 430.216C358.7 430.356 359.153 430.571 359.442 430.86C359.731 431.14 359.876 431.513 359.876 431.98C359.876 432.4 359.75 432.778 359.498 433.114C359.255 433.45 358.924 433.716 358.504 433.912C358.084 434.108 357.608 434.206 357.076 434.206ZM365.915 425.708C365.737 425.708 365.588 425.647 365.467 425.526C365.355 425.405 365.299 425.255 365.299 425.078C365.299 424.938 365.331 424.812 365.397 424.7C365.471 424.579 365.569 424.485 365.691 424.42C365.812 424.345 365.938 424.308 366.069 424.308C366.246 424.308 366.391 424.369 366.503 424.49C366.624 424.602 366.685 424.747 366.685 424.924C366.685 425.064 366.647 425.195 366.573 425.316C366.507 425.428 366.414 425.521 366.293 425.596C366.181 425.671 366.055 425.708 365.915 425.708ZM362.317 436.964C362.205 436.964 362.083 436.955 361.953 436.936C361.813 436.917 361.691 436.889 361.589 436.852L361.771 435.984C361.845 436.012 361.934 436.031 362.037 436.04C362.13 436.059 362.237 436.068 362.359 436.068C362.639 436.068 362.858 435.993 363.017 435.844C363.166 435.704 363.273 435.475 363.339 435.158L365.061 427.052H366.069L364.319 435.284C364.207 435.825 363.973 436.241 363.619 436.53C363.273 436.819 362.839 436.964 362.317 436.964ZM370.02 434.206C369.395 434.206 368.835 434.061 368.34 433.772C367.855 433.483 367.467 433.086 367.178 432.582C366.898 432.069 366.758 431.495 366.758 430.86C366.758 430.328 366.856 429.824 367.052 429.348C367.248 428.872 367.519 428.452 367.864 428.088C368.219 427.724 368.62 427.439 369.068 427.234C369.525 427.019 370.011 426.912 370.524 426.912C371.149 426.912 371.705 427.057 372.19 427.346C372.685 427.635 373.072 428.032 373.352 428.536C373.641 429.04 373.786 429.614 373.786 430.258C373.786 430.79 373.688 431.294 373.492 431.77C373.296 432.246 373.021 432.666 372.666 433.03C372.321 433.394 371.919 433.683 371.462 433.898C371.014 434.103 370.533 434.206 370.02 434.206ZM370.062 433.282C370.435 433.282 370.785 433.207 371.112 433.058C371.439 432.899 371.728 432.685 371.98 432.414C372.232 432.134 372.428 431.817 372.568 431.462C372.717 431.098 372.792 430.715 372.792 430.314C372.792 429.838 372.689 429.413 372.484 429.04C372.288 428.667 372.013 428.373 371.658 428.158C371.313 427.943 370.921 427.836 370.482 427.836C370.109 427.836 369.759 427.915 369.432 428.074C369.105 428.223 368.816 428.438 368.564 428.718C368.312 428.989 368.111 429.306 367.962 429.67C367.822 430.025 367.752 430.403 367.752 430.804C367.752 431.271 367.85 431.695 368.046 432.078C368.251 432.451 368.527 432.745 368.872 432.96C369.227 433.175 369.623 433.282 370.062 433.282ZM377.273 434.192C376.722 434.192 376.255 434.066 375.873 433.814C375.49 433.553 375.219 433.203 375.061 432.764C374.911 432.325 374.893 431.826 375.005 431.266L375.901 427.052H376.909L376.041 431.154C375.901 431.798 375.975 432.316 376.265 432.708C376.554 433.1 376.997 433.296 377.595 433.296C377.987 433.296 378.355 433.212 378.701 433.044C379.046 432.867 379.349 432.615 379.611 432.288L380.731 427.052H381.739L380.241 434.066H379.233L379.387 433.366C378.761 433.917 378.057 434.192 377.273 434.192ZM381.992 434.066L383.49 427.052H384.484L384.302 427.934C384.563 427.607 384.867 427.355 385.212 427.178C385.557 426.991 385.926 426.898 386.318 426.898C386.607 426.898 386.855 426.94 387.06 427.024L386.864 427.976C386.771 427.929 386.649 427.892 386.5 427.864C386.351 427.836 386.206 427.822 386.066 427.822C385.254 427.822 384.577 428.27 384.036 429.166L383 434.066H381.992ZM389.465 434.206C388.895 434.206 388.34 434.089 387.799 433.856C387.257 433.623 386.823 433.305 386.497 432.904L387.169 432.274C387.486 432.629 387.841 432.899 388.233 433.086C388.634 433.273 389.054 433.366 389.493 433.366C390.015 433.366 390.445 433.245 390.781 433.002C391.126 432.759 391.299 432.451 391.299 432.078C391.299 431.817 391.21 431.611 391.033 431.462C390.855 431.303 390.566 431.177 390.165 431.084L389.017 430.818C388.419 430.687 387.981 430.477 387.701 430.188C387.421 429.899 387.281 429.521 387.281 429.054C387.281 428.625 387.388 428.256 387.603 427.948C387.817 427.631 388.116 427.383 388.499 427.206C388.881 427.029 389.329 426.94 389.843 426.94C390.365 426.94 390.86 427.033 391.327 427.22C391.803 427.397 392.246 427.673 392.657 428.046L392.041 428.718C391.695 428.41 391.327 428.177 390.935 428.018C390.552 427.85 390.169 427.766 389.787 427.766C389.311 427.766 388.928 427.878 388.639 428.102C388.349 428.326 388.205 428.615 388.205 428.97C388.205 429.231 388.289 429.437 388.457 429.586C388.634 429.735 388.923 429.857 389.325 429.95L390.473 430.216C391.089 430.356 391.541 430.571 391.831 430.86C392.12 431.14 392.265 431.513 392.265 431.98C392.265 432.4 392.139 432.778 391.887 433.114C391.644 433.45 391.313 433.716 390.893 433.912C390.473 434.108 389.997 434.206 389.465 434.206Z" fill="white" stroke-dasharray="0,0,0,1936.6240234375"><animate attributeType="XML" attributeName="stroke-dasharray" repeatCount="1" dur="3.5714285714285716s" values="0,0,0,1936.6240234375; 
          0,968.31201171875,968.31201171875,0; 
          1936.6240234375,0,0,0" keyTimes="0; 0.5; 1" fill="freeze"></animate></path>
<defs>
<linearGradient id="paint0_linear_1143_10858" x1="979.211" y1="-116.638" x2="499.19" y2="59.1405" gradientUnits="userSpaceOnUse">
<stop stop-color="#38D2AD" stop-opacity="0.47"></stop>
<stop offset="0.385417" stop-color="#005664"></stop>
<stop offset="0.699179" stop-color="#142B33"></stop>
</linearGradient>
<linearGradient id="paint1_linear_1143_10858" x1="594.004" y1="-62.5" x2="172.167" y2="91.972" gradientUnits="userSpaceOnUse">
<stop stop-color="#38D2AD" stop-opacity="0.47"></stop>
<stop offset="0.385417" stop-color="#005664"></stop>
<stop offset="0.699179" stop-color="#142B33"></stop>
</linearGradient>
<linearGradient id="paint2_linear_1143_10858" x1="242.589" y1="45.7759" x2="-62.8789" y2="157.635" gradientUnits="userSpaceOnUse">
<stop stop-color="#38D2AD" stop-opacity="0.47"></stop>
<stop offset="0.385417" stop-color="#005664"></stop>
<stop offset="0.699179" stop-color="#142B33"></stop>
</linearGradient>
</defs>
<setting>{"type":"direct","speed":14,"random":1,"shift":1,"size":1,"rupture":50}</setting></svg>