<svg width="48" height="48" viewBox="0 0 48 48" fill="none" xmlns="http://www.w3.org/2000/svg">
<path d="M0 0V48H48V0H0ZM38.2217 16.9509C38.2354 17.2526 38.2491 17.5543 38.2491 17.8697C38.2491 27.2777 31.0217 38.112 17.8286 38.112C13.7829 38.112 9.99771 36.9326 6.82971 34.9166C7.392 34.9851 7.95429 35.0126 8.544 35.0126C11.904 35.0126 15.0034 33.8743 17.4583 31.968C14.3177 31.9131 11.6709 29.8423 10.752 27.0309C11.1909 27.1131 11.6434 27.168 12.1097 27.168C12.768 27.168 13.3989 27.072 14.0023 26.9074C10.7246 26.2491 8.24229 23.3829 8.24229 19.9269V19.8446C9.216 20.3657 10.3131 20.6949 11.4926 20.736C9.55886 19.4606 8.29714 17.28 8.29714 14.8114C8.29714 13.5086 8.65371 12.2743 9.27086 11.232C12.8091 15.5383 18.1029 18.3771 24.0686 18.6651C23.9451 18.144 23.8766 17.5954 23.8766 17.0469C23.8766 13.1246 27.0857 9.92914 31.0491 9.92914C33.1063 9.92914 34.9714 10.7931 36.288 12.1783C37.92 11.8629 39.456 11.2594 40.8411 10.4503C40.3063 12.1097 39.168 13.5086 37.6869 14.4C39.1406 14.2217 40.5257 13.8377 41.8149 13.2754C40.8549 14.7154 39.648 15.9634 38.2354 16.9646L38.2217 16.9509Z" fill="#F9FBFF"/>
</svg>
