<svg width="22" height="22" viewBox="0 0 22 22" fill="none" xmlns="http://www.w3.org/2000/svg">
<path d="M15.1748 5.17944C15.1748 7.48796 13.304 9.35889 10.9968 9.35889C8.68968 9.35889 6.81888 7.48796 6.81888 5.17944C6.81888 2.87093 8.68968 1 10.9968 1C13.304 1 15.1748 2.87093 15.1748 5.17944ZM20.9743 21.0005H1.02489C1.38461 16.6003 5.60155 12.9434 10.9969 12.9434C16.3914 12.9434 20.6091 16.5997 20.9743 21.0005ZM21.9749 21.842V21.6108V21.6108H21C21 21.6388 20.9977 21.6722 20.9904 21.7557L20.9899 21.7614C20.9856 21.8102 20.9795 21.8795 20.976 21.953L21.9749 22.0005V21.842Z" stroke="#F9FBFF" stroke-width="2"/>
</svg>
