<svg width="25" height="22" viewBox="0 0 25 22" fill="none" xmlns="http://www.w3.org/2000/svg">
<path opacity="0.05" d="M20.7223 4.81648L16.9165 6.51931L16.6297 6.6436C15.9021 6.02834 15.3984 5.22665 15.2305 4.32552L15.5243 4.19501L19.3301 2.49219L20.7223 4.81648Z" fill="#F9FBFF"/>
<path opacity="0.07" d="M20.7225 4.81648L16.9168 6.51931C16.1682 5.9227 15.6575 5.10236 15.5176 4.19501L19.3234 2.49219L20.7225 4.81648Z" fill="#F9FBFF"/>
<path opacity="0.05" d="M20.7223 17.1591L16.9165 15.4563L16.6297 15.332C15.9021 15.9473 15.3984 16.749 15.2305 17.6501L15.5243 17.7806L19.3301 19.4834L20.7223 17.1591Z" fill="#F9FBFF"/>
<path opacity="0.07" d="M20.7225 17.1599L16.9168 15.457C16.1682 16.0536 15.6575 16.874 15.5176 17.7813L19.3234 19.4841L20.7225 17.1599Z" fill="#F9FBFF"/>
<path opacity="0.05" d="M8.7054 11.7768L8.98523 11.9011C8.75437 12.7898 8.19469 13.5728 7.41815 14.1508L7.13131 14.0265L2.93376 12.1496C2.43005 11.9259 2.11523 11.4722 2.11523 10.9875C2.11523 10.5027 2.43005 10.0491 2.93376 9.82535L7.13131 7.94851L7.41815 7.82422C8.19469 8.40218 8.75437 9.17902 8.98523 10.0739L8.7054 10.1982L6.93543 10.9875L8.7054 11.7768Z" fill="#F9FBFF"/>
<path opacity="0.07" d="M6.93543 10.9882L8.70539 11.7775C8.49552 12.6724 7.92185 13.4616 7.13131 14.0272L2.93376 12.1503C2.43005 11.9266 2.11523 11.4729 2.11523 10.9882C2.11523 10.5035 2.43005 10.0498 2.93376 9.82605L7.13131 7.94922C7.92185 8.51476 8.48852 9.29781 8.70539 10.1989L6.93543 10.9882Z" fill="#F9FBFF"/>
<path d="M20.0293 14.6542C18.945 14.6542 17.9585 15.0085 17.21 15.5864L8.42309 11.6588C8.47207 11.4412 8.49305 11.2237 8.49305 10.9938C8.49305 10.7638 8.46507 10.5463 8.42309 10.3288L17.21 6.40113C17.9585 6.9791 18.945 7.33333 20.0293 7.33333C22.373 7.33333 24.2759 5.69265 24.2759 3.66667C24.2759 1.64068 22.373 0 20.0293 0C17.6857 0 15.7828 1.64068 15.7828 3.66667C15.7828 3.8096 15.7968 3.94633 15.8108 4.08305L6.83502 8.09774C6.12143 7.61921 5.22596 7.33333 4.24653 7.33333C1.90289 7.33333 0 8.97401 0 11C0 13.026 1.90289 14.6667 4.24653 14.6667C5.21896 14.6667 6.11444 14.3808 6.83502 13.9023L15.8108 17.9169C15.7898 18.0537 15.7828 18.1904 15.7828 18.3333C15.7828 20.3593 17.6857 22 20.0293 22C22.373 22 24.2759 20.3469 24.2759 18.3209C24.2759 16.2949 22.373 14.6542 20.0293 14.6542Z" fill="#F9FBFF"/>
</svg>
