<svg width="32" height="29" viewBox="0 0 32 29" fill="none" xmlns="http://www.w3.org/2000/svg">
<path d="M26.4023 19.3169C24.9729 19.3169 23.6726 19.7839 22.6859 20.5458L11.1032 15.3684C11.1677 15.0816 11.1954 14.7949 11.1954 14.4918C11.1954 14.1887 11.1585 13.902 11.1032 13.6153L22.6859 8.43785C23.6726 9.19972 24.9729 9.66667 26.4023 9.66667C29.4916 9.66667 32 7.50395 32 4.83333C32 2.16271 29.4916 0 26.4023 0C23.313 0 20.8046 2.16271 20.8046 4.83333C20.8046 5.02175 20.8231 5.20198 20.8415 5.3822L9.0098 10.6743C8.06916 10.0435 6.88876 9.66667 5.59769 9.66667C2.50836 9.66667 0 11.8294 0 14.5C0 17.1706 2.50836 19.3333 5.59769 19.3333C6.87954 19.3333 8.05994 18.9565 9.0098 18.3257L20.8415 23.6178C20.8138 23.798 20.8046 23.9782 20.8046 24.1667C20.8046 26.8373 23.313 29 26.4023 29C29.4916 29 32 26.8209 32 24.1503C32 21.4797 29.4916 19.3169 26.4023 19.3169Z" fill="#01131B"/>
</svg>
