<svg width="48" height="48" viewBox="0 0 48 48" fill="none" xmlns="http://www.w3.org/2000/svg">
<path fill-rule="evenodd" clip-rule="evenodd" d="M47.9451 48C47.9726 48 48 47.9726 48 47.9451V0.0548571C48 0.0274285 47.9726 0 47.9451 0H0.0548885C0.0274442 0 0 0.0274285 0 0.0548571V47.9451C0 47.9726 0.0274442 48 0.0548885 48H47.9451ZM41.1529 13.3996H37.544C35.1426 13.3996 34.3056 15.6761 34.2919 18.2544V21.6419H40.5491L39.6984 27.1276H34.2919V42.2133H27.4308V27.1276H21.9419V21.6419H27.4308V17.3356C27.4308 10.835 30.7378 7.98242 36.3639 7.98242C38.9315 7.98242 40.3486 8.15742 41.0568 8.24487C41.0904 8.24903 41.1224 8.25298 41.1529 8.25671V13.3996Z" fill="#F9FBFF"/>
</svg>
