<svg width="48" height="48" viewBox="0 0 48 48" fill="none" xmlns="http://www.w3.org/2000/svg">
<path d="M0 0V48H48V0H0ZM40.0046 5.33486C41.472 5.33486 42.6651 6.528 42.6651 7.99543C42.6651 9.46286 41.472 10.656 40.0046 10.656C38.5371 10.656 37.344 9.46286 37.344 7.99543C37.344 6.528 38.5234 5.33486 40.0046 5.33486ZM24 10.6697C31.3646 10.6697 37.3303 16.6354 37.3303 24C37.3303 31.3646 31.3646 37.3303 24 37.3303C16.6354 37.3303 10.6697 31.3646 10.6697 24C10.6697 16.6354 16.6354 10.6697 24 10.6697ZM24 16.0046C19.584 16.0046 16.0046 19.584 16.0046 24C16.0046 28.416 19.584 31.9954 24 31.9954C28.416 31.9954 31.9954 28.416 31.9954 24C31.9954 19.584 28.416 16.0046 24 16.0046Z" fill="#F9FBFF"/>
</svg>
