<svg width="47" height="31" viewBox="0 0 47 31" fill="none" xmlns="http://www.w3.org/2000/svg">
<path d="M39.6696 17.9583C39.7819 17.179 39.8942 16.3813 39.8942 15.5464C39.8942 11.2421 38.3784 7.64286 35.347 4.78571C32.3155 1.92857 28.5168 0.5 23.9696 0.5C19.4224 0.5 15.6424 1.92857 12.667 4.78571C11.5817 5.82468 10.7583 7.01206 10.066 8.27365C7.50231 8.40352 5.4439 9.53525 3.55391 11.6132C2.8054 12.4295 1.08382 14.4889 0.410156 15.3237C1.36451 14.8785 3.46034 13.9323 4.30242 13.487C5.79944 12.7078 7.2029 12.0955 8.69993 11.7801C8.40052 13.0046 8.21339 14.2662 8.21339 15.6206C8.21339 19.8692 9.6917 23.4128 12.6483 26.2514C15.6049 29.0714 19.3101 30.5 23.7637 30.5C28.2174 30.5 32.2781 29.09 35.3282 26.2514C36.8253 24.8785 37.9293 23.32 38.6965 21.5761C40.3433 21.0566 41.8029 20.0918 43.1876 18.6076C43.9361 17.7913 45.6577 15.7319 46.3314 14.897C45.377 15.3423 43.2812 16.2885 42.4391 16.7338C41.4847 17.2347 40.6052 17.6429 39.6883 17.9768L39.6696 17.9583ZM24.138 4.47032C27.3379 4.47032 30.0512 5.52783 32.2406 7.64286C34.4487 9.75788 35.5341 12.3553 35.5341 15.4536C35.5341 16.5668 35.347 17.5872 35.085 18.5891C32.2781 18.2922 28.7226 16.7894 23.3333 13.2644C19.8902 11.1122 17.0645 9.75788 14.6506 8.97866C15.0061 8.49629 15.3617 8.03247 15.8108 7.60575C17.9815 5.50928 20.751 4.47032 24.138 4.47032ZM24.007 26.641C20.7323 26.641 18.0002 25.602 15.8295 23.5056C13.6588 21.4091 12.5548 18.7931 12.5548 15.6391C12.5548 14.3033 12.7793 13.0788 13.1536 11.9471C15.7172 12.5594 18.8984 14.025 23.352 16.9564C27.6186 19.6095 30.9494 21.1122 33.7189 21.7059C33.3073 22.3182 32.8207 22.8933 32.2593 23.4499C30.0512 25.5835 27.3192 26.6596 24.0257 26.6596L24.007 26.641Z" fill="#F9FBFF"/>
</svg>
