<svg width="109" height="23" viewBox="0 0 109 23" fill="none" xmlns="http://www.w3.org/2000/svg">
<path fill-rule="evenodd" clip-rule="evenodd" d="M55.6803 11.0745C55.6803 11.689 55.5983 12.2761 55.5162 12.8497L55.5299 12.8633C56.2001 12.6175 56.8429 12.3171 57.5404 11.9484C58.0061 11.7005 58.9963 11.2415 59.7529 10.8908C59.9963 10.7779 60.2155 10.6763 60.3853 10.5965C59.8929 11.211 58.6346 12.7268 58.0875 13.3276C57.0754 14.42 56.0086 15.1301 54.805 15.5124C54.2442 16.796 53.4372 17.9431 52.343 18.9536C50.1136 21.0429 47.1456 22.0807 43.8904 22.0807C40.6352 22.0807 37.9271 21.0292 35.7661 18.9536C33.605 16.8643 32.5245 14.2562 32.5245 11.1291C32.5245 10.1322 32.6613 9.20369 32.8801 8.30244C31.786 8.53458 30.7602 8.9852 29.666 9.55873C29.2003 9.80669 28.21 10.2657 27.4534 10.6164C27.2101 10.7292 26.9909 10.8308 26.8211 10.9106C27.3135 10.2961 28.5718 8.78037 29.1189 8.17954C30.5003 6.65014 32.0048 5.81717 33.8786 5.72158C34.3847 4.79302 34.9865 3.91908 35.7798 3.15438C37.9545 1.05146 40.7173 0 44.0409 0C47.3645 0 50.141 1.05146 52.3567 3.15438C54.5724 5.2573 55.6803 7.90643 55.6803 11.0745ZM50.0863 5.2573C48.486 3.70059 46.5028 2.92224 44.164 2.92224C41.6884 2.92224 39.6641 3.68694 38.0775 5.22999C37.7493 5.54406 37.4894 5.88544 37.2295 6.24048C38.9939 6.814 41.0592 7.81084 43.5758 9.39486C47.5149 11.9894 50.1136 13.0955 52.1652 13.3139C52.3567 12.5766 52.4935 11.8255 52.4935 11.0062C52.4935 8.72575 51.7002 6.81401 50.0863 5.2573ZM38.0912 16.9326C39.6778 18.4756 41.6747 19.2403 44.0682 19.2403L44.0819 19.254C46.4891 19.254 48.486 18.462 50.1 16.8916C50.5103 16.482 50.8659 16.0587 51.1668 15.608C49.1425 15.1711 46.708 14.065 43.5895 12.1123C40.3343 9.95473 38.0092 8.87596 36.1354 8.42533C35.8618 9.25831 35.6977 10.1596 35.6977 11.1427C35.6977 13.4641 36.5047 15.3895 38.0912 16.9326ZM98.9835 0.177419H96.8088L87.5492 21.8211H90.7224L93.4168 15.4441H102.608L105.48 21.8211H108.64L98.9835 0.177419ZM94.6478 12.6993L97.8756 4.90216L101.35 12.6993H94.6478ZM3.09108 21.8215H0V0.300716H11.5027V3.03178H3.09108V9.04012H11.5027V11.7848H3.09108V21.8215ZM16.3716 0.300716H19.4627V19.0222H29.1737V21.8215H16.3716V0.300716ZM66.9923 15.4035L60.523 0.300716H57.4045L66.7051 21.9171H67.4027L76.5118 0.300716H73.4344L66.9923 15.4035ZM80.4916 0.300716H83.5826V21.8215H80.4916V0.300716Z" fill="#F9FBFF"/>
</svg>
