<svg width="105" height="96" viewBox="0 0 105 96" fill="none" xmlns="http://www.w3.org/2000/svg">
<path d="M94.1849 9.78406C88.3481 3.62406 81.0681 0.154057 73.682 0.00405698C67.7392 -0.105943 62.1359 2.02406 57.9971 6.01406C57.4453 6.54406 54.8028 9.34406 51.4281 12.9841L44.2649 5.69406C40.5612 1.94406 35.3824 -0.065943 29.6518 0.00405698C21.82 0.124057 13.8502 4.01406 7.69507 10.7641C-3.30982 24.6041 -5.29431 38.6041 20.6102 61.8241L18.0526 65.2541C15.962 68.0441 16.3759 72.0241 18.9759 74.3141C20.1751 75.3641 21.6714 75.9241 23.242 75.9241C23.433 75.9241 23.6347 75.9241 23.8257 75.8941C24.6641 75.8241 25.4706 75.5741 26.2028 75.2041C25.7359 77.5041 26.4469 79.9741 28.2934 81.5941C29.4926 82.6441 30.989 83.2041 32.5596 83.2041C32.7506 83.2041 32.9522 83.2041 33.1432 83.1741C33.9285 83.1041 34.6714 82.8841 35.3718 82.5541C35.2551 84.5541 36.0192 86.5741 37.611 87.9741C38.8102 89.0241 40.3065 89.5841 41.8771 89.5841C42.0681 89.5841 42.2698 89.5841 42.4608 89.5541C43.2461 89.4841 43.9996 89.2641 44.6894 88.9341C44.5726 90.9441 45.3261 92.9741 46.9285 94.3641C48.1277 95.4141 49.6241 95.9741 51.1947 95.9741C51.3857 95.9741 51.5873 95.9741 51.7783 95.9441C53.6143 95.7841 55.3016 94.8441 56.4159 93.3541L62.571 85.1141C63.3775 86.1441 64.131 87.0441 66.4445 88.9441C67.8559 90.0941 69.4902 90.6741 71.1351 90.6741C72.78 90.6741 74.4885 90.0841 75.9636 88.9141C78.4257 86.9641 79.9008 83.7141 79.2853 80.5941C79.5612 80.6241 79.8371 80.6441 80.113 80.6441C81.3122 80.6441 82.5326 80.3341 83.7 79.6941C86.9898 77.9041 89.0273 73.7141 87.2126 69.6241C89.6004 69.1641 91.7441 67.4441 92.8902 64.9841C94.2804 62.0041 93.8877 58.7441 91.882 56.0141L98.8649 48.0641C107.27 38.5141 105.169 21.3141 94.2061 9.73406L94.1849 9.78406ZM23.433 72.5641C22.86 72.6041 22.2763 72.4041 21.7775 71.9741C20.4404 70.8041 20.2387 68.5541 21.353 67.0741L29.1106 56.6941C29.5775 56.0641 30.193 55.6941 30.851 55.6341C31.4347 55.5841 32.0077 55.7841 32.5065 56.2241C33.8436 57.4041 34.0453 59.6441 32.931 61.1241L25.1734 71.5041C24.7065 72.1341 24.091 72.5041 23.433 72.5641V72.5641ZM32.7506 79.8541C32.1775 79.8941 31.5938 79.6941 31.0951 79.2641C29.7579 78.0941 29.5563 75.8441 30.6706 74.3641L38.4281 63.9841C38.8951 63.3541 39.5106 62.9841 40.1685 62.9241C40.7416 62.8841 41.3253 63.0841 41.8241 63.5141C43.1612 64.6841 43.3628 66.9341 42.2485 68.4141L34.491 78.7941C34.0241 79.4241 33.4085 79.7941 32.7506 79.8541V79.8541ZM42.0575 86.2441C41.4738 86.3041 40.9008 86.0941 40.402 85.6541C39.0649 84.4841 38.8632 82.2341 39.9775 80.7541L47.7351 70.3741C48.202 69.7441 48.8175 69.3741 49.4755 69.3141C50.0592 69.2641 50.6322 69.4641 51.131 69.9041C52.4681 71.0741 52.6698 73.3241 51.5555 74.8041L43.7979 85.1841C43.331 85.8141 42.7155 86.1841 42.0575 86.2441ZM53.1155 91.5841C52.6485 92.2141 52.033 92.5841 51.3751 92.6441C50.7914 92.7041 50.2183 92.4941 49.7196 92.0541C48.3824 90.8841 48.1808 88.6341 49.2951 87.1541L57.0526 76.7741C57.5196 76.1441 58.1351 75.7741 58.793 75.7141C59.3661 75.6541 59.9498 75.8641 60.4485 76.3041C61.7857 77.4841 61.9873 79.7241 60.873 81.2041L53.1155 91.5841ZM89.2502 63.7841C88.571 65.2241 87.3081 66.3241 86.1726 66.4341C85.5783 66.5041 84.9947 66.2541 84.4428 65.7241C79.1473 59.4341 66.9538 46.6441 66.8159 46.4941C66.1261 45.7841 64.8951 45.6841 64.0567 46.2841C63.2289 46.8741 63.1122 47.9341 63.802 48.6441C65.6273 50.5241 75.8363 61.3441 80.7392 67.0541C80.7922 67.1541 80.8559 67.2541 80.9302 67.3441C81.1 67.5541 81.291 67.7441 81.4714 67.9241C82.2461 68.8541 82.8298 69.6041 83.1269 70.0641C85.0796 73.0941 83.3604 75.9341 81.5881 76.9041C80.1555 77.6841 78.7759 77.3441 77.5873 75.9341C76.8232 75.0241 73.5759 71.4841 70.1375 67.7341C66.6673 63.9541 62.7302 59.6641 61.9661 58.7341C61.4143 58.0741 60.4167 57.8541 59.5889 58.1741C59.1857 58.1941 58.7718 58.3041 58.4322 58.5441C57.5938 59.1341 57.4771 60.1841 58.1563 60.9041C58.984 61.7741 62.8363 66.1141 66.5506 70.3241C70.0845 74.3141 73.4273 78.0941 74.2232 78.9441C76.6216 81.4841 75.2208 84.9541 73.2788 86.4841C71.8461 87.6241 70.4453 87.6441 69.1081 86.5541C66.9539 84.7841 66.4232 84.1141 65.6273 83.0841C65.3726 82.7541 65.0967 82.4041 64.7571 81.9941C66.0943 79.3141 65.5212 75.9641 63.2183 73.9441C61.8706 72.7641 60.162 72.1941 58.3685 72.3541C57.5832 72.4241 56.8298 72.6441 56.14 72.9741C56.2567 70.9641 55.5032 68.9341 53.9008 67.5341C52.553 66.3541 50.8445 65.7941 49.051 65.9441C48.2657 66.0141 47.5228 66.2341 46.8224 66.5641C46.9392 64.5641 46.1751 62.5441 44.5832 61.1441C43.2355 59.9641 41.5163 59.4041 39.7334 59.5541C38.8951 59.6241 38.0885 59.8741 37.3563 60.2441C37.8232 57.9441 37.1122 55.4741 35.2657 53.8441C33.9179 52.6641 32.1987 52.1041 30.4159 52.2541C28.58 52.4141 26.882 53.3541 25.7783 54.8441L22.7538 58.8941C-0.699212 37.6141 0.807726 25.3841 10.8469 12.7541C16.1955 6.88406 23.0722 3.46406 29.7155 3.36406C34.2787 3.31406 38.3008 4.84406 41.2616 7.86406L48.9343 15.6741C42.5138 22.6441 34.7987 31.1941 33.2069 33.4841C29.8641 38.2841 32.0289 43.7241 35.9449 46.0141C39.3302 47.9941 43.2673 47.3441 45.9416 44.3741C46.0689 44.2441 50.1016 40.0041 54.304 35.5841C58.5171 31.1641 60.9049 28.6441 62.242 27.2441L87.86 57.0341C87.86 57.0341 87.8812 57.0441 87.8812 57.0541C87.8918 57.0641 87.9024 57.0841 87.913 57.0941C89.7808 59.0441 90.269 61.5441 89.229 63.7741L89.2502 63.7841ZM95.7343 46.0941L89.4624 53.2341L63.9081 23.5141C63.5473 23.0941 62.9849 22.8441 62.38 22.8341H62.3375C61.7432 22.8341 61.1914 23.0641 60.82 23.4641C60.6714 23.6241 55.8853 28.6541 51.3008 33.4741C44.3604 40.7641 42.9489 42.2441 42.8959 42.3041C41.0812 44.3141 39.3302 43.9341 38.1734 43.2541C36.0404 42.0041 34.3 38.5141 36.5922 35.2141C38.9694 31.7941 58.7824 10.3241 60.9155 8.26406C64.3326 4.97406 68.6836 3.26406 73.5971 3.37406C79.8265 3.49406 86.0559 6.52406 91.1604 11.9041C101.072 22.3641 103.12 37.7041 95.7343 46.0941Z" fill="#F9FBFF"/>
</svg>
