<svg width="92" height="96" viewBox="0 0 92 96" fill="none" xmlns="http://www.w3.org/2000/svg">
<path d="M57.2494 36.6697H68.6294C69.5394 36.6697 70.2694 35.9497 70.2694 35.0497C70.2694 34.1497 69.5294 33.4297 68.6294 33.4297H57.2494C56.3394 33.4297 55.6094 34.1497 55.6094 35.0497C55.6094 35.9497 56.3494 36.6697 57.2494 36.6697V36.6697Z" fill="#F9FBFF"/>
<path d="M57.2494 30.7693H73.0894C73.9994 30.7693 74.7294 30.0493 74.7294 29.1493C74.7294 28.2493 73.9894 27.5293 73.0894 27.5293H57.2494C56.3394 27.5293 55.6094 28.2493 55.6094 29.1493C55.6094 30.0493 56.3494 30.7693 57.2494 30.7693Z" fill="#F9FBFF"/>
<path d="M57.2494 24.7009H80.7194C81.6294 24.7009 82.3594 23.9809 82.3594 23.0809C82.3594 22.1809 81.6194 21.4609 80.7194 21.4609H57.2494C56.3394 21.4609 55.6094 22.1809 55.6094 23.0809C55.6094 23.9809 56.3494 24.7009 57.2494 24.7009Z" fill="#F9FBFF"/>
<path d="M57.2494 18.6091H75.7594C76.6694 18.6091 77.3994 17.8891 77.3994 16.9891C77.3994 16.0891 76.6594 15.3691 75.7594 15.3691H57.2494C56.3394 15.3691 55.6094 16.0891 55.6094 16.9891C55.6094 17.8891 56.3494 18.6091 57.2494 18.6091Z" fill="#F9FBFF"/>
<path d="M23.4809 54.8008H12.1009C11.1909 54.8008 10.4609 55.5208 10.4609 56.4208C10.4609 57.3208 11.2009 58.0408 12.1009 58.0408H23.4809C24.3909 58.0408 25.1209 57.3208 25.1209 56.4208C25.1209 55.5208 24.3809 54.8008 23.4809 54.8008Z" fill="#F9FBFF"/>
<path d="M27.9409 48.9004H12.1009C11.1909 48.9004 10.4609 49.6204 10.4609 50.5204C10.4609 51.4204 11.2009 52.1404 12.1009 52.1404H27.9409C28.8509 52.1404 29.5809 51.4204 29.5809 50.5204C29.5809 49.6204 28.8409 48.9004 27.9409 48.9004V48.9004Z" fill="#F9FBFF"/>
<path d="M81.59 93.27L71.62 82.91C75.79 79.01 78.49 73.51 78.83 67.23C78.83 67.09 78.83 66.94 78.83 66.8H84.31C88.55 66.8 92 63.48 92 59.4V7.39C92 3.31 88.55 0 84.31 0H7.7C3.45 0 0 3.32 0 7.39V59.39C0 63.47 3.45 66.79 7.7 66.79H33.19C33.19 66.91 33.17 67.02 33.17 67.13C33.17 79.18 43.41 88.99 56.01 88.99C60.9 88.99 65.38 87.5 69.07 84.95L79.21 95.49C79.53 95.82 79.97 96 80.4 96C80.8 96 81.21 95.85 81.53 95.56C82.19 94.94 82.22 93.92 81.59 93.27V93.27ZM7.7 63.56C5.27 63.56 3.29 61.69 3.29 59.4V7.39C3.29 5.1 5.27 3.23 7.7 3.23H84.31C86.74 3.23 88.71 5.09 88.71 7.39V59.39C88.71 61.69 86.73 63.55 84.31 63.55H78.67C78.11 59.45 76.23 55.6 73.18 52.43C68.8 47.88 62.54 45.27 56 45.27C44.68 45.27 35.29 53.2 33.5 63.55H7.7V63.56ZM36.46 67.14C36.46 56.87 45.23 48.52 56.01 48.51C61.65 48.51 67.04 50.75 70.8 54.66C74.12 58.1 75.81 62.5 75.56 67.04C74.97 77.71 66.57 85.75 56.01 85.75C45.45 85.75 36.46 77.4 36.46 67.13V67.14Z" fill="#F9FBFF"/>
<path d="M53.6203 53.1799C48.4003 53.1799 42.5703 57.3099 42.5703 62.8399C42.5703 63.7299 43.3103 64.4599 44.2103 64.4599C45.1103 64.4599 45.8503 63.7399 45.8503 62.8399C45.8503 59.2799 50.1003 56.4099 53.6103 56.4099C54.5203 56.4099 55.2503 55.6899 55.2503 54.7899C55.2503 53.8899 54.5103 53.1699 53.6103 53.1699L53.6203 53.1799Z" fill="#F9FBFF"/>
<path d="M48.1493 41.0892C48.3193 40.8292 48.4193 40.5192 48.4193 40.1992C48.4193 39.9092 48.3493 39.6392 48.2093 39.4092C47.8593 38.6892 47.4293 37.9292 46.9793 37.1292C44.2493 32.3092 41.1593 26.8592 49.4793 18.6392C49.9393 18.1792 50.0793 17.4992 49.8393 16.8992C49.5993 16.2992 49.0093 15.8992 48.3593 15.8792C43.8493 15.7592 35.3493 10.7292 30.7393 7.36918C30.3293 7.06918 29.7993 6.97918 29.2993 7.11918C28.8093 7.25918 28.4093 7.61918 28.2193 8.08918C25.7693 14.2992 14.0793 18.1492 7.66927 17.6392C6.93927 17.5392 6.19927 18.0392 5.96927 18.7592C5.73927 19.4792 6.03927 20.2592 6.69927 20.6392C21.9893 29.5192 16.2193 41.2792 15.9693 41.7792C15.7293 42.2492 15.7393 42.8092 15.9893 43.2692C16.2393 43.7292 16.7093 44.0492 17.2393 44.1192C17.3193 44.1192 25.5793 45.1392 29.8893 47.6192C30.1393 47.7692 30.4293 47.8392 30.7193 47.8392C30.8693 47.8392 31.0193 47.8192 31.1693 47.7792C31.5993 47.6592 31.9593 47.3692 32.1693 46.9892C34.2393 43.1792 36.6493 43.5292 39.6993 43.9692C42.4893 44.3792 45.9493 44.8692 48.1493 41.0992V41.0892ZM30.1193 44.0892C26.6993 42.5292 22.2393 41.6292 19.6793 41.1992C20.8693 37.2492 22.0993 28.2992 12.4893 20.6392C19.0793 19.6892 27.0393 16.3392 30.3693 11.0692C33.3093 13.0592 39.7493 17.1492 45.0893 18.5992C37.7293 27.4292 41.5293 34.1492 44.1193 38.7092C44.3893 39.1892 44.6493 39.6492 44.8893 40.0892C43.9693 41.1892 42.7593 41.1392 40.1893 40.7692C37.1993 40.3292 33.1993 39.7492 30.1193 44.0992V44.0892Z" fill="#F9FBFF"/>
</svg>
