<svg width="47" height="47" viewBox="0 0 47 47" fill="none" xmlns="http://www.w3.org/2000/svg">
<mask id="path-1-inside-1_721_18192" fill="white">
<path fill-rule="evenodd" clip-rule="evenodd" d="M30.0629 16.0629C30.0629 19.9636 26.9007 23.1257 23 23.1257C19.0993 23.1257 15.9371 19.9636 15.9371 16.0629C15.9371 12.1622 19.0993 9 23 9C26.9007 9 30.0629 12.1622 30.0629 16.0629ZM8 38.4686C8 31.1914 14.72 25.2857 23 25.2857C31.2801 25.2857 38.0001 31.1914 38.0086 38.4686C38.0086 38.5759 37.9995 38.6803 37.9903 38.7852C37.9841 38.8562 37.9778 38.9274 37.9744 39H8.03429C8.03083 38.9274 8.02458 38.8562 8.01836 38.7852C8.00915 38.6803 8 38.5759 8 38.4686Z"/>
</mask>
<path fill-rule="evenodd" clip-rule="evenodd" d="M30.0629 16.0629C30.0629 19.9636 26.9007 23.1257 23 23.1257C19.0993 23.1257 15.9371 19.9636 15.9371 16.0629C15.9371 12.1622 19.0993 9 23 9C26.9007 9 30.0629 12.1622 30.0629 16.0629ZM8 38.4686C8 31.1914 14.72 25.2857 23 25.2857C31.2801 25.2857 38.0001 31.1914 38.0086 38.4686C38.0086 38.5759 37.9995 38.6803 37.9903 38.7852C37.9841 38.8562 37.9778 38.9274 37.9744 39H8.03429C8.03083 38.9274 8.02458 38.8562 8.01836 38.7852C8.00915 38.6803 8 38.5759 8 38.4686Z" fill="#F9FBFF"/>
<path d="M38.0086 38.4686H41.0086L41.0086 38.465L38.0086 38.4686ZM37.9903 38.7852L40.9788 39.0474L40.9788 39.0473L37.9903 38.7852ZM37.9744 39V42H40.8349L40.971 39.1427L37.9744 39ZM8.03429 39L5.03768 39.1427L5.17374 42H8.03429V39ZM8.01836 38.7852L5.02983 39.0474L5.02983 39.0474L8.01836 38.7852ZM23 26.1257C28.5576 26.1257 33.0629 21.6204 33.0629 16.0629H27.0629C27.0629 18.3067 25.2439 20.1257 23 20.1257V26.1257ZM12.9371 16.0629C12.9371 21.6204 17.4424 26.1257 23 26.1257V20.1257C20.7561 20.1257 18.9371 18.3067 18.9371 16.0629H12.9371ZM23 6C17.4424 6 12.9371 10.5053 12.9371 16.0629H18.9371C18.9371 13.819 20.7561 12 23 12V6ZM33.0629 16.0629C33.0629 10.5053 28.5576 6 23 6V12C25.2439 12 27.0629 13.819 27.0629 16.0629H33.0629ZM23 22.2857C13.4389 22.2857 5 29.1823 5 38.4686H11C11 33.2005 16.0011 28.2857 23 28.2857V22.2857ZM41.0086 38.465C40.9977 29.1824 32.5624 22.2857 23 22.2857V28.2857C29.9977 28.2857 35.0024 33.2004 35.0086 38.4721L41.0086 38.465ZM40.9788 39.0473C40.9863 38.962 41.0086 38.7284 41.0086 38.4686H35.0086C35.0086 38.4381 35.0099 38.4226 35.0093 38.4322C35.009 38.4369 35.0084 38.4456 35.0071 38.4611C35.0057 38.4776 35.0042 38.4955 35.0018 38.5231L40.9788 39.0473ZM40.971 39.1427C40.9709 39.1449 40.971 39.1402 40.9723 39.1239C40.9737 39.1058 40.9755 39.0853 40.9788 39.0474L35.0018 38.523C34.9963 38.5849 34.9845 38.7152 34.9778 38.8573L40.971 39.1427ZM8.03429 42H37.9744V36H8.03429V42ZM5.02983 39.0474C5.03316 39.0853 5.03493 39.1058 5.03634 39.1239C5.0376 39.1402 5.03779 39.1449 5.03768 39.1427L11.0309 38.8573C11.0241 38.7152 11.0123 38.5849 11.0069 38.523L5.02983 39.0474ZM5 38.4686C5 38.7284 5.02235 38.9621 5.02983 39.0474L11.0069 38.5231C11.0045 38.4954 11.0029 38.4776 11.0015 38.4611C11.0003 38.4455 10.9996 38.4368 10.9993 38.4322C10.9987 38.4226 11 38.4381 11 38.4686H5Z" fill="#F9FBFF" mask="url(#path-1-inside-1_721_18192)"/>
</svg>
