<svg width="47" height="47" viewBox="0 0 47 47" fill="none" xmlns="http://www.w3.org/2000/svg">
<mask id="path-1-inside-1_408_980" fill="white">
<path fill-rule="evenodd" clip-rule="evenodd" d="M31.0629 15.0629C31.0629 18.9636 27.9007 22.1257 24 22.1257C20.0993 22.1257 16.9371 18.9636 16.9371 15.0629C16.9371 11.1622 20.0993 8 24 8C27.9007 8 31.0629 11.1622 31.0629 15.0629ZM9 37.4685C9 30.1914 15.72 24.2856 24 24.2856C32.2801 24.2856 39.0001 30.1914 39.0086 37.4685C39.0086 37.5759 38.9995 37.6803 38.9903 37.7852C38.9841 37.8561 38.9778 37.9274 38.9744 38H9.03429C9.03083 37.9274 9.02458 37.8561 9.01836 37.7852C9.00915 37.6803 9 37.5759 9 37.4685Z"/>
</mask>
<path d="M39.0086 37.4685H42.0086L42.0086 37.465L39.0086 37.4685ZM38.9903 37.7852L36.0018 37.5231L36.0018 37.5231L38.9903 37.7852ZM38.9744 38V41H41.8349L41.971 38.1427L38.9744 38ZM9.03429 38L6.03768 38.1427L6.17374 41H9.03429V38ZM9.01836 37.7852L6.02983 38.0473L6.02983 38.0474L9.01836 37.7852ZM24 25.1257C29.5576 25.1257 34.0629 20.6204 34.0629 15.0629H28.0629C28.0629 17.3067 26.2439 19.1257 24 19.1257V25.1257ZM13.9371 15.0629C13.9371 20.6204 18.4424 25.1257 24 25.1257V19.1257C21.7561 19.1257 19.9371 17.3067 19.9371 15.0629H13.9371ZM24 5C18.4424 5 13.9371 9.5053 13.9371 15.0629H19.9371C19.9371 12.819 21.7561 11 24 11V5ZM34.0629 15.0629C34.0629 9.5053 29.5576 5 24 5V11C26.2439 11 28.0629 12.819 28.0629 15.0629H34.0629ZM24 21.2856C14.4389 21.2856 6 28.1822 6 37.4685H12C12 32.2005 17.0011 27.2856 24 27.2856V21.2856ZM42.0086 37.465C41.9977 28.1824 33.5624 21.2856 24 21.2856V27.2856C30.9977 27.2856 36.0024 32.2004 36.0086 37.4721L42.0086 37.465ZM41.9788 38.0473C41.9863 37.9621 42.0086 37.7284 42.0086 37.4685H36.0086C36.0086 37.4381 36.0099 37.4226 36.0093 37.4322C36.009 37.4368 36.0084 37.4455 36.0071 37.4611C36.0057 37.4776 36.0042 37.4955 36.0018 37.5231L41.9788 38.0473ZM41.971 38.1427C41.9709 38.1449 41.971 38.1402 41.9723 38.1239C41.9737 38.1057 41.9755 38.0852 41.9788 38.0473L36.0018 37.5231C35.9963 37.5849 35.9845 37.7152 35.9778 37.8572L41.971 38.1427ZM9.03429 41H38.9744V35H9.03429V41ZM6.02983 38.0474C6.03316 38.0853 6.03493 38.1058 6.03634 38.1239C6.0376 38.1402 6.03779 38.1449 6.03768 38.1427L12.0309 37.8573C12.0241 37.7151 12.0123 37.5848 12.0069 37.523L6.02983 38.0474ZM6 37.4685C6 37.7284 6.02235 37.9621 6.02983 38.0473L12.0069 37.523C12.0045 37.4954 12.0029 37.4775 12.0015 37.4611C12.0003 37.4455 11.9996 37.4368 11.9993 37.4322C11.9987 37.4226 12 37.4381 12 37.4685H6Z" fill="#F9FBFF" mask="url(#path-1-inside-1_408_980)"/>
</svg>
