<svg width="477" height="476" viewBox="0 0 477 476" fill="none" xmlns="http://www.w3.org/2000/svg">
<path d="M300.275 59.4659C304.962 61.0214 303.871 65.5557 302.792 69.443C305.371 72.3172 300.544 74.0104 299.432 76.3285C296.028 76.2789 298.827 80.1938 298.352 82.3439C295.908 84.1004 299.762 85.6338 297.254 86.7708C299.545 92.8882 294.663 89.111 291.71 89.6781C291.184 91.9191 291.911 90.9748 289.204 91.5061C287.029 92.3541 283.836 92.1393 285.328 95.2503C285.445 96.2056 285.038 98.543 286.551 98.4411C287.286 99.5809 289.027 100.079 286.812 101.161C285.019 100.982 283.313 100.671 284.099 103.209C283.459 105.905 280.828 106.857 285.263 107.028C284.669 109.241 280.134 115.364 277.861 116.05C275.971 115.417 275.897 114.134 275.542 112.465C274.273 113.151 270.21 108.98 269.293 107.991C270.286 99.278 258.471 106.323 253.568 104.729C247.967 102.116 241.547 100.214 235.157 98.8155C232.765 95.9358 232.846 102.119 224.967 99.234C221.536 100.065 220.373 92.4422 224.422 96.2084C220.191 85.2512 226.505 82.3439 222.841 83.3212C221.618 80.5682 220.975 76.389 223.123 74.137C222.448 72.6971 219.668 76.0476 222.629 71.1004C224.465 69.9358 223.562 68.8539 222.659 67.3259C222.787 60.691 207.384 55.9557 214.14 51.9032C216.649 42.9612 217.604 49.665 221.116 48.0407C218.83 47.5726 222.396 47.2037 219.602 46.766C217.519 45.2435 215.122 40.1118 218.621 39.1758C221.059 42.7961 222.692 39.2611 225.851 40.0981C227.324 41.5324 227.739 42.741 229.681 41.414C229.936 44.1561 229.874 43.1347 232.562 44.7177C234.883 46.5513 232.345 48.7317 238.094 47.5093C240.053 48.1425 242.09 45.5546 242.602 46.3723C243.299 47.9718 243.454 46.8871 244.4 46.5843C251.075 48.3683 239.586 50.824 245.005 53.3155C247.587 49.23 250.497 53.1448 253.901 54.2268C254.495 53.745 253.492 50.6809 255.106 52.0299C257.929 54.9619 254.069 56.0301 256.323 56.2366C257.05 56.0163 257.926 54.3727 258.707 54.6866C259.434 56.2971 258.49 58.183 260.831 56.4458C264.113 57.2855 261.764 53.4257 264.872 54.4966C271.26 59.4356 272.502 55.5125 278.802 57.3598C282.77 55.1436 286.679 55.2344 291.336 56.0025C293.177 58.2325 292.724 56.5752 294.818 56.0246C296.459 57.3763 295.027 60.2753 300.278 59.4631L300.275 59.4659Z" fill="#005663" stroke="white" stroke-width="3" stroke-linecap="round" stroke-linejoin="round"/>
<path d="M413.024 106.19C451.977 105.546 404.651 124.261 409.981 177.954C405.837 180.237 409.824 179.683 408.134 180.856C406.58 180.878 409.674 183.083 405.598 182.081C408.161 185.792 397.648 186.36 397.496 183.546C398.104 182.09 398.351 182.246 396.84 182.189C397.879 180.242 396.021 178.494 394.828 177.206C390.922 176.696 394.844 175.177 394.044 171.766C394.228 169.329 384.841 167.553 389.292 165.563C390.838 157.543 396.458 148.943 398.798 141.553C392.145 141.328 399.466 133.506 395.115 131.62C397.936 130.935 400.819 130.83 401.462 126.767C403.067 123.664 399.251 125.211 401.562 122.367C403.523 120.363 401.424 117.56 399.409 116.679C398.763 112.825 397.355 119.273 395.582 118.309C393.914 110.859 388.451 115.84 394.746 106.529C395.063 102.708 396.227 105.824 396.938 107.503C398.451 108.528 401.467 108.214 401.972 110.248C404.185 112.005 407.743 108.665 409.805 111.082C411.719 110.851 411.847 107.476 413.016 106.187L413.024 106.19Z" fill="#005663" stroke="white" stroke-width="3" stroke-linecap="round" stroke-linejoin="round"/>
<path d="M131.446 238.637C130.524 236.985 127.708 238.301 128.419 240.146C126.531 239.213 124.063 235.669 120.838 237.106C120.252 233.803 119.276 233.079 116.008 233.238C114.717 231.24 111.031 231.432 110.184 228.632C109.392 227.297 110.382 229.75 109.981 230.111C110.149 221.257 93.2168 213.948 101.508 207.874C107.635 197.994 95.4273 201.969 96.1053 198.379C100.214 193.013 96.881 188.022 108.365 194.318C109.422 196.234 113.925 195.843 109.908 195.009C99.8835 183.521 96.1053 197.908 91.1365 192.08C89.1593 191.562 90.3283 193.407 88.6575 193.035C88.7552 192.793 85.0882 191.59 85.6442 191.092C91.6111 194.101 87.4235 186.833 87.1794 190.431C86.4525 189.401 87.4343 188.402 85.1777 187.411C85.8015 186.998 89.1213 184.85 88.7199 186.48C88.5518 187.036 90.5561 185.8 90.4747 185.462C88.4324 185.899 87.494 182.309 90.0788 183.917C93.9681 184.113 92.414 181.002 94.2556 181.555C94.9689 182.565 95.7798 181.434 96.5691 181.442C97.0654 184.504 97.9252 180.71 99.2271 180.335C100.57 178.045 99.3139 174.612 102.099 173.475C115.84 173.282 115.972 163.319 127.196 168.17C127.966 165.411 129.016 162.531 129.707 159.687C130.51 157.088 134.085 158.963 134.009 156.714C133.323 153.22 130.388 133.162 134.348 133.274C142.17 130.711 140.895 137.938 143.952 134.816C146.341 133.522 146.667 135.961 149.623 134.497C152.606 130.51 158.685 135.383 159.949 129.91C164.833 131.265 159.726 132.426 164.624 135.469C167.375 136.074 163.488 139.662 168.009 138.582C185.007 127.253 174.337 142.442 186.791 145.242C191.058 144.934 187.966 147.387 194.733 149.592C200.38 150.272 192.468 151.417 194.898 153.741C194.369 154.335 192.52 153.76 193.265 155.183C194.413 157.738 194.898 153.84 194.321 159.007C195.197 160.849 192.289 161.284 192.289 162.952C192.992 167.088 190.1 169.037 187.209 170.961C186.366 171.922 188.101 173.706 186.273 173.673C183.897 174.224 182.159 176.489 180.263 175.427C178.454 177.772 182.864 178.769 175.251 176.784C170.076 199.618 171.025 201.091 149.599 202.905C150.9 211.093 130.266 200.749 140.222 209.102C144.196 216.555 148.736 223.55 147.112 232.861C146.55 234.739 152.674 235.746 147.765 236.691C144.372 240.636 140.74 236.581 136.569 238.205C135.449 237.775 137.32 236.95 136.509 236.242C134.841 236.743 132.162 236.594 131.443 238.634L131.446 238.637ZM92.2377 218.666C92.9754 218.697 95.514 220.748 93.7131 220.002C90.8517 220.563 89.5037 218.35 92.2377 218.666ZM96.6505 206.536C97.7788 206.847 99.9242 210.27 97.9714 209.837C96.3142 205.408 95.6063 208.502 94.6217 206.806C92.3869 203.547 97.1468 202.789 96.6532 206.536H96.6505Z" fill="#005663" stroke="white" stroke-width="3" stroke-linecap="round" stroke-linejoin="round"/>
<path d="M176.43 86.2143C178.82 86.7292 186.156 81.4103 180.545 84.7194C175.885 85.6059 165.698 84.1083 171.171 77.7184C176.777 61.1284 200.71 66.4996 211.155 54.3008C215.112 57.0456 221.307 61.7561 222.338 66.7777C226.078 69.8363 217.841 73.1318 222.628 73.1648C221.063 76.2895 221.37 78.459 222.086 82.4344C226.493 82.7427 219.4 85.2398 224.269 95.5445C223.284 95.9464 221.766 92.7887 221.448 95.8226C222.509 104.129 209.65 105.891 214.866 109.288C214.467 113.043 210.385 121.052 205.066 120.096C200.984 117.938 204.206 120.383 200.401 120.493C199.075 123.122 194.73 121.715 193.238 124.584C188.53 122.497 192.083 122.258 191.009 119.383C186.528 117.175 188.313 116.724 185.53 114.064C176.815 116.143 182.885 109.401 178.98 104.696C183.178 101.166 175.307 92.6675 176.427 86.2143H176.43Z" fill="#005663" stroke="white" stroke-width="3" stroke-linecap="round" stroke-linejoin="round"/>
<path d="M207.384 279.236C204.387 277.395 202.683 279.319 204.086 275.195C199.895 274.994 201.36 270.864 198.477 271.52C195.575 270.509 190.592 274.771 191.788 269.19C189.684 266.022 184.875 268.8 189.621 263.467C192.279 261.306 192.122 265.89 192.957 258.214C193.207 255.601 199.288 256.339 195.469 252.295C192.8 253.165 192.024 247.169 193.616 246.742C193.871 245.492 191.761 243.078 192.8 242.494C198.1 241.327 201.037 233.646 206.654 235.977C209.849 236.311 209.231 233.822 210.56 234.862C213.128 240.225 215.849 230.157 218.878 235.215C223.014 233.643 222.789 236.101 223.687 232.065C224.81 231.512 225.07 234.149 226.234 233.312C228.976 231.289 232.87 234.188 235.832 233.431C240.028 232.434 240.885 235.443 242.586 238.309C248.916 239.967 248.911 247.025 250.592 252.862C250.579 260.416 241.932 258.715 245.366 264.229C252 268.359 244.823 270.41 247.088 274.121C247.826 276.373 248.745 284.332 244.346 281.012C241.441 279.647 244.354 283.765 241.989 284.591C233.765 293.046 241.409 290.004 234.783 297.938C237.243 301.165 233.18 300.975 230.853 301.217C222.523 304.771 224.02 300.798 215.987 297.861C214.015 300.54 211.777 297.308 211.951 294.912C212.849 292.892 209.911 294.298 209.098 293.577C206.76 292.682 210.15 290.408 207.31 290.708C207.018 290.612 206.782 290.436 206.857 290.075C209.83 287.085 206.603 289.092 207.243 285.384C208.227 283.578 211.552 282.287 207.953 281.849C207.584 280.613 209.738 279.429 207.386 279.231L207.384 279.236Z" fill="#005663" stroke="white" stroke-width="3" stroke-linecap="round" stroke-linejoin="round"/>
<path d="M283.801 218.128C282.515 217.726 282.192 219.846 281.707 220.887C277.552 223.318 279.301 222.872 277.641 219.725C276.312 218.844 276.22 220.48 275.225 220.733C273.011 219.51 272.436 219.841 270.258 220.609C259.862 217.022 269.331 209.032 264.706 202.034C264.861 197.395 263.133 192.687 259.74 189.725C261.785 185.697 261.555 183.253 259.144 179.462C261.688 177.537 264.096 179.941 261.273 175.841C262.756 171.117 253.437 170.55 262.089 168.069C265.227 167.045 263.272 164.13 263.513 161.828C269.903 159.54 266.033 154.778 264.186 150.579C260.717 149.536 260.443 148.079 263.763 146.081C265.477 141.623 262.07 138.529 269.83 139.327C276.258 139.988 276.347 134.832 277.44 139.341C280.538 138.956 283.597 144.153 283.353 146.97C281.289 148.894 283.481 148.506 284.576 149.905C286.467 151.529 286.141 148.167 287.538 149.935C288.089 151.678 290.926 154.863 291.338 156.826C288.449 158.425 294.08 157.236 292.792 159.846C292.981 161.509 299.439 160.735 300.424 160.237C301.183 158.175 302.832 161.776 302.667 159.273C302.938 157.44 303.947 161.547 305.159 160.999C306.065 159.017 312.694 159.843 313.914 158.552C313.952 155.009 319.07 157.005 321.414 157.456C321.53 157.666 321.918 157.704 321.853 158.021C320.741 159.427 323.247 159.089 323.581 160.047C322.892 160.914 322.979 163.535 324.159 161.724C332.184 169.019 323.575 166.451 326.605 169.504C326.518 170.665 327.213 173.983 328.563 171.849C330.462 171.659 330.671 176.846 333.836 173.052C334.416 174.233 334.923 175.214 336.361 175.679C336.993 176.009 336.445 177.664 337.519 177.262C339.461 175.263 338.807 177.413 339.83 176.929C340.014 176.114 340.736 176.692 341.218 176.92C344.592 173.463 344.476 181.069 341.205 183.275C347.476 189.94 343.19 199.308 337.863 204.325C334.747 208.465 338.544 210.434 342.816 212.551C343.234 214.918 338.544 213.2 339.48 215.48C341.379 216.273 339.176 217.859 340.752 218.707C343.857 224.56 337.036 226.25 341.728 229.942C339.86 232.131 335.536 231.836 333.811 229.259C332.496 228.392 330.736 229.958 329.396 229.947C326.958 228.571 325.848 229.072 325.271 231.833C324.329 234.727 322.371 245.786 319.667 244.803C318.042 243.245 317.549 235.789 315.368 240.737C312.173 238.664 314.367 240.571 310.679 239.845C307.508 237.689 309.898 243.239 305.924 244.819C301.533 243.583 295.938 246.05 292.515 242.829C291.549 238.986 294.582 239.776 295.916 237.32C294.43 234.465 296.977 229.873 291.954 229.856C290.855 228.202 288.401 228.37 287.484 226.828C288.344 222.82 284.725 221.685 283.798 218.134L283.801 218.128Z" fill="#005663" stroke="white" stroke-width="3" stroke-linecap="round" stroke-linejoin="round"/>
<path d="M248.116 2C250.755 7.17577 249.524 11.0934 251.289 16.0599C255.843 16.2939 254.427 21.0044 259.366 22.1387C261.295 20.5199 268.067 14.0502 269.591 21.299C273.163 23.3335 269.846 37.6027 278.409 31.3862C286.985 34.1806 282.138 36.9805 286.063 42.3848C288.289 37.2503 291.541 42.9491 295.121 40.4411C297.611 40.2869 298.737 43.8797 300.321 45.0965C300.785 44.4028 300.356 43.4887 301.658 44.389C303.123 45.7765 299.087 48.86 299.746 51.3955C305.8 52.4335 298.639 56.6649 300.191 59.2143C293.44 60.6514 297.186 53.7026 292.032 56.8549C283.955 51.7672 273.974 61.1992 263.174 54.0192C262.219 54.289 263.112 55.4949 262.369 55.9794C260.381 55.8005 258.178 58.3553 258.658 54.9938C258.281 52.6399 255.225 58.0442 255.341 55.17C256.507 54.1073 255.555 52.7143 254.766 51.7562C252.952 50.209 254.454 54.1569 253.318 53.9449C251.783 52.3288 249.005 53.5016 249.806 51.3295C247.316 49.8979 242.851 55.5031 243.456 50.6908C243.565 49.149 247.337 48.7581 245.995 47.288C243.812 45.314 243.329 48.0368 241.786 45.6747C233.888 52.5518 229.941 39.695 228.325 41.6992C211.216 42.9464 207.527 4.90449 248.116 2Z" fill="#005663" stroke="white" stroke-width="3" stroke-linecap="round" stroke-linejoin="round"/>
<path d="M471.692 406.627C471.63 406.671 472.872 408.053 472.348 407.839C472.389 408.045 471.692 406.583 471.692 406.627ZM443.17 418.402C443.753 418.028 447.903 414.886 445.958 414.052C446.482 410.608 448.426 413.364 447.634 409.989C447.794 409.124 448.068 410.718 448.627 409.961C451.044 412.037 450.167 407.838 451.944 408.375C453.422 406.663 458.35 407.574 458.703 405.11C460.189 402.101 465.256 401.762 466.183 405.413C470.301 402.2 464.708 390.527 470.594 390.145C474.502 394.5 470.691 402.74 471.779 407.605C473.832 410.118 478.711 429.178 469.972 437.307C469.205 442.147 471.743 451.813 466.4 451.618C465.117 455.403 468.711 450.657 468.283 453.595C467.268 455.012 464.54 455.676 465.983 457.504C465.573 459.404 463.463 458.641 464.079 460.642C463.167 461.716 464.686 460.587 465.055 460.287C464.876 461.771 463.873 464.12 462.44 462.102C461.206 461.782 458.999 461.265 460.903 459.99C447.187 456.981 459.034 447.73 449.79 447.422C450.289 444.468 450.642 442.819 449.346 442.087C448.364 441.883 451.057 441.952 449.969 440.79C449.853 440.391 451.355 439.331 450.319 438.651C439.82 434.7 455.337 433.973 443.84 427.867C440.604 424.784 448.177 424.561 446.441 422.41C444.401 421.719 445.681 420.861 444.293 421.56C443.682 420.96 444.895 420.569 445.242 420.302C443.842 418.666 441.795 421.72 443.173 418.408L443.17 418.402Z" fill="#005663" stroke="white" stroke-width="3" stroke-linecap="round" stroke-linejoin="round"/>
<path d="M327.139 68.4121C329.615 69.863 331.709 71.7984 333.611 73.9623C337.039 73.8604 338.048 73.6953 337.747 77.6955C343.746 76.118 339.157 82.3013 334.386 80.3219C330.41 76.6108 330.266 84.9195 331.823 87.3312C330.117 92.0362 328.183 95.3289 326.722 100.185C332.103 116.321 325.883 106.531 325.487 118.978C328.552 120.663 327.709 123.116 328.438 125.943C330.467 131.548 343.985 132.707 341.812 138.714C342.238 144.815 342.661 138.954 344.883 140.856C348.075 146.96 348.46 141.165 349.238 145.842C352.802 147.502 349.873 150.247 349.339 153.066C351.137 155.214 354.525 156.207 353.847 159.481C363.065 161.24 349.377 165.075 351.007 169.227C351.774 178.794 341.392 169.296 340.223 176.811C339.309 178.824 339.561 175.416 337.611 177.684C336.692 178.006 336.925 176.767 336.637 176.272C335.016 175.399 334.66 175.074 333.931 173.477C330.402 177.778 330.345 170.642 328.295 172.764C327.052 173.904 324.923 167.223 327.177 167.977C329.179 167.019 325.46 163.272 324.763 162.08C323.998 161.796 323.738 163.864 323.12 162.151C323.874 159.764 323.936 160.411 321.742 159.376C322.184 156.436 313.41 155.742 313.811 159.239C312.455 159.864 306.046 159.753 305.252 161.43C303.627 161.741 302.851 156.887 302.683 160.566C299.252 159.412 293.383 164.425 292.33 158.36C291.297 158.985 289.396 157.76 291.43 157.254C291.045 155.561 288.729 152.45 287.834 151.092C287.053 147.979 286.442 151.921 284.666 150.332C280.215 147.714 287.568 144.601 277.218 139.092C276.865 137.349 275.477 135.02 277.229 133.536C277.408 132.583 275.873 131.713 277.912 131.691C278.978 130.775 282.849 125.362 278.56 126.166C279.767 121.604 275.026 120.899 277.476 118.832C275.626 117.585 289.984 105.892 282.922 106.76C281.617 105.57 284.064 104.788 284.031 103.494C282.073 98.9271 290.95 102.853 286.478 98.3545C284.785 98.3683 285.515 95.8795 285.203 94.7893C283.554 92.3391 287.579 92.0032 289.13 91.4168C293.413 91.4168 289.862 89.3134 292.805 89.363C293.638 89.3217 294.286 90.5578 295.127 90.2632C295.813 89.2859 296.529 90.6679 297.28 90.3265C298.718 88.058 296.562 87.1027 297.364 86.3924C299.249 85.9492 297.261 84.8039 297.316 83.5843C298.807 81.8994 298.278 79.4574 297.53 77.4092C298.029 75.9803 303.711 73.4447 303.54 70.777C301.674 67.3935 305.089 65.3369 302.981 61.2514C303.974 57.989 309.456 63.9879 317.101 58.6552C319.138 53.7438 315.328 54.9964 322.217 49.8867C323.071 52.0644 324.769 48.8984 323.738 53.8236C323.22 51.5275 320.714 61.0477 321.625 60.9293C326.656 62.0167 319.089 71.5534 327.134 68.3983L327.139 68.4121Z" fill="#005663" stroke="white" stroke-width="3" stroke-linecap="round" stroke-linejoin="round"/>
<path d="M340.704 77.6133C343.115 79.0366 341.681 85.7458 345.133 82.1916C345.86 81.4345 347.016 83.0699 347.604 82.2027C348.83 79.1027 350.235 83.0121 352.136 80.6086C354.254 81.9384 356.213 83.6811 358.594 84.6061C361.054 89.4212 364.669 80.8757 368.382 83.626C370.446 86.5139 376.37 83.5764 376.999 88.0116C381.214 92.2376 376.337 89.5396 378.749 92.4799C380.205 93.8619 381.477 95.3926 382.057 97.1986C382.104 98.7183 383.582 95.9047 382.863 99.5002C383.414 100.764 385.613 100.489 386.752 100.756C388.022 100.007 386.213 98.0686 387.452 97.5895C394.423 97.072 391.86 104.076 394.848 102.127C394.431 100.395 395.798 101.375 396.468 101.975C403.712 105.461 404.49 94.1537 409.256 103.952C411.379 104.814 414.441 105.62 412.169 108.31C411.602 109.249 411.325 111.793 409.747 111.085C407.948 108.888 404.58 111.881 402.462 110.603C401.662 108.134 398.146 108.94 396.758 107.079C396.544 106.311 396.516 104.519 395.269 104.904C395.64 107.9 390.324 110.978 392.472 113.626C396.59 115.958 394.789 113.849 395.337 117.252C395.819 120.322 398.445 116.701 398.827 115.449C406.514 121.539 398.968 122.018 402.158 125.214C400.832 131.394 399.587 130.571 395.342 131.744C399.79 132.369 392.581 141.603 398.146 141.102C401.624 141.162 388.662 161.854 389.524 165.689C385.993 167.501 382.855 161.59 380.056 160.302C377.816 164.599 375.228 160.77 372.318 159.729C370.091 159.666 367.957 161.907 366.153 159.479C365.106 153.708 361.228 159.635 359.191 160.153C359.183 155.544 357.409 163.806 355.445 159.016C352.068 160.406 356.177 157.158 349.446 152.973C349.313 150.085 353.099 147.302 349.191 145.543C349.375 143.797 348.418 143.401 346.921 143.541C345.836 142.608 344.558 138.47 342.904 140.84C342.223 130.346 333.037 136.182 325.445 118.675C324.951 109.587 328.521 114.262 329.15 108.035C329.161 105.802 327.186 107.867 327.688 103.605C327.751 102.245 326.435 100.4 326.769 99.0734C328.377 94.7236 330.43 91.4777 331.719 86.6021C327.699 72.1457 337.932 85.4403 340.704 77.6188V77.6133Z" fill="#005663" stroke="white" stroke-width="3" stroke-linecap="round" stroke-linejoin="round"/>
<path d="M414.524 341.82C414.139 345.347 410.496 348.199 408.264 351.109C407.087 353.755 409.623 355.588 406.734 357.284C404.272 356.42 405.411 356.516 403.398 359.184C403.154 361.268 401.223 359.132 400.16 360.222C398.904 362.989 399.715 361.295 397.678 361.521C395.009 361.918 398.202 368.591 395.739 365.483C391.89 367.443 390.87 365.023 389.818 370.857C388.147 373.07 387.594 370.138 387.879 372.349C384.361 373.073 384.54 370.452 383.298 374.551C382.674 375.931 380.038 377.128 379.213 378.954C385.46 378.684 380.811 378.334 382.075 381.974C380.043 384.088 378.139 381.597 376.471 384.24C371.044 382.519 373.477 389.044 369.219 385.685C367.244 385.283 364.67 386.486 365.112 388.84C367.838 389.368 363.903 389.798 363.043 389.432C367.475 386.505 360.957 388.369 360.727 386.566C357.792 386.987 358.63 383.956 356.314 385.605C356.835 385.6 357.157 386.439 357.317 386.825C357.708 387.141 359.132 387.232 358.272 387.821C357.128 387.543 355.942 387.719 355.579 388.989C350.984 387.238 354.727 387.483 354.125 386.219C352.183 385.162 350.624 384.394 349.097 382.687C346.661 383.95 346.87 383.928 344.904 381.475C343.645 381.792 339.029 382.323 339.292 380.539C340.529 378.158 338.386 373.277 335.677 376.3C332.783 376.82 324.757 376.024 329.845 372.071C333.604 373.293 338.37 367.661 332.511 369.205C330.914 367.501 332.403 366.928 329.601 366.697C328.676 364.795 328.096 367.729 328.478 368.621C334.584 375.567 320.795 368.335 323.743 374.634C325.633 373.924 323.488 377.258 322.639 373.877C318.212 373.079 321.134 366.201 318.175 365.279C319.159 372.85 327.079 377.828 314.885 374.871C312.161 373.657 317.442 372.214 312.33 370.557C309.94 370.763 299.485 371.735 304.31 368.407C315.267 362.958 306.135 362.658 312.755 358.961C318.489 361.92 314.565 351.723 317.985 350.71C322.636 348.397 325.245 343.546 319.102 341.68C319.802 338.233 313.431 326.53 321.153 332.479C321.709 338.296 330.512 330.535 333.623 332.427C331.668 337.03 336.61 334.896 338.907 336.455C341.576 337.47 343.434 343.527 346.604 338.241C349.037 336.196 350.184 343.423 349.832 333.803C346.574 332.014 349.357 330.946 347.654 330.822C345.194 332.248 339.276 325.927 343.32 326.665C345.866 325.874 338.663 321.786 347.176 324.49C348.842 323.81 350.241 322.516 347.968 321.34C346.653 319.92 349.373 318.515 349.042 316.954C357.637 316.88 351.611 311.611 357.57 311.391C360.502 310.631 358.646 306.944 362.685 307.993C365.232 304.871 372.753 309.02 372.096 304.211C370.944 296.959 364.38 302.98 368.768 294.371C370.154 295.525 372.43 294.445 372.869 296.887C377.637 299.307 374.998 294.911 377.871 295.379C381.22 293.76 378.725 294.847 380.686 296.7C380.423 299.982 383.773 297.763 383.691 300.849C382.85 303.927 385.473 305.995 388.074 306.804C391.934 305.482 392.753 308.668 392.872 311.79C393.653 314.199 395.576 315.126 391.833 314.328C389.625 315.372 390.843 318.02 389.083 319.688C385.725 321.252 387.423 324.451 389.742 326.062C383.558 333.299 399.444 336.702 403.352 340.331C405.652 340.284 410.58 338.943 412.498 337.762C414.388 337.82 412.194 339.678 414.532 341.826L414.524 341.82ZM367.757 389.991C369.588 390.459 366.463 392.356 365.541 391.007C365.516 390.17 367.651 390.888 367.757 389.991ZM324.687 331.719C323.146 330.714 325.763 326.978 326.832 326.395C331.329 327.474 328.508 332.914 324.687 331.719Z" fill="#005663" stroke="white" stroke-width="3" stroke-linecap="round" stroke-linejoin="round"/>
<path d="M195.674 217.818C191.646 215.662 190.133 205.591 185.655 206.156C187.377 209.47 182.614 207.331 181.291 209.112C173.583 209.245 179.829 205.677 175.628 202.849C164.467 201.952 173.824 186.254 175.107 176.841C182.799 178.845 178.269 177.799 180.116 175.484C181.852 176.555 183.935 174.248 186.127 173.733C188.286 172.587 184.966 170.825 190.531 168.703C191.576 165.641 195.682 158.159 193.789 156.154C191.706 154.068 194.044 154.593 194.76 153.55C191.972 151.854 200.2 150.252 194.931 149.748C194.464 149.495 192.218 148.429 193.637 147.986C190.51 135.696 195.837 144.839 198.828 135.897C192.544 122.881 191.177 126.212 202.894 119.437C207.852 122.528 213.797 117.086 214.084 112.042C217.998 109.416 216.968 120.409 218.999 120.601C216.265 125.631 225.045 128.169 224.418 133.692C227.008 136.167 229.248 135.195 230.352 138.777C230.507 142.717 232.829 140.024 230.756 143.366C233.176 145.979 239.162 138.953 239.354 142.183C239.81 142.893 241.052 142.342 241.331 141.698C242.118 140.922 243.263 142.885 244.274 142.161C245.389 142.166 245.348 144.517 245.763 145.294C246.829 146.232 249.164 147.003 247.795 148.798C242.297 157.198 266.314 143.862 265.584 154.222C271.923 158.384 261.749 160.989 264.277 164.97C264.109 168.708 261.226 168.505 258.608 169.666C257.683 172.351 260.879 171.126 261.776 174.619C261.285 178.903 264.969 177.769 259.349 179.677C264.76 186.73 257.456 188.674 261.177 191.116C266.723 200.03 270.141 214.613 258.367 218.952C256.634 218.206 257.342 220.86 254.95 218.586C254.182 219.841 252.563 220.474 251.698 221.141C251.852 223.731 249.924 219.673 250.55 224.915C250.933 225.639 252.056 226.531 251.451 227.384C235.126 230.427 243.933 236.808 224.038 232.095C223.029 236.302 223.77 233.496 219.23 235.245C218.768 233.978 218.459 234 217.157 234.061C214.906 233.105 213.379 238.917 211.258 235.517C210.306 233.215 208.061 237.59 206.184 235.6C203.849 235.236 207.307 233.026 204.451 231.908C204.139 229.485 203.981 227.495 200.765 228.103C199.137 226.82 201.7 227.387 198.218 225.884C194.792 223.566 198.269 220.37 195.679 217.823L195.674 217.818Z" fill="#005663" stroke="white" stroke-width="3" stroke-linecap="round" stroke-linejoin="round"/>
<path d="M222.734 411.421C224.117 408.632 228.264 410.691 230.255 409.639C230.39 404.428 234.822 407.008 237.274 405.642C233.759 399.068 230.086 406.355 228.665 399.916C224.667 397.287 233.949 398.25 230.84 394.531C234.779 382.291 212.731 385.448 227.54 372.123C227.993 374.571 230.946 371.54 232.858 371.997C234.358 374.389 236.886 372.379 238.828 373.72C238.977 367.35 253.604 376.586 252.782 368.503C253.802 366.345 251.339 366.981 251.86 364.101C252.511 361.431 254.136 362.003 256.034 363.157C258.619 363.542 260.876 360.335 262.818 359.531C264.025 359.126 265.495 360.968 265.836 358.785C266.091 356.676 264.524 352.811 268.163 354.217C271.426 355.253 270.957 352.425 272.858 350.996C275.608 351.247 275.332 348.141 277.252 346.861C280.306 345.039 275.722 342.85 274.166 342.781C271.904 342.129 274.453 341.741 274.529 340.771C274.168 339.654 275.373 338.756 276.162 338.236C275.842 335.662 272.21 338.153 271.456 336.691C271.809 334.693 267.344 334.519 268.139 333.261C271.405 327.763 261.486 316.839 264.705 313.59C264.884 311.705 267.333 302.399 268.985 306.097C280.632 294.74 276.466 315.201 283.162 306.042C297.187 309.56 291.076 329.184 303.94 333.033C305.505 332.867 309.145 327.766 308.947 332.182C309.72 333.363 310.973 332.135 310.724 331.048C313.87 328.752 318.223 334.786 319.354 337.044C319.522 344.7 318.719 338.811 322.766 344.202C324.271 345.958 323.379 345.309 322.609 346.313C323.447 349.245 316.346 350.093 316.851 352.643C317.502 354.405 316.712 356.219 316.021 357.821C316.593 361.279 313.908 358.055 312.289 359.203C307.182 364.39 315.863 362.642 302.055 370.141C297.404 359.87 285.844 374.037 279.867 378.656C274.54 376.099 270.792 382.926 267.691 386.186C264.456 393.091 265.568 400.141 265.367 407.462C265.684 412.475 265.451 410.361 268.717 412.525C269.419 415.531 270.889 417.406 266.129 416.2C264.076 413.166 259.666 415.008 257.214 417.087C255.432 416.811 251.082 417.601 253.132 420.123C252.744 420.836 250.802 419.911 250.095 419.713C248.92 419.333 249.221 421.472 248.041 420.781C233.371 408.651 234.893 427.722 228.996 415.76C227.287 414.89 220.903 413.882 222.723 411.421H222.734ZM231.304 415.79C232.343 415.881 231.198 414.804 231.141 414.295C230.225 412.852 229.389 416.131 231.304 415.79Z" fill="#005663" stroke="white" stroke-width="3" stroke-linecap="round" stroke-linejoin="round"/>
<path d="M396.857 182.139C387.988 180.482 394.324 183.392 390.323 185.08C389.699 185.005 389.933 185.724 389.851 186.085C384.411 190.718 392.477 186.338 393.708 189.245C389.447 192.045 392.452 192.909 388.688 195.467C387.177 198.592 381.888 200.307 382.246 203.509C376.269 210.124 373.757 203.704 373.779 215.575C374.999 219.972 361.584 222.312 364.782 227.001C361.359 232.366 356.217 247.547 348.845 236.961C347.999 236.818 347.394 238.734 346.795 239.054C340.947 243.219 344.798 238.42 342.054 237.743C341.742 236.689 340.359 237.033 339.984 236.069C339.841 234.951 339.436 233.947 338.21 233.798C336.702 230.544 339.819 231.461 341.438 230.224C336.404 223.174 345.308 226.734 339.32 215.416C338.381 213.257 342.374 214.7 342.569 213.032C341.598 211.093 336.399 209.954 335.951 206.521C341.587 200.208 347.145 194.173 342.45 184.78C337.969 181.644 346.081 181.856 343.217 177.379C343.421 174.012 341.229 177.608 339.965 176.319C341.134 169.957 346.157 175.383 349.873 172.79C351.237 171.408 350.334 168.68 350.57 166.934C353.369 165.916 359.526 155.671 358.978 159.955C368.026 151.977 362.829 163.124 372.108 159.534C374.435 160.349 378.075 164.371 379.605 160.294C382.756 163.303 398.042 170.665 393.13 175.551C393.163 177.586 398.726 178.555 396.852 182.134L396.857 182.139Z" fill="#005663" stroke="white" stroke-width="3" stroke-linecap="round" stroke-linejoin="round"/>
<path d="M144.493 285.375C142.746 276.879 134.317 270.018 127.091 267.293C127.62 259.339 131.111 264.581 135.464 266.946C124.52 257.957 135.689 261.252 131.488 252.82C132.367 253.701 133.18 253.246 133.484 252.148C133.555 251.105 131.925 251.308 132.196 250.166C132.462 248.899 130.259 248.525 131.285 247.647C130.607 246.32 127.574 246.479 128.472 245.001C132.429 240.486 130.422 237.392 134.42 237.023C138.865 235.693 134.206 238.622 136.948 238.562C143.4 237.097 141.276 241.172 149.042 236.835C146.15 227.979 145.928 214.291 136.872 205.905C138.309 205.417 149.801 209.085 149.34 203.906C149.473 201.448 152.858 203.614 154.254 202.403C157.571 201.318 161.426 200.679 163.435 203.468C165.155 201.676 168.065 195.625 170.205 200.377C171.181 200.886 171.846 199.074 171.759 201.28C172.348 201.86 173.709 200.536 173.571 202.053C172.812 204.806 174.661 202.827 175.768 203.325C180.289 207.29 171.694 211.023 185.676 208.374C186.655 201.021 192.413 216.691 195.589 218.145C197.802 220.083 195.556 222.842 196.986 225.039C199.771 229.066 204.355 226.853 204.363 232.235C208.754 235.875 200.742 235.803 200.018 238.476C199.307 241.794 191.244 240.56 193.389 244.924C194.488 247.316 191.032 252.321 195.947 252.883C199.107 257.874 191.746 255.317 192.538 262.959C192.044 264.019 191.065 263.023 190.379 262.992C188.841 266.577 184.36 269.344 183.739 272.854C182.904 278.737 173.791 278.875 175.499 285.802C175.117 287.952 172.532 288.188 171.83 290.22C161.995 290.663 171.396 299.988 154.764 292.723C152.429 290.831 155.12 288.318 151.624 286.919C148.545 288.037 149.242 282.055 147.327 285.372C146.546 285.716 145.334 285.124 144.496 285.378L144.493 285.375ZM127.987 256.322C132.513 267.202 123.848 258.158 123.086 253.907C119.731 248.095 128.293 253.836 127.987 256.322ZM125.99 246.328C123.761 245.607 121.217 243.448 118.816 243.9C115.456 241.491 119.286 240.472 120.002 242.185C119.796 242.779 119.107 241.975 118.697 242.11C119.175 243.889 120.639 242.705 121.814 242.463C119.31 243.779 129.568 243.905 125.988 246.328H125.99Z" fill="#005663" stroke="white" stroke-width="3" stroke-linecap="round" stroke-linejoin="round"/>
<path d="M285.483 255.629C286.323 259.04 288.141 257.421 286.014 262.944C287.237 268.249 292.719 271.602 294.422 276.547C296.258 279.057 287.918 285.844 294.851 283.146C296.812 286.1 300.237 282.59 302.128 282.284C303.495 282.557 304.468 283.603 305.534 282.011C308.49 283.099 305.008 288.055 308.857 287.752C310.148 288.525 311.867 289.83 310.869 291.507C309.749 292.509 310.413 296.385 308.683 294.166C307.077 293.395 308.518 296.118 306.993 297.063C309.009 299.948 305.304 297.883 305.098 300.168C306.359 302.233 303.679 301.704 302.732 302.123C302.298 305.316 299.882 306.855 296.809 306.445C292.149 310.06 293.356 314.668 286.671 308.309C283.231 307.819 285.477 308.138 284.669 306.252C282.185 305.151 282.914 306.709 282.231 307.929C274.967 310.875 279.529 298.987 271.916 303.629C270.606 304.031 268.865 307.945 267.84 305.159C261.04 314.644 265.548 321.95 257.997 306.401C254.821 307.29 257.501 304.578 254.813 303.213C249.329 306.748 249.898 316.719 242.366 316.262C241.496 314.765 238.03 315.94 238.03 317.62C236.296 317.438 237.471 314.569 235.833 314.266C238.642 309 229.554 302.591 235.732 300.344C233.329 296.234 239.822 295.342 237.62 290.194C239.036 287.476 243.286 285.657 243.185 282.097C242.174 281.326 243.183 280.946 244.015 281.062C252.027 285.301 243.929 271.781 248.176 270.286C250.256 266.124 241.357 263.481 245.654 260.513C264.601 243.898 221.298 232.894 251.3 226.865C248.553 222.776 251.3 222.154 254.466 219.002C255.046 218.449 256.172 220.97 257.042 219.167C258.887 218.875 258.073 219.924 259.35 217.882C265.466 212.309 266.557 222.87 272.277 220.354C273.725 220.004 275.404 222.314 276.18 220.224C277.414 219.184 278.529 221.472 278.317 222.559C285.301 222.036 280.435 213.232 287.528 224.753C287.883 233.395 296.106 225.486 295.827 238.081C294.411 240.597 288.678 240.501 288.431 243.394C289.573 245.583 288.96 249.341 289.586 251.876C291.081 255.144 287.105 254.299 285.485 255.632L285.483 255.629Z" fill="#005663" stroke="white" stroke-width="3" stroke-linecap="round" stroke-linejoin="round"/>
<path d="M188.519 404.192C186.466 405.2 182.121 404.387 179.696 404.685C178.785 402.135 177.426 403.804 176.509 405.343C174.999 404.988 173.751 401.411 171.486 403.347C160.993 407.11 163.93 399.669 160.461 400.291C155.671 399.192 156.827 391.511 159.509 389.199C162.514 389.634 160.044 387.071 161.476 385.862C162.352 385.793 167.212 379.571 165.978 378.255C165.511 376.009 169.024 376.149 167.451 374.024C167.315 369.206 167.529 372.072 165.587 371.775C165.259 369.561 165.853 370.99 166.64 370.068C166.466 362.83 157.513 366.91 158.967 360.044C160.271 358.948 159.93 360.341 160.825 357.728C159.553 353.946 161.958 354.064 160.974 352.195C158.576 348.767 161.945 349.252 164.31 348.566C164.863 347.548 167.125 345.912 167.31 347.969C166.981 348.475 166.556 349.208 167.32 349.577C169.094 350.279 170.258 349.533 169.612 347.608C171.101 345.056 172.186 348.715 173.984 344.83C176.716 346.193 178.961 344.951 181.568 343.52C185.216 340.783 190.168 346.43 191.579 340.819C192.737 339.963 192.623 340.409 193.173 338.994C193.968 338.57 196.992 340.12 195.625 337.912C194.774 337.628 195.563 337.08 195.975 336.838C200.252 330.611 194.497 333.807 196.048 330.371C197.307 325.38 204.939 333.939 199.675 322.002C198.088 320.27 203.179 320.3 204.988 314.86C207.117 313.635 210.483 312.652 209.46 309.539C216.07 305.927 210.985 301.186 215.039 298.438C223.361 296.412 218.731 305.839 230.873 301.128C233.976 300.206 233.979 301.946 234.101 304.553C235.099 307.859 237.855 309.481 235.875 313.335C239.219 319.436 235.726 316.6 241.221 315.059C249.512 318.613 249.138 306.524 254.942 302.783C257.364 304.016 255.232 306.912 257.963 305.935C259.452 306.852 259.203 309.602 261.196 309.861C260.222 315.948 268.034 320.903 268.153 327.056C267.749 334.671 267.366 332.012 271.771 336.915C277.632 335.888 275.536 338.289 273.285 341.461C271.98 342.71 276.385 342.636 276.892 343.79C280.439 345.662 274.681 347.264 274.749 349.97C273.518 351.264 271.139 350.122 271.218 352.911C270.144 355.622 266.634 352.465 265.443 354.221C265.199 355.628 266.686 360.085 264.025 359.499C261.318 358.207 259.045 363.124 256.029 362.973C248.02 358.775 254.611 368.306 251.814 370.83C249.037 373.861 238.02 368.226 238.996 372.909C238.666 373.757 237.86 373.465 237.404 372.895C234.288 373.575 231.692 370.607 228.639 372.719C227.415 374.123 227.087 369.853 226.173 372.551C223.756 376.221 227.711 374.434 222.71 376.493C217.459 385.21 236.637 385.141 229.688 393.229C233.241 397.728 229.314 396.12 227.375 398.485C230.749 406.257 231.928 399.071 236.846 404.743C238.066 407.71 229.954 403.237 230.222 408.723C228.625 411.716 220.51 408.275 216.843 406.282C212.045 406.857 214.589 411.669 210.985 404.621C209.93 402.934 206.523 403.184 204.595 403.779C202.921 403.578 203.39 400.759 201.557 400.646C195.134 401.153 185.403 391.316 188.527 404.2L188.519 404.192ZM164.05 375.97C162.908 375.535 163.531 372.466 164.893 373.561C165.389 374.239 165.029 376.009 164.05 375.97ZM163.369 379.571C162.232 379.095 162.731 377.559 163.51 376.981C164.833 377.289 164.809 379.599 163.369 379.571Z" fill="#005663" stroke="white" stroke-width="3" stroke-linecap="round" stroke-linejoin="round"/>
<path d="M87.9967 184.404C83.8876 181.475 93.5432 181.789 89.7352 181.822C87.5139 181.161 85.0729 180.368 82.8244 181.467C82.0704 181.092 84.167 180.833 84.2701 179.504C83.8198 180.233 82.9845 179.969 82.2928 180.164C83.8687 180.616 81.9809 181.263 81.4141 180.492C81.6094 183.193 79.8654 180.643 77.6387 182.141C75.4879 182.719 75.6207 180.148 74.1399 179.738C72.8868 178.645 75.3062 178.477 75.458 179.859C75.9245 179.79 76.0792 179.171 76.5592 179.859C76.7382 177.868 77.0311 179.782 78.097 179.713C79.6539 179.815 81.6202 176.456 80.0959 175.198C80.6492 177.742 79.841 177.381 77.88 175.859C80.4594 176.503 77.8339 174.622 77.2156 175.823C75.5502 175.349 73.3208 178.785 73.4618 176.825C72.3335 177.59 72.0949 176.244 72.8055 175.498C71.7911 175.93 71.5741 173.221 71.5117 174.554C71.1836 175.636 73.5079 180.002 72.1681 178.507C71.6582 179.03 71.3165 177.656 70.831 177.486C71.2812 179.264 70.1502 177.967 70.2749 176.921C69.5209 177.265 70.6628 178.925 69.2904 177.846C67.4868 178.923 67.9831 178.347 67.0474 177.307C66.0547 178.152 66.4426 181.915 67.9316 183.162C63.6978 183.523 68.5202 176.957 64.6254 175.834C62.6699 172.847 67.7879 173.342 66.8549 170.859C65.8839 171.613 66.2093 170.575 66.1741 169.865C63.5758 170.881 65.1868 169.271 65.5313 171.886C65.1515 172.299 64.8532 171.699 64.4328 172.423C62.8733 176.993 64.2375 172.549 59.1196 172.549C59.7407 171.759 61.5036 173.262 61.5551 172.549C61.1565 171.889 58.07 172.109 59.5427 171.388C59.6078 169.397 60.1339 171.996 61.1429 168.871C62.4882 167.263 59.1521 170.944 58.3195 170.619C60.3021 172.324 54.7231 173.229 53.649 168.535C50.2208 169.177 47.7282 166.762 44.5441 167.418C41.4169 167.756 42.4394 162.878 38.8429 162.523C39.4288 163.437 38.7453 165.482 37.5248 164.882C38.3602 165.05 38.8321 163.946 37.6902 164.351C36.6732 165.331 37.5926 164.315 35.035 163.66C34.3895 162.817 33.7982 160.34 34.0613 162.842C35.5177 164.722 34.6987 163.66 33.5487 164.882C30.3564 160.926 37.5519 170.047 26.5158 166.845C28.5907 163.467 24.9862 158.919 21.623 156.708C20.2669 156.29 20.6493 158.641 19.0898 156.568C17.5763 156.295 14.0532 156.716 15.7565 154.522C17.0963 154.641 26.8847 151.387 28.6558 152.73C31.2406 151.048 27.6577 146.255 25.45 146.75C22.5886 142.844 20.907 151.736 20.8012 148.11C21.1701 147.593 20.2913 147.042 20.3211 146.445C20.4188 145.839 21.3355 145.021 20.2371 144.851C19.4912 144.942 17.3024 144.721 18.6558 143.565C19.0789 143.604 20.0065 144.058 20.0228 143.284C19.7082 142.632 20.4703 140.245 21.3979 141.082C19.8546 145.445 31.3789 142.918 32.4285 143.127C32.6184 142.367 31.3708 143.094 31.0426 142.643C30.9666 141.401 30.0391 143.568 29.5888 141.908C26.6596 142.508 28.9867 141.178 29.7922 140.047C29.0084 139.76 27.4895 141.817 28.2517 140.047C27.6333 140.614 26.8902 140.617 26.0982 141.258C24.517 141.448 26.6678 140.11 24.3027 141.343C22.4475 141.156 28.3005 136.856 29.1332 136.66C24.9834 137.833 13.3019 144.047 13.847 139.317C12.7296 134.816 13.5894 127.333 19.8845 129.926C16.5972 126.036 22.9872 129.359 20.5218 127.903C19.4017 125.59 26.2501 127.859 24.7366 125.51C30.793 122.375 27.0637 127.765 30.3347 125.612C34.2484 126.215 29.6675 125.059 33.489 123.594C36.6135 124.877 39.879 119.655 39.3447 123.027C40.218 123.291 39.38 123.382 39.5047 123.85C39.9305 124.032 40.096 124.495 40.0906 124.927C39.54 126.353 40.8012 124.305 41.3002 124.34C42.3797 124.544 40.5245 125.268 42.8218 126.328C44.4328 128.368 42.0027 122.11 43.6951 124.866C43.3859 119.272 47.0935 124.283 50.1122 123.176C49.7271 124.456 51.5362 124.486 52.2902 124.005C51.7233 122.3 51.5091 121.524 53.649 121.455C50.0038 119.327 54.1643 115.065 57.1423 117.392C56.1741 120.64 67.2644 110.498 63.3181 118.066C63.5297 119.085 68.4306 110.677 67.9289 117.455C68.0564 118.27 66.0331 120.395 66.8549 120.439C67.2834 118.881 69.6132 115.478 70.3536 117.774C69.9929 118.768 67.9668 118.749 70.538 119.751C72.4013 119.814 73.4699 119.699 72.3715 121.766C74.2646 123.531 76.9715 125.535 76.6758 128.429C82.1138 131.449 78.0347 129.83 80.4323 132.473C81.7396 133.45 79.841 130.659 82.3634 131.38C82.9655 130.039 89.9793 126.207 87.1559 125.882C89.3907 125.139 91.2839 126.948 92.6725 123.481C93.5622 125.092 93.9799 125.18 92.2142 126.893C93.0875 128.049 93.809 126.031 94.7691 125.879C95.2193 126.614 96.033 130.843 96.6622 128.17C96.6188 126.711 96.7057 128.993 97.2427 129.197C98.1892 128.811 96.9145 126.452 98.8456 127.903C97.4895 124.976 102.29 125.287 102.42 128.767C103.28 128.847 102.095 129.596 103.413 130.873C103.828 131.22 103.155 133.23 103.801 132.269C105.743 132.195 101.905 127.49 104.365 129.588C99.5861 125.758 103.641 123.212 107.88 122.807C105.45 128.745 112.477 128.354 116.057 126.287C117.316 129.48 119.307 138.381 123.92 133.748C138.734 124.624 129.119 148.543 133.692 154.776C134.482 161.113 128.943 155.175 127.815 166.027C126.711 172.456 122.195 164.045 119.312 167.162C112.521 173.499 105.607 171.057 99.9983 175.693C100.383 178.273 98.4822 181.635 96.8386 183.019C95.911 180.346 95.7401 183.273 94.0178 181.907C92.9166 181.37 92.7566 183.317 92.0813 183.862C90.7794 184.968 88.832 183.03 88.0075 184.41L87.9967 184.404ZM66.9606 190.252C72.5424 191.669 62.3146 193.112 63.0035 190.018C60.5815 184.867 65.3902 188.341 66.9606 190.252ZM4.65528 134.326C6.32602 135.011 2.31462 136.506 2.98454 135.656C3.73854 135.763 2.97369 134.697 2 135.336C2.07865 134.574 3.99892 133.69 4.65528 134.326Z" fill="#005663" stroke="white" stroke-width="3" stroke-linecap="round" stroke-linejoin="round"/>
<path d="M110.63 377.391C126.637 360.608 120.117 328.458 132.531 313.412C129.919 306.898 127.315 311.895 126.382 316.897C127.795 311.284 128.332 271.989 132.935 273.845C135.788 280.612 144.739 282.278 143.773 292.987C144.329 297.549 149.724 298.829 149.04 303.501C149.984 306.516 149.811 299.371 148.522 299.077C146.597 297.973 150.63 298.931 151.058 299.831C144.817 295.542 144.934 292.368 144.226 284.816C146.586 284.486 146.369 285.843 147.888 283.654C149.683 288.023 151.291 284.596 153.396 288.483C152.309 293.064 164.345 297.144 166.767 292.995C166.07 290.157 169.39 289.336 171.536 289.653C177.459 285.122 172.935 279.208 180.624 277.284C183.849 274.167 183.806 266.139 188.932 267.408C195.59 267.766 186.607 273.977 197.348 271.15C200.334 270.561 200.388 273.438 202.441 274.627C206.488 274.663 201.256 277.374 204.798 278.038C205.997 279.145 209.846 278.156 207.871 281.019C207.516 282.927 210.185 280.846 209.55 282.718C207.898 284.042 205.585 286.432 208.232 287.952C207.378 289.686 205.52 290.118 208.416 290.716C208.601 292.494 207.077 292.684 209.859 293.637C213.64 292.723 210.868 295.883 212.976 297.857C215.292 299.707 211.511 298.689 213.515 302.838C213.434 305.194 211.891 306.904 210.548 308.658C208.343 308.591 209.846 310.598 209.271 311.672C205.311 314.034 203.556 318.238 199.556 320.565C203.781 336.769 196.879 323.516 195.514 331.004C195.148 332.527 197.654 332.092 197.413 333.424C197.017 334.704 195.897 336.766 194.991 337.548C195.712 337.879 196.19 339.104 195.045 339.189C190.857 337.752 192.585 342.986 188.156 343.842C183.787 339.569 178.232 347.269 173.502 344.957C171.34 349.213 171.671 344.984 169.688 347.033C169.713 348.965 168.598 351.074 166.659 348.998C167.985 345.163 164.649 347.831 163.328 348.872C161.883 348.373 158.498 349.615 160.429 351.3C161.983 353.164 159.268 355.206 160.556 357.103C160.516 359.732 159.2 358.527 158.468 361.984C158.08 365.525 163.8 363.254 164.638 366.378C166.103 367.634 167.025 370.023 165.268 370.825C165.411 373.902 166.735 369.737 167.239 371.673C168.018 378.569 167.093 373.374 165.761 378.192C165.045 386.206 156.211 387.483 157.009 397.353C157.155 399.236 157.096 396.728 155.908 398.498C154.096 398.286 153.773 401.425 150.584 399.176C149.74 398.746 149.667 399.633 149.707 400.214C149.184 400.428 148.058 401.238 148.37 399.966C148.039 399.256 147.117 400.106 147.329 399.002C145.444 395.316 142.344 396.599 143.082 394.881C142.412 390.625 135.761 394.796 133.309 391.027C130.426 390.212 127.193 389.262 124.76 387.486C125.452 380.851 122.322 394.52 119.057 386.933C121.012 385.573 124.069 378.431 119.745 378.916C115.287 376.43 117.256 378.836 115.089 379.588C112.452 378.032 115.46 376.21 110.627 377.391H110.63ZM163.836 375.909C164.815 375.945 165.175 374.175 164.679 373.501C163.317 372.408 162.694 375.474 163.836 375.909ZM163.155 379.51C164.592 379.538 164.617 377.228 163.293 376.92C162.515 377.498 162.016 379.031 163.155 379.51Z" fill="#005663" stroke="white" stroke-width="3" stroke-linecap="round" stroke-linejoin="round"/>
<path d="M115.879 126.285C118.027 126.643 126.983 125.932 120.927 124.861C119.614 124.798 116.365 121.137 116.75 118.527C117.034 116.17 114.444 116.445 115.895 115.793C118.342 112.764 114.99 107.869 118.507 106.834C117.544 106.124 116.37 106.675 116.207 107.856C115.564 105.827 114.501 102.818 116.527 101.353C115.198 101.331 114.141 95.8661 117.208 97.5647C114.84 94.6713 114.873 99.8801 113.709 95.109C113.536 94.8475 112.939 94.3216 113.674 94.1482C113.072 93.8151 111.217 91.8494 112.774 92.0614C112.836 91.2299 112.014 89.9305 111.854 91.5933C111.295 91.0152 109.5 90.2361 110.14 89.3248C106.701 90.7702 110.46 86.5359 106.552 82.2246C106.763 81.0353 110.213 75.3998 104.42 74.5106C104.439 68.1923 115.757 79.9616 122.264 72.7513C126.058 72.2448 129.766 77.2857 125.364 79.1082C123.875 83.2736 130.864 86.3735 129.001 90.7041C137.368 84.5978 157.816 98.2172 168.347 90.9959C177.851 82.7863 175.139 89.1624 179.028 95.4063C175.714 96.5323 183.872 103.352 179.074 105.246C183.373 109.18 177.146 114.378 181.971 114.394C186.685 115.84 185.421 113.04 188.296 118.282C194.433 120.616 189.207 121.704 191.347 123.716C208.1 144.26 188.027 135.791 193.682 147.594C191.523 151.748 189.668 144.739 183.633 144.805C180.672 140.146 178.96 145.278 179.009 135.821C172.519 130.676 167.108 145.548 164.211 135.821C162.372 134.965 161.596 133.123 161.808 131.32C161.252 130.874 158.553 129.407 159.28 131.35C159.047 133.024 156.733 131.785 156.318 133.388C155.011 134.238 152.41 132.107 150.921 133.225C147.723 137.258 146.15 133.847 143.536 135.166C142.199 138.137 139.73 132.587 136.912 132.925C133.411 135.213 129.901 131.13 126.305 131.535C121.445 138.792 117.081 132.314 115.876 126.285H115.879Z" fill="#005663" stroke="white" stroke-width="3" stroke-linecap="round" stroke-linejoin="round"/>
<path d="M395.102 278.382C395.715 281.144 398.761 279.894 397.53 282.251C394.923 284.723 396.93 287.47 394.679 289.901C391.706 288.393 391.324 291.999 388.604 292.341C389.811 295.463 381.037 290.515 375.276 297.544C372.799 297.013 370.768 292.927 368.286 295.14C365.558 304.14 372.36 295.187 372.238 306.103C368.408 306.998 362.46 306.161 359.472 309.187C360.345 311.67 356.884 311.108 355.498 311.56C354.27 319.535 349.642 313.272 347.871 320.463C348.921 322.509 351.028 322.222 347.828 324.257C346.629 324.703 342.436 321.719 343.488 324.926C345.577 326.746 343.459 326.324 342.081 326.465C342.623 329.226 345.33 331.184 348.235 330.721C349.444 331.451 346.862 331.657 350.128 333.683C350.486 335.098 350.475 338.551 349.425 339.013C347.313 334.884 346.222 341.238 343.472 340.156C336.721 332.425 335.298 337.686 333.526 334.256C335.46 329.441 325.213 334.35 322.583 334.983C320.961 332.199 321.484 330.176 317.277 330.95C318.107 336.825 311.126 326.663 310.548 331.855C308.36 334.573 309.488 328.645 306.857 330.771C303.844 335.035 301.975 330.586 298.558 330.864C284.15 307.284 299.629 310.803 308.46 295.336C306.925 291.033 310.809 297.084 310.375 293.037C312.398 290.323 310.99 287.47 307.673 287.349C305.962 285.463 308.989 282.859 305.612 281.992C303.781 283.944 301.812 280.304 300.223 283.487C298.49 283.856 296.019 284.525 294.883 282.867C292.857 283.666 292.051 285.26 292.748 281.664C299.458 274.437 287.375 269.63 286.331 262.734C287.299 260.198 287.961 257.869 285.672 256.118C285.894 253.553 291.742 255.573 289.897 251.664C289.2 248.856 290.014 245.392 288.609 242.975C288.623 241.83 292.206 239.515 292.735 240.988C292.797 244.999 292.781 242.601 295.197 244.828C314.565 246.659 305.015 240.286 310.92 240.101C315.531 239.779 315.46 242.543 316.334 239.391C319.078 239.355 318.086 243.597 319.906 245.062C328.693 233.527 324.533 218.9 343.402 238.29C343.041 243.887 347.394 239.06 349.154 237.166C353.762 244.872 358.617 238.898 362.39 233.692C367.107 235.528 363.526 242.56 359.941 242.904C357.505 244.297 361.129 244.426 359.165 247.256C361.327 245.503 363.556 247.331 365.007 246.326C367.06 242.917 371.5 243.402 367.812 239.795C367.413 232.679 380.217 230.463 385.523 233.375C386.03 237.114 383.456 236.795 387.134 240.696C386.277 242.477 384.679 245.062 385.414 247.053C388.791 247.667 388.387 247.678 387.879 251.067C391.541 250.502 394.665 256.43 391.685 259.521C387.492 262.368 383.369 259.964 386.759 267.623C395.061 270.569 388.254 274.498 395.105 278.385L395.102 278.382ZM324.983 331.602C328.436 332.527 331.614 328.26 327.611 326.305C326.255 325.928 323.418 330.823 324.983 331.602Z" fill="#005663" stroke="white" stroke-width="3" stroke-linecap="round" stroke-linejoin="round"/>
<path d="M219.576 104.249C222.438 92.3612 221.239 100.686 229.251 99.6871C242.519 95.3703 253.118 109.483 266.568 103.071C271.247 104.037 267.952 109.392 274.686 112.475C276.644 111.399 275.652 116.415 278.472 115.977C279.511 115.559 279.506 116.307 279.18 117.153C278.969 118.014 276.69 116.971 277.217 118.13C277.45 118.375 278 118.705 277.471 119.041C275.144 120.82 280.265 121.574 278.646 125.131C278.83 127.862 279.758 124.407 281.312 127.545C272.337 136.121 282.579 140.152 265.364 139.951C263.322 142.247 266.362 146.153 262.668 147.367C260.349 150.104 263.723 149.829 257.922 151.282C257.184 151.238 257.415 150.768 257.669 150.272C257.04 149.182 255.405 150.305 254.949 151.128C254.285 151.814 243.946 152.329 246.736 150.032C248.847 150.536 247.564 149.454 248.266 148.213C248.857 146.737 246.273 146.153 245.779 145.215C245.418 138.756 235.058 143.472 231.442 144.13C230.219 143.585 231.404 142.715 231.806 142.007C230.148 140.95 230.148 135.092 227.797 135.898C222.744 134.615 224.624 128.278 220.059 126.089C219.283 124.677 217.274 123.19 218.917 121.775C219.877 119.881 216.94 121.059 218.071 117.637C217.314 111.426 209.083 105.672 219.579 104.249H219.576Z" fill="#005663" stroke="white" stroke-width="3" stroke-linecap="round" stroke-linejoin="round"/>
<path d="M54.778 464.662C55.0225 464.359 55.2683 464.065 55.49 463.811C55.9111 464.102 56.4168 464.473 56.9129 464.855C57.4459 465.265 57.9472 465.67 58.3061 465.984C58.3256 466.002 58.3444 466.018 58.3625 466.034C58.346 466.14 58.3283 466.255 58.3122 466.368C58.2667 466.688 58.2197 467.084 58.2062 467.511C58.1882 467.525 58.1691 467.54 58.1489 467.556C57.8928 467.753 57.5588 467.98 57.1998 468.199C56.841 468.418 56.4821 468.614 56.1801 468.756C56.1103 468.789 56.0492 468.816 55.9965 468.838C55.7984 468.763 55.5852 468.684 55.3789 468.608C55.1357 468.518 54.9019 468.431 54.7133 468.358C54.4351 468.25 54.209 468.154 54.0432 468.073C54.034 468.045 54.0243 468.014 54.0141 467.981C53.9408 467.742 53.8635 467.433 53.799 467.109C53.7341 466.784 53.6889 466.479 53.6705 466.246C53.6675 466.209 53.6655 466.176 53.6641 466.147C53.7265 466.052 53.8108 465.93 53.9153 465.786C54.1497 465.461 54.4565 465.061 54.778 464.662ZM53.8747 467.981C53.8671 467.976 53.8689 467.977 53.8777 467.983C53.8765 467.982 53.8755 467.982 53.8747 467.981ZM54.1154 468.268C54.1181 468.273 54.1194 468.276 54.1194 468.276C54.1194 468.276 54.118 468.273 54.1154 468.268ZM53.6639 466C53.664 466 53.6638 466.005 53.6626 466.015C53.6631 466.004 53.6637 466 53.6639 466Z" fill="#005663" stroke="#F9FBFF" stroke-width="3"/>
<path d="M40.6015 450.597L42.3877 451.307L42.3877 451.307L42.3877 451.307L42.3879 451.307L42.3887 451.308L42.394 451.31L42.4176 451.319C42.439 451.328 42.4713 451.34 42.5134 451.357C42.5976 451.389 42.7207 451.436 42.8726 451.493C43.1774 451.607 43.5942 451.758 44.0453 451.908C44.4994 452.059 44.9717 452.204 45.3914 452.31C45.829 452.42 46.1036 452.459 46.2221 452.461M40.6015 450.597L46.2329 452.461C46.2295 452.461 46.2259 452.461 46.2221 452.461M40.6015 450.597C40.7619 450.632 41.0529 450.683 41.377 450.637C42.1118 450.532 42.6989 450.046 43.0269 449.743C43.4211 449.38 43.7976 448.935 44.1183 448.511C44.4431 448.082 44.7394 447.635 44.9694 447.243C45.1611 446.916 45.4161 446.448 45.5092 446.04C45.6076 445.608 45.5192 445.194 45.4842 445.033C45.4332 444.799 45.3572 444.551 45.2774 444.318C45.1164 443.847 44.8957 443.309 44.6833 442.82C44.5306 442.468 44.3764 442.128 44.2413 441.836C44.5159 441.531 44.8528 441.167 45.2044 440.808C45.6335 440.371 46.0525 439.975 46.3912 439.707C46.4139 439.689 46.4355 439.672 46.456 439.656C46.4952 439.678 46.5387 439.702 46.5865 439.729C46.8952 439.908 47.2648 440.153 47.6369 440.426C48.0081 440.699 48.3585 440.981 48.6316 441.228C48.7008 441.29 48.7591 441.345 48.8079 441.392C48.802 441.487 48.7939 441.594 48.7836 441.713C48.7593 441.995 48.727 442.301 48.6926 442.626C48.6769 442.776 48.6607 442.929 48.6446 443.086C48.5961 443.561 48.5484 444.073 48.5374 444.499C48.532 444.708 48.5336 444.949 48.5616 445.178C48.5755 445.292 48.6008 445.446 48.6537 445.61C48.6999 445.753 48.8084 446.04 49.0663 446.3C49.2642 446.5 49.5045 446.624 49.5572 446.651C49.5602 446.652 49.5626 446.654 49.5644 446.654C49.6677 446.709 49.7857 446.764 49.9009 446.817C50.1154 446.915 50.3959 447.036 50.7042 447.169L50.7805 447.202C51.472 447.501 52.3553 447.884 53.2752 448.331C54.1991 448.78 55.1284 449.278 55.9116 449.798C56.128 449.942 56.3242 450.081 56.5004 450.215C55.1245 450.6 53.3306 451.029 51.563 451.418C50.1959 451.718 48.8896 451.985 47.8835 452.176C47.3795 452.271 46.9576 452.347 46.6442 452.397C46.4388 452.431 46.3184 452.447 46.2606 452.454C46.2224 452.459 46.2117 452.461 46.2221 452.461M40.6015 450.597L46.2221 452.461M33.0949 447.237C33.1847 447.136 33.2733 447.037 33.3588 446.942C33.3871 446.958 33.4159 446.975 33.4452 446.992C34.1327 447.393 35.0625 447.928 36.026 448.459C36.9847 448.988 37.9974 449.525 38.8448 449.925C39.1935 450.089 39.5339 450.24 39.8426 450.359L40.3619 452.992L41.8335 452.701L40.3619 452.992L40.3619 452.992L40.3621 452.993L40.3629 452.997L40.3662 453.013L40.379 453.079L40.428 453.33C40.4701 453.548 40.5301 453.859 40.6015 454.236C40.7442 454.99 40.9318 456 41.1118 457.032C41.2924 458.068 41.4628 459.109 41.5733 459.93C41.6288 460.343 41.6662 460.68 41.6835 460.922C41.6848 460.94 41.686 460.957 41.687 460.973C41.5817 461.117 41.4234 461.311 41.2141 461.542C40.789 462.013 40.2002 462.588 39.5226 463.14C38.8421 463.695 38.1037 464.201 37.3796 464.56C36.9927 464.752 36.6356 464.889 36.3127 464.975C36.2377 464.85 36.1594 464.721 36.0792 464.59C35.9047 464.303 35.7212 464.001 35.5423 463.695C35.021 462.802 34.3823 461.629 33.6703 460.025C33.5173 458.382 33.2701 456.817 33.0067 455.148C32.9816 454.989 32.9563 454.829 32.931 454.668C32.646 452.856 32.3437 450.866 32.0997 448.405C32.1523 448.339 32.213 448.263 32.2823 448.179C32.5223 447.889 32.8113 447.556 33.0949 447.237ZM46.722 439.475C46.7657 439.452 46.762 439.46 46.72 439.476C46.7207 439.476 46.7214 439.475 46.722 439.475ZM41.6925 461.189C41.6923 461.189 41.6925 461.182 41.6936 461.169C41.6932 461.183 41.6927 461.189 41.6925 461.189Z" fill="#005663" stroke="#F9FBFF" stroke-width="3"/>
<path d="M108.446 447.691L107.378 448.743C107.533 448.901 107.7 449.003 107.756 449.037L107.757 449.038C107.843 449.09 107.933 449.139 108.014 449.181C108.178 449.266 108.377 449.361 108.583 449.455C108.806 449.558 109.061 449.672 109.324 449.788C109.052 449.978 108.794 450.165 108.592 450.323C108.464 450.422 108.286 450.566 108.145 450.716C108.106 450.758 108.046 450.825 107.985 450.911C107.94 450.974 107.81 451.162 107.74 451.437C107.66 451.748 107.619 452.422 108.191 452.939C108.623 453.328 109.111 453.331 109.219 453.331C109.431 453.331 109.673 453.283 109.77 453.263C109.775 453.262 109.78 453.261 109.785 453.26C109.937 453.23 110.123 453.189 110.318 453.145C110.427 453.121 110.54 453.095 110.656 453.069C110.643 453.138 110.631 453.207 110.621 453.275C110.595 453.454 110.571 453.705 110.605 453.975C110.633 454.207 110.738 454.744 111.233 455.142L112.173 453.973L111.233 455.142C111.23 455.14 111.239 455.148 111.258 455.168C111.317 455.226 111.478 455.388 111.753 455.677C112.074 456.014 112.474 456.444 112.869 456.877C113.265 457.309 113.65 457.738 113.942 458.072C114.08 458.23 114.191 458.36 114.271 458.456C114.281 458.489 114.291 458.525 114.303 458.566C114.363 458.775 114.443 459.066 114.536 459.416C114.723 460.114 114.958 461.025 115.184 461.936C115.411 462.85 115.627 463.753 115.776 464.439C115.827 464.671 115.867 464.87 115.898 465.031C115.796 465.183 115.669 465.369 115.522 465.579C115.14 466.128 114.638 466.83 114.125 467.506C113.877 467.834 113.632 468.147 113.402 468.431C113.375 468.357 113.347 468.282 113.319 468.205C113.248 468.01 113.174 467.807 113.096 467.597C112.864 466.97 112.6 466.284 112.331 465.741C112.199 465.474 112.034 465.174 111.833 464.917C111.732 464.788 111.589 464.626 111.399 464.482C111.212 464.34 110.9 464.155 110.48 464.117C110.39 464.108 110.193 464.088 109.921 464.061C109.196 463.988 107.941 463.862 106.78 463.759C105.967 463.687 105.155 463.623 104.525 463.59C104.214 463.574 103.921 463.564 103.686 463.567C103.573 463.569 103.434 463.574 103.298 463.591C103.232 463.599 103.125 463.615 103.003 463.65L102.998 463.651C102.926 463.672 102.599 463.765 102.311 464.057L103.38 465.109L102.311 464.057L102.311 464.057C102.311 464.057 102.308 464.06 102.303 464.065L102.279 464.088C102.259 464.108 102.232 464.133 102.199 464.164C102.134 464.225 102.049 464.305 101.949 464.395C101.748 464.576 101.497 464.794 101.242 464.997C101.185 465.042 101.129 465.086 101.075 465.127C100.89 464.666 100.67 464.113 100.456 463.559C100.194 462.881 99.95 462.225 99.7907 461.743C99.7884 461.735 99.7861 461.728 99.7838 461.722C99.9148 461.553 100.065 461.367 100.238 461.183C100.718 460.668 101.177 460.365 101.562 460.308C101.883 460.26 102.416 460.401 103.039 460.719C103.315 460.859 103.553 461.005 103.726 461.114C103.743 461.125 103.764 461.139 103.786 461.153C103.847 461.192 103.92 461.238 103.967 461.266C103.987 461.278 104.022 461.299 104.063 461.321L104.065 461.322C104.085 461.333 104.209 461.399 104.37 461.446C104.371 461.446 104.373 461.446 104.375 461.447C104.425 461.462 104.755 461.56 105.158 461.458C105.423 461.39 105.782 461.217 106.037 460.835C106.279 460.471 106.3 460.104 106.284 459.889C106.265 459.64 106.186 459.443 106.132 459.333C106.115 459.282 106.094 459.214 106.064 459.118L106.054 459.086C105.978 458.84 105.867 458.483 105.726 458.114C105.589 457.753 105.402 457.32 105.157 456.931C104.94 456.589 104.527 456.032 103.839 455.775C103.026 455.471 101.869 455.393 101.059 455.369C100.474 455.351 99.9057 455.359 99.5198 455.377C99.0462 455.178 98.4735 454.806 97.8431 454.263C97.1224 453.643 96.4108 452.875 95.7911 452.096C95.1698 451.315 94.6714 450.561 94.363 449.988C94.2845 449.842 94.2244 449.719 94.1797 449.619C94.1812 449.616 94.1828 449.614 94.1843 449.611C94.209 449.569 94.2348 449.525 94.2619 449.479C94.3805 449.276 94.526 449.023 94.6457 448.768C94.7557 448.534 94.9082 448.168 94.9449 447.751C94.9864 447.28 94.8796 446.608 94.2915 446.11C94.303 446.12 94.3022 446.119 94.2864 446.103C94.2649 446.081 94.2153 446.031 94.1304 445.94C94.0065 445.807 93.8448 445.627 93.6572 445.414C93.2825 444.988 92.8205 444.446 92.3765 443.899C91.9285 443.348 91.5172 442.816 91.2334 442.406C91.206 442.367 91.1806 442.329 91.1573 442.295C91.174 442.257 91.192 442.217 91.2112 442.175C91.3671 441.832 91.5683 441.413 91.7763 441.003C91.9863 440.59 92.192 440.209 92.3572 439.934C92.3708 439.912 92.3836 439.891 92.3957 439.871C92.4875 439.842 92.5925 439.809 92.708 439.773C93.08 439.657 93.5461 439.515 94.0045 439.376C94.4622 439.238 94.9093 439.104 95.2422 439.004L95.2567 439C95.4341 439.077 95.6532 439.172 95.9034 439.281C96.5896 439.58 97.5093 439.981 98.444 440.391C99.3794 440.801 100.327 441.219 101.071 441.551C101.443 441.718 101.76 441.861 101.997 441.97C102.121 442.028 102.207 442.068 102.263 442.095C102.282 442.114 102.303 442.136 102.329 442.163C102.452 442.293 102.616 442.478 102.817 442.71C103.152 443.097 103.552 443.575 103.971 444.074C104.053 444.173 104.136 444.272 104.22 444.372C104.718 444.967 105.231 445.574 105.643 446.035C105.847 446.262 106.048 446.478 106.222 446.646C106.306 446.726 106.415 446.826 106.534 446.915C106.593 446.958 106.687 447.024 106.806 447.085C106.842 447.103 106.911 447.138 107.008 447.172C106.895 447.505 106.909 447.849 107.006 448.14C107.113 448.46 107.297 448.662 107.383 448.748L108.446 447.691ZM108.446 447.691C108.547 447.792 109.101 448.048 109.761 448.341L109.853 447.193C109.91 447.366 109.938 447.558 109.925 447.756C109.323 447.665 108.742 447.593 108.521 447.617C108.521 447.617 108.521 447.617 108.521 447.617C108.436 447.626 108.405 447.649 108.446 447.691ZM110.998 446.412C110.824 446.382 110.637 446.351 110.447 446.32C110.701 446.223 110.962 446.124 111.222 446.024C111.144 446.163 111.069 446.293 110.998 446.412ZM113.772 444.299L114.074 443.407L113.772 444.299C113.772 444.299 113.772 444.299 113.772 444.299ZM108.626 449.112C108.62 449.112 108.617 449.112 108.617 449.112C108.616 449.112 108.62 449.112 108.626 449.112ZM114.218 458.285C114.218 458.285 114.22 458.289 114.223 458.298C114.22 458.29 114.218 458.285 114.218 458.285ZM112.358 469.569C112.351 469.575 112.352 469.573 112.362 469.567C112.36 469.568 112.359 469.569 112.358 469.569ZM98.9561 462.607C98.8433 462.676 98.7123 462.734 98.5605 462.774C98.7248 462.731 98.8589 462.665 98.9561 462.607ZM99.6413 461.234C99.6414 461.234 99.6421 461.237 99.643 461.243C99.6417 461.236 99.6412 461.233 99.6413 461.234ZM103.599 460.913C103.595 460.908 103.589 460.901 103.583 460.893C103.588 460.899 103.593 460.906 103.598 460.912L103.599 460.913ZM90.9488 441.952C90.9488 441.952 90.9492 441.953 90.9499 441.955C90.9491 441.953 90.9488 441.952 90.9488 441.952ZM102.192 442.026C102.192 442.026 102.195 442.029 102.203 442.036C102.196 442.03 102.192 442.027 102.192 442.026ZM90.9689 442.739L90.9695 442.737L90.9689 442.739ZM110.656 446.936C110.652 446.94 110.651 446.941 110.651 446.941C110.651 446.941 110.652 446.939 110.656 446.936Z" fill="#005663" stroke="#F9FBFF" stroke-width="3"/>
<path d="M154.527 438.381C154.608 438.269 154.685 438.165 154.757 438.068C155.571 438.526 156.601 439.063 157.688 439.516C158.525 439.866 159.431 440.181 160.324 440.366C160.958 440.498 161.643 440.576 162.32 440.526C162.788 440.905 163.388 441.427 164.107 442.056C164.157 442.1 164.208 442.145 164.26 442.19C165.187 443.002 166.261 443.942 167.373 444.849C168.545 445.805 169.792 446.753 170.998 447.5C171.898 448.057 172.863 448.56 173.812 448.837C174.061 449.423 174.381 450.249 174.679 451.071C174.887 451.647 175.073 452.187 175.201 452.592C175.212 452.626 175.222 452.659 175.232 452.69C175.054 452.965 174.809 453.336 174.516 453.777C173.993 454.564 173.327 455.554 172.636 456.582C172.497 456.789 172.358 456.997 172.218 457.205C171.384 458.446 170.546 459.694 169.917 460.65C169.604 461.126 169.336 461.539 169.144 461.844C169.05 461.995 168.965 462.134 168.901 462.248C168.87 462.302 168.831 462.372 168.797 462.444C168.78 462.478 168.753 462.538 168.726 462.61C168.726 462.611 168.725 462.612 168.725 462.614C168.718 462.631 168.694 462.694 168.672 462.788C168.66 462.821 168.641 462.868 168.614 462.932C168.539 463.113 168.427 463.37 168.287 463.686C168.134 464.032 167.956 464.427 167.766 464.85C167.606 465.207 167.436 465.584 167.264 465.97C166.895 466.797 166.522 467.646 166.25 468.313C166.115 468.643 165.995 468.955 165.911 469.208C165.885 469.286 165.857 469.374 165.833 469.466C165.826 469.472 165.818 469.479 165.81 469.485C165.545 469.712 165.143 470.014 164.696 470.323C164.253 470.629 163.799 470.919 163.438 471.125C163.335 471.184 163.248 471.231 163.175 471.269C163.171 471.268 163.167 471.267 163.163 471.267C162.949 471.222 162.66 471.156 162.312 471.074C161.619 470.909 160.735 470.689 159.846 470.466C159.689 470.427 159.532 470.387 159.376 470.348C158.653 470.166 157.95 469.99 157.382 469.851C157.038 469.767 156.733 469.695 156.499 469.643C156.384 469.617 156.274 469.594 156.181 469.576C156.179 469.576 156.176 469.575 156.173 469.575C156.121 469.565 155.941 469.53 155.763 469.53C155.438 469.53 155.181 469.634 155.106 469.664L155.105 469.664C154.988 469.712 154.881 469.766 154.798 469.812C154.629 469.904 154.446 470.02 154.273 470.135C153.921 470.367 153.499 470.67 153.104 470.954C153.056 470.988 153.009 471.022 152.962 471.056C152.608 471.311 152.281 471.546 152.013 471.729C151.98 471.752 151.949 471.773 151.92 471.793C151.829 471.773 151.726 471.748 151.61 471.72C151.15 471.607 150.559 471.446 149.98 471.271C149.702 471.186 149.435 471.101 149.191 471.019C149.273 470.834 149.362 470.633 149.457 470.417C149.503 470.31 149.552 470.2 149.602 470.087C150.162 468.813 150.897 467.142 151.612 465.47C152.325 463.802 153.027 462.116 153.519 460.819C153.763 460.177 153.968 459.595 154.097 459.147C154.158 458.933 154.22 458.688 154.249 458.457C154.262 458.35 154.28 458.16 154.252 457.943C154.235 457.81 154.149 457.214 153.577 456.828C153.565 456.817 153.535 456.791 153.487 456.744C153.389 456.65 153.26 456.516 153.101 456.344C152.786 456.003 152.398 455.561 151.996 455.093C151.429 454.432 150.866 453.758 150.464 453.277C150.444 453.252 150.423 453.227 150.403 453.204C150.38 452.129 150.247 450.623 150.111 449.18C150.081 448.863 150.051 448.548 150.022 448.237C149.91 447.074 149.805 445.973 149.746 445.109C149.792 445.052 149.836 444.997 149.877 444.944C150.109 444.649 150.381 444.282 150.672 443.876C151.218 443.118 151.867 442.181 152.506 441.257C152.55 441.194 152.594 441.13 152.638 441.067C153.325 440.074 153.993 439.113 154.527 438.381ZM165.912 470.721C165.881 470.658 165.855 470.596 165.835 470.534C165.855 470.595 165.881 470.658 165.912 470.721ZM163.438 471.318C163.438 471.318 163.435 471.318 163.429 471.317C163.435 471.318 163.438 471.318 163.438 471.318ZM152.26 471.86C152.258 471.859 152.255 471.859 152.252 471.858C152.277 471.86 152.282 471.862 152.26 471.86Z" fill="#005663" stroke="#F9FBFF" stroke-width="3"/>
<path d="M210.955 459.477L212.348 458.922C212.266 458.715 212.145 458.547 212.111 458.501C212.11 458.499 212.108 458.497 212.107 458.495C212.05 458.415 211.984 458.331 211.92 458.252C211.792 458.092 211.625 457.895 211.444 457.683C211.323 457.542 211.194 457.392 211.06 457.236C210.779 456.909 210.474 456.555 210.166 456.189C209.711 455.648 209.29 455.127 208.992 454.71C208.881 454.555 208.801 454.433 208.747 454.343C208.742 453.644 208.61 452.828 208.511 452.219C208.502 452.164 208.494 452.111 208.486 452.06C208.453 451.858 208.425 451.677 208.402 451.516C208.533 451.466 208.673 451.413 208.821 451.357L208.83 451.354C209.022 451.281 209.227 451.204 209.429 451.126C209.826 450.972 210.267 450.793 210.63 450.605C210.809 450.512 211.021 450.392 211.215 450.241C211.352 450.135 211.747 449.816 211.903 449.265C211.964 449.047 211.99 448.775 212.004 448.628C212.023 448.427 212.041 448.18 212.059 447.916C212.076 447.659 212.092 447.402 212.109 447.137C212.129 446.81 212.15 446.47 212.176 446.1C212.201 445.738 212.227 445.391 212.256 445.08C212.289 445.086 212.322 445.093 212.356 445.1C212.711 445.171 213.123 445.251 213.489 445.297C213.672 445.319 213.88 445.339 214.085 445.338C214.247 445.337 214.596 445.327 214.95 445.172L215.214 445.056L215.417 444.851C215.736 444.527 216.814 443.62 217.906 442.725C218.432 442.293 218.935 441.886 219.306 441.586C219.336 441.562 219.365 441.538 219.393 441.515C219.437 441.523 219.483 441.532 219.53 441.541C219.973 441.624 220.569 441.738 221.271 441.874C221.49 441.916 221.719 441.96 221.956 442.006C223.239 442.254 224.769 442.549 226.294 442.836C228.099 443.176 229.91 443.507 231.305 443.734C231.999 443.847 232.61 443.938 233.072 443.991C233.14 443.999 233.207 444.006 233.273 444.013C233.717 444.53 234.248 445.082 234.698 445.551C234.747 445.602 234.795 445.652 234.842 445.701C235.19 446.064 235.482 446.371 235.69 446.61C235.72 446.644 235.746 446.675 235.769 446.702C235.774 446.784 235.781 446.879 235.787 446.987C235.8 447.209 235.814 447.465 235.829 447.738C235.835 447.859 235.842 447.985 235.849 448.112C235.871 448.517 235.896 448.938 235.922 449.295C235.946 449.609 235.978 449.993 236.034 450.249L236.111 450.606L236.343 450.887C236.95 451.622 237.529 452.424 238.142 453.281C238.169 453.318 238.195 453.356 238.222 453.393C238.802 454.203 239.414 455.059 240.071 455.873C241.255 457.341 242.659 458.776 244.502 459.748C244.403 460.042 244.265 460.406 244.092 460.838C244.001 461.065 243.901 461.308 243.797 461.564C243.315 462.743 242.728 464.176 242.44 465.365L242.398 465.539V465.718C242.398 465.919 242.407 466.376 242.418 466.941C242.429 467.509 242.443 468.186 242.451 468.824C242.46 469.48 242.464 470.11 242.458 470.592C242.455 470.78 242.451 470.936 242.446 471.058C242.441 471.064 242.436 471.071 242.431 471.077C242.321 471.222 242.17 471.402 242.005 471.586C241.84 471.77 241.675 471.939 241.54 472.066C241.516 472.089 241.494 472.109 241.474 472.127C241.425 472.137 241.367 472.149 241.3 472.162C241.023 472.217 240.638 472.286 240.171 472.366C239.239 472.526 238.022 472.722 236.782 472.919C236.399 472.98 236.009 473.042 235.623 473.103C234.047 473.353 232.528 473.594 231.717 473.74C231.244 473.557 230.567 473.316 229.821 473.057C228.847 472.718 227.666 472.317 226.463 471.908C226.307 471.854 226.15 471.801 225.993 471.748C224.627 471.283 223.263 470.818 222.152 470.427C221.337 470.14 220.707 469.909 220.312 469.753C220.274 469.69 220.232 469.62 220.186 469.542C220.153 469.485 220.117 469.423 220.08 469.359C219.966 469.164 219.837 468.943 219.712 468.739C219.547 468.472 219.344 468.16 219.122 467.896C219.011 467.764 218.862 467.605 218.679 467.463C218.509 467.332 218.202 467.13 217.78 467.069C217.507 467.03 217.2 467.042 217.029 467.048C217.021 467.049 217.012 467.049 217.004 467.049C216.979 467.05 216.953 467.051 216.929 467.052C216.737 467.06 216.572 467.066 216.399 467.063C215.981 467.055 215.809 466.989 215.757 466.954C215.758 466.955 215.756 466.953 215.751 466.949C215.723 466.921 215.586 466.788 215.316 466.442C215.087 466.15 214.836 465.805 214.549 465.409C214.48 465.315 214.41 465.219 214.337 465.119C213.786 464.363 213.098 463.431 212.363 462.677C212.408 462.242 212.446 461.743 212.471 461.284C212.494 460.869 212.509 460.451 212.508 460.101C212.507 459.928 212.503 459.751 212.49 459.591L212.489 459.587C212.481 459.483 212.458 459.198 212.348 458.922L210.955 459.477ZM241.638 472.089C241.652 472.085 241.66 472.083 241.66 472.083C241.66 472.083 241.653 472.085 241.638 472.089ZM242.433 471.265C242.43 471.286 242.43 471.281 242.433 471.258C242.433 471.261 242.433 471.264 242.433 471.265ZM212.396 444.017C212.396 444.017 212.395 444.02 212.394 444.024C212.395 444.019 212.396 444.017 212.396 444.017ZM211.186 444.886C211.185 444.886 211.184 444.886 211.184 444.886L211.186 444.886ZM208.339 450.879C208.34 450.862 208.341 450.864 208.339 450.881C208.339 450.881 208.339 450.88 208.339 450.879Z" fill="#005663" stroke="#F9FBFF" stroke-width="3"/>
<path d="M275.74 439.3C276.996 437.337 279.427 440.517 276.713 440.523C277.137 438.979 275.725 440.372 275.74 439.3Z" fill="#005663"/>
<path d="M278.618 441.454C279.07 441.432 279.199 442.247 279.199 442.247C278.611 442.242 278.288 441.896 278.618 441.454Z" fill="#005663"/>
<path d="M279.556 442.196C279.978 441.916 280.175 442.292 279.96 442.592C279.889 442.592 279.523 442.323 279.556 442.196Z" fill="#005663"/>
<path d="M285.129 441.788C285.237 441.75 285.606 441.767 285.631 441.871C285.812 442.417 284.544 442.211 285.129 441.788Z" fill="#005663"/>
<path d="M296.992 453.308C297.438 453.193 297.638 453.987 297.687 454.212C297.026 455 296.478 453.753 296.992 453.308Z" fill="#005663"/>
<path d="M301.514 452.151C301.368 451.951 301.177 451.702 300.928 451.471C301.041 451.357 301.191 451.223 301.381 451.053C301.397 451.038 301.414 451.023 301.431 451.007C301.541 450.909 301.661 450.801 301.781 450.688C301.82 450.731 301.859 450.773 301.898 450.812C301.904 450.911 301.92 451.064 301.971 451.215C302.006 451.322 302.053 451.417 302.106 451.501C302.057 451.626 302.017 451.78 302.01 451.954C301.997 451.958 301.984 451.962 301.971 451.967C301.799 452.03 301.665 452.126 301.563 452.219C301.546 452.197 301.53 452.174 301.514 452.151Z" fill="#005663" stroke="#005663" stroke-width="2"/>
<path d="M296.86 461.258C297.189 461.269 297.423 461.821 297.053 461.966C296.576 461.95 296.484 461.428 296.86 461.258Z" fill="#005663"/>
<path d="M293.536 464.601C293.616 464.321 294.493 464.617 294.515 464.744C294.447 464.79 293.628 464.779 293.536 464.601Z" fill="#005663"/>
<path d="M288.102 463.445C288.222 463.456 288.572 463.671 288.539 463.822C288.4 464.256 287.08 463.709 288.102 463.445Z" fill="#005663"/>
<path d="M295.761 468.781C296.035 468.779 295.949 469.429 295.681 469.391C295.244 469.221 295.487 468.949 295.761 468.781Z" fill="#005663"/>
<path d="M283.454 442.588C283.465 442.557 283.473 442.532 283.479 442.512C283.5 442.495 283.522 442.478 283.544 442.461L283.82 443.111L283.853 443.189C283.758 443.21 283.652 443.22 283.537 443.209C283.532 443.11 283.546 443.049 283.547 443.045L283.509 443.206C283.499 443.205 283.489 443.204 283.48 443.202C283.382 443.188 283.297 443.162 283.222 443.129C283.238 443.101 283.253 443.074 283.267 443.048C283.364 442.862 283.423 442.685 283.454 442.588ZM284.805 444.955C284.807 444.956 284.81 444.957 284.812 444.958C284.844 445.29 284.963 445.626 285.202 445.933C285.346 446.117 285.511 446.262 285.689 446.373C285.776 446.537 285.867 446.676 285.919 446.757C285.926 446.767 285.932 446.777 285.937 446.785C285.99 446.867 286.007 446.897 286.007 446.897C286.008 446.897 285.999 446.879 285.989 446.853C285.965 446.79 285.93 446.664 285.933 446.502C286.199 446.618 286.481 446.669 286.752 446.669L287.756 447.373C287.787 447.5 287.85 447.696 287.985 447.898C288.168 448.174 288.493 448.465 288.969 448.561C289.391 448.647 289.73 448.535 289.895 448.466C290.171 448.349 290.374 448.167 290.423 448.123C290.425 448.121 290.427 448.119 290.429 448.117C290.528 448.03 290.575 447.985 290.607 447.954C290.638 447.924 290.655 447.907 290.69 447.88L290.902 447.846C291.498 448.064 292.118 448.143 292.682 448.143C292.698 448.152 292.714 448.16 292.73 448.169C293.191 448.399 293.623 448.369 293.849 448.336C293.85 448.336 293.85 448.336 293.85 448.336C293.872 448.388 293.898 448.441 293.928 448.494C294.129 448.855 294.467 449.166 294.928 449.313C295.128 449.377 295.32 449.4 295.495 449.401L295.481 450.628C295.446 450.638 295.41 450.648 295.374 450.66C295.161 450.728 294.838 450.864 294.55 451.155C294.233 451.476 294.061 451.883 294.024 452.306C294.02 452.36 294.017 452.413 294.017 452.466C293.985 452.502 293.949 452.543 293.906 452.588C293.757 452.749 293.651 452.854 293.53 452.973C293.421 453.081 293.301 453.199 293.127 453.38C292.873 453.645 292.497 454.055 292.269 454.534C292.162 454.759 292.055 455.064 292.041 455.424C292.021 455.455 292.002 455.486 291.983 455.519C291.817 455.808 291.567 456.411 291.831 457.116C291.878 457.24 291.935 457.352 291.999 457.454C292.002 457.497 292.008 457.542 292.015 457.587C292.096 458.112 292.397 458.533 292.798 458.804C292.984 458.93 293.181 459.016 293.37 459.077C293.406 459.11 293.439 459.14 293.469 459.168C293.477 459.174 293.486 459.183 293.497 459.194C293.556 459.249 293.661 459.348 293.765 459.431C293.822 459.601 293.905 459.781 294.026 459.954C294.019 459.983 294.012 460.012 294.006 460.043C293.886 460.126 293.783 460.186 293.698 460.232C293.582 460.295 293.483 460.338 293.363 460.391L293.359 460.393C293.354 460.395 293.348 460.398 293.341 460.401C293.255 460.438 292.997 460.549 292.781 460.715C292.634 460.828 292.444 461.008 292.301 461.277C292.167 461.528 292.112 461.785 292.104 462.02C291.859 462.121 291.609 462.291 291.404 462.562C291.253 462.762 291.164 462.971 291.112 463.162C291.108 463.166 291.104 463.169 291.1 463.172C290.622 463.587 290.45 464.123 290.402 464.524C290.401 464.534 290.4 464.544 290.399 464.553C290.329 464.605 290.259 464.662 290.192 464.726C290.422 464.055 290.36 463.325 290.191 462.669L290.152 462.517L290.082 462.376C289.448 461.102 288.824 460.408 288.116 459.766C287.947 459.613 287.785 459.472 287.622 459.331C287.193 458.957 286.765 458.585 286.228 458.005L286.414 457.741C286.57 457.519 286.87 457.031 286.791 456.391C286.699 455.639 286.177 455.248 285.906 455.094C285.894 455.087 285.883 455.081 285.872 455.075L286.303 454.422L285.687 453.58C285.672 453.56 285.657 453.54 285.643 453.52L288.253 451.156L285.567 451.023C285.63 450.774 285.672 450.441 285.594 450.067L285.357 448.93L284.196 448.875C284.095 448.871 283.997 448.872 283.901 448.879L283.835 448.77L283.086 448.699C282.118 448.607 281.49 448.37 280.73 447.86C280.824 447.746 280.936 447.59 281.026 447.401C281.142 447.155 281.306 446.671 281.113 446.104C281.03 445.86 280.904 445.667 280.765 445.515C281.038 445.42 281.339 445.283 281.614 445.077C281.982 444.802 282.295 444.404 282.435 443.894C282.533 443.843 282.628 443.782 282.718 443.712C282.836 443.621 282.934 443.523 283.015 443.426L283.411 443.614L283.235 444.35L284.497 444.806C284.566 444.831 284.658 444.874 284.805 444.955ZM290.731 447.85C290.731 447.85 290.73 447.851 290.727 447.852C290.73 447.851 290.731 447.85 290.731 447.85ZM289.969 467.186C289.987 467.212 290.005 467.238 290.023 467.264C289.634 467.372 289.299 467.573 289.024 467.793L288.364 468.323L288.414 468.695C288.301 468.634 288.177 468.583 288.04 468.548C287.936 468.521 287.834 468.505 287.735 468.498C287.521 468.19 287.21 467.883 286.772 467.693C286.787 467.462 286.769 467.167 286.641 466.861C286.539 466.618 286.374 466.386 286.142 466.204C286.643 466.353 287.158 466.439 287.65 466.431C288.259 466.421 289.078 466.251 289.676 465.598C289.502 466.255 289.731 466.829 289.969 467.186ZM285.021 454.763C285.021 454.763 285.025 454.765 285.031 454.768C285.024 454.765 285.021 454.764 285.021 454.763ZM284.968 452.288C284.968 452.287 284.969 452.286 284.969 452.285C284.966 452.294 284.965 452.296 284.968 452.288ZM279.592 448.97C279.591 448.97 279.598 448.959 279.617 448.936C279.603 448.958 279.593 448.97 279.592 448.97ZM279.068 447.868C279.068 447.868 279.065 447.867 279.06 447.866C279.065 447.867 279.068 447.868 279.068 447.868ZM284.105 444.067C283.934 443.98 283.738 443.811 283.623 443.552L283.902 443.304L284.251 444.126C284.213 444.115 284.163 444.097 284.105 444.067Z" fill="#005663" stroke="#F9FBFF" stroke-width="3"/>
</svg>
