<svg width="96" height="96" viewBox="0 0 96 96" fill="none" xmlns="http://www.w3.org/2000/svg">
<path d="M96 48C96 21.54 74.47 0 48.01 0H48C21.53 0 0 21.54 0 48C0 53.9 1.07 59.64 3.15 65.08L3.11 65.1L3.82 66.78C3.82 66.78 3.86 66.87 3.88 66.91L4.5 68.36L4.54 68.34C5.57 70.54 6.77 72.66 8.12 74.68L8.08 74.71L9.05 76.05L10.16 77.6L10.2 77.56C14.39 82.9 19.7 87.36 25.67 90.5C27.47 91.45 29.38 92.3 31.33 93.02C36.66 94.99 42.26 95.99 47.98 95.99C53.7 95.99 59.33 94.98 64.68 93C66.64 92.27 68.53 91.43 70.29 90.49C76.27 87.35 81.58 82.89 85.77 77.55L85.82 77.59L86.93 76.05C86.97 75.99 87.01 75.93 87.05 75.87L87.9 74.69L87.87 74.66C89.22 72.64 90.41 70.53 91.44 68.33L91.48 68.35L92.1 66.9C92.1 66.9 92.14 66.81 92.16 66.77L92.87 65.09L92.83 65.07C94.91 59.62 95.98 53.89 95.98 47.99L96 48ZM48 3.56C72.51 3.56 92.44 23.5 92.44 48C92.44 53.37 91.49 58.6 89.63 63.57C89.61 63.56 89.59 63.55 89.57 63.53C88.92 63.08 88.31 62.55 87.69 62C85.65 60.21 83.33 58.19 78.81 58.19C74.29 58.19 71.98 60.21 69.94 62C68.07 63.64 66.59 64.93 63.41 64.93C60.23 64.93 58.75 63.64 56.88 62C54.84 60.21 52.52 58.19 48 58.19C43.48 58.19 41.17 60.21 39.12 62C37.25 63.64 35.77 64.93 32.59 64.93C29.41 64.93 27.93 63.64 26.06 62C24.02 60.21 21.7 58.19 17.18 58.19C12.66 58.19 10.35 60.21 8.3 62C7.67 62.55 7.06 63.08 6.41 63.53C6.39 63.54 6.38 63.55 6.36 63.56C4.49 58.6 3.55 53.37 3.55 47.99C3.56 23.5 23.49 3.56 48 3.56ZM36.93 91.04C38.19 90.39 39.31 89.62 40.36 88.89C42.7 87.25 44.72 85.84 48.01 85.84C51.3 85.84 53.32 87.25 55.66 88.89C56.7 89.62 57.82 90.39 59.08 91.03C51.84 92.88 44.17 92.88 36.94 91.03L36.93 91.04ZM68.65 87.36C67.52 87.96 66.31 88.5 65.08 89.02C61.95 88.95 59.97 87.58 57.69 85.99C55.22 84.26 52.41 82.3 48 82.3C43.59 82.3 40.78 84.26 38.31 85.99C36.03 87.59 34.05 88.96 30.9 89.03C29.68 88.52 28.48 87.98 27.33 87.38C21.8 84.48 16.88 80.36 13 75.42C13.07 75.38 13.13 75.34 13.2 75.3C13.35 75.22 13.49 75.14 13.65 75.06C13.76 75 13.88 74.95 13.99 74.9C14.24 74.79 14.5 74.7 14.78 74.62C14.87 74.59 14.96 74.58 15.05 74.55C15.28 74.49 15.52 74.45 15.77 74.41C15.87 74.39 15.98 74.38 16.09 74.37C16.44 74.33 16.8 74.3 17.19 74.3C19.98 74.3 21.46 75.29 23.04 76.63C23.27 76.82 23.49 77.02 23.73 77.23C25.77 79.02 28.09 81.04 32.61 81.04C37.13 81.04 39.44 79.02 41.49 77.23C43.36 75.59 44.84 74.3 48.02 74.3C51.2 74.3 52.68 75.59 54.55 77.23C56.08 78.57 57.76 80.04 60.42 80.7C61.3 80.92 62.3 81.04 63.43 81.04H65.21V80.92C65.21 80.92 65.27 80.91 65.31 80.9C66.09 80.79 66.79 80.61 67.42 80.39C67.45 80.39 67.48 80.37 67.5 80.36C67.79 80.26 68.05 80.14 68.32 80.02C68.39 79.99 68.46 79.96 68.53 79.93C68.79 79.8 69.04 79.67 69.28 79.52C69.33 79.49 69.37 79.47 69.42 79.44C70.52 78.77 71.44 77.98 72.3 77.23C74.17 75.59 75.64 74.3 78.82 74.3C79 74.3 79.16 74.31 79.33 74.32C79.49 74.32 79.66 74.33 79.81 74.35C80 74.37 80.18 74.39 80.35 74.42C80.5 74.45 80.65 74.48 80.79 74.51C80.96 74.55 81.13 74.59 81.29 74.63C81.53 74.7 81.75 74.78 81.97 74.87C82.11 74.93 82.25 75 82.39 75.07C82.51 75.13 82.63 75.19 82.75 75.26C82.83 75.31 82.91 75.35 82.99 75.4C79.11 80.34 74.18 84.45 68.65 87.36ZM85.09 72.5C84.74 72.27 84.36 72.07 83.97 71.87C83.9 71.83 83.82 71.8 83.75 71.76C83.57 71.68 83.39 71.6 83.21 71.52C83.13 71.49 83.05 71.46 82.97 71.43C82.6 71.29 82.2 71.17 81.78 71.07C81.71 71.05 81.65 71.03 81.59 71.02C81.38 70.97 81.16 70.94 80.94 70.9C80.82 70.88 80.71 70.86 80.59 70.85C80.36 70.82 80.13 70.79 79.88 70.77C79.78 70.77 79.67 70.77 79.57 70.76C79.32 70.75 79.09 70.72 78.83 70.72C74.31 70.72 71.99 72.75 69.95 74.53C68.08 76.17 66.61 77.46 63.43 77.46H63.25C63.03 77.46 62.82 77.44 62.62 77.43C62.46 77.42 62.29 77.4 62.14 77.38C61.96 77.36 61.79 77.32 61.62 77.29C61.48 77.26 61.33 77.23 61.2 77.2C61.04 77.16 60.89 77.11 60.73 77.06C60.6 77.02 60.48 76.98 60.36 76.93C60.21 76.87 60.07 76.8 59.93 76.74C59.82 76.69 59.7 76.64 59.6 76.58C59.46 76.5 59.32 76.42 59.19 76.34C59.09 76.28 58.99 76.22 58.9 76.16C58.76 76.07 58.62 75.96 58.49 75.86C58.4 75.8 58.32 75.74 58.23 75.67C58.08 75.55 57.92 75.42 57.77 75.29C57.7 75.23 57.64 75.18 57.57 75.13C57.35 74.94 57.13 74.75 56.9 74.55C56.64 74.33 56.39 74.1 56.12 73.87C54.25 72.29 51.98 70.74 48.03 70.74C43.51 70.74 41.2 72.76 39.15 74.55C37.51 75.98 36.18 77.15 33.74 77.42C33.39 77.46 33.02 77.48 32.62 77.48C31.82 77.48 31.13 77.4 30.52 77.25C28.67 76.81 27.49 75.77 26.09 74.55C24.05 72.76 21.73 70.74 17.21 70.74C16.77 70.74 16.36 70.77 15.97 70.8C15.88 70.8 15.8 70.82 15.71 70.83C15.36 70.87 15.01 70.92 14.69 70.99C14.66 70.99 14.64 70.99 14.61 71C13.86 71.16 13.18 71.38 12.56 71.65L12.5 71.68C12.2 71.81 11.91 71.95 11.64 72.1C11.4 72.23 11.18 72.37 10.96 72.51C9.78 70.72 8.73 68.85 7.82 66.92C8.94 66.24 9.86 65.44 10.7 64.71C12.57 63.07 14.05 61.78 17.23 61.78C20.41 61.78 21.89 63.07 23.76 64.71C25.8 66.5 28.12 68.52 32.64 68.52C37.16 68.52 39.47 66.5 41.52 64.71C43.39 63.07 44.87 61.78 48.05 61.78C51.23 61.78 52.71 63.07 54.58 64.71C56.62 66.5 58.94 68.52 63.46 68.52C67.98 68.52 70.29 66.5 72.33 64.71C74.2 63.07 75.68 61.78 78.86 61.78C82.04 61.78 83.52 63.07 85.4 64.71C86.24 65.45 87.16 66.25 88.28 66.92C87.37 68.85 86.32 70.72 85.14 72.5H85.09Z" fill="#F9FBFF"/>
</svg>
