<svg width="58" height="58" viewBox="0 0 58 58" fill="none" xmlns="http://www.w3.org/2000/svg">
<path fill-rule="evenodd" clip-rule="evenodd" d="M52.9451 53C52.9726 53 53 52.9726 53 52.9451V5.05486C53 5.02743 52.9726 5 52.9451 5H5.05489C5.02744 5 5 5.02743 5 5.05486V52.9451C5 52.9726 5.02744 53 5.05489 53H52.9451ZM46.1529 18.3996H42.544C40.1426 18.3996 39.3056 20.6761 39.2919 23.2544V26.6419H45.5491L44.6984 32.1276H39.2919V47.2133H32.4308V32.1276H26.9419V26.6419H32.4308V22.3356C32.4308 15.835 35.7378 12.9824 41.3639 12.9824C43.9315 12.9824 45.3486 13.1574 46.0568 13.2449C46.0904 13.249 46.1224 13.253 46.1529 13.2567V18.3996Z" fill="#F9FBFF"/>
</svg>
