<svg width="58" height="58" viewBox="0 0 58 58" fill="none" xmlns="http://www.w3.org/2000/svg">
<path d="M5 6V54H53V6H5ZM43.2217 22.9509C43.2354 23.2526 43.2491 23.5543 43.2491 23.8697C43.2491 33.2777 36.0217 44.112 22.8286 44.112C18.7829 44.112 14.9977 42.9326 11.8297 40.9166C12.392 40.9851 12.9543 41.0126 13.544 41.0126C16.904 41.0126 20.0034 39.8743 22.4583 37.968C19.3177 37.9131 16.6709 35.8423 15.752 33.0309C16.1909 33.1131 16.6434 33.168 17.1097 33.168C17.768 33.168 18.3989 33.072 19.0023 32.9074C15.7246 32.2491 13.2423 29.3829 13.2423 25.9269V25.8446C14.216 26.3657 15.3131 26.6949 16.4926 26.736C14.5589 25.4606 13.2971 23.28 13.2971 20.8114C13.2971 19.5086 13.6537 18.2743 14.2709 17.232C17.8091 21.5383 23.1029 24.3771 29.0686 24.6651C28.9451 24.144 28.8766 23.5954 28.8766 23.0469C28.8766 19.1246 32.0857 15.9291 36.0491 15.9291C38.1063 15.9291 39.9714 16.7931 41.288 18.1783C42.92 17.8629 44.456 17.2594 45.8411 16.4503C45.3063 18.1097 44.168 19.5086 42.6869 20.4C44.1406 20.2217 45.5257 19.8377 46.8149 19.2754C45.8549 20.7154 44.648 21.9634 43.2354 22.9646L43.2217 22.9509Z" fill="#F9FBFF"/>
</svg>
