<svg width="42" height="39" viewBox="0 0 42 39" fill="none" xmlns="http://www.w3.org/2000/svg">
<path opacity="0.05" d="M32.3154 11.349L27.2986 13.5936L26.9206 13.7575C25.9615 12.9465 25.2975 11.8897 25.0762 10.7018L25.4635 10.5298L30.4802 8.28516L32.3154 11.349Z" fill="#01131B"/>
<path opacity="0.07" d="M32.3162 11.349L27.2995 13.5936C26.3127 12.8072 25.6395 11.7258 25.4551 10.5298L30.4718 8.28516L32.3162 11.349Z" fill="#01131B"/>
<path opacity="0.05" d="M32.3154 27.6194L27.2986 25.3748L26.9206 25.2109C25.9615 26.022 25.2975 27.0787 25.0762 28.2666L25.4635 28.4386L30.4802 30.6833L32.3154 27.6194Z" fill="#01131B"/>
<path opacity="0.07" d="M32.3162 27.6177L27.2995 25.373C26.3127 26.1595 25.6395 27.2408 25.4551 28.4369L30.4718 30.6815L32.3162 27.6177Z" fill="#01131B"/>
<path opacity="0.05" d="M16.4741 20.5246L16.843 20.6885C16.5387 21.8599 15.8009 22.8921 14.7773 23.654L14.3992 23.4902L8.86607 21.0161C8.2021 20.7212 7.78711 20.1232 7.78711 19.4842C7.78711 18.8452 8.2021 18.2472 8.86607 17.9523L14.3992 15.4783L14.7773 15.3145C15.8009 16.0763 16.5387 17.1003 16.843 18.28L16.4741 18.4438L14.141 19.4842L16.4741 20.5246Z" fill="#01131B"/>
<path opacity="0.07" d="M14.141 19.4844L16.4741 20.5248C16.1975 21.7045 15.4413 22.7449 14.3992 23.4904L8.86607 21.0164C8.20209 20.7215 7.78711 20.1234 7.78711 19.4844C7.78711 18.8455 8.20209 18.2474 8.86607 17.9525L14.3992 15.4785C15.4413 16.224 16.1883 17.2562 16.4741 18.4441L14.141 19.4844Z" fill="#01131B"/>
<path d="M31.4023 24.3169C29.9729 24.3169 28.6726 24.7839 27.6859 25.5458L16.1032 20.3684C16.1677 20.0816 16.1954 19.7949 16.1954 19.4918C16.1954 19.1887 16.1585 18.902 16.1032 18.6153L27.6859 13.4379C28.6726 14.1997 29.9729 14.6667 31.4023 14.6667C34.4916 14.6667 37 12.504 37 9.83333C37 7.16271 34.4916 5 31.4023 5C28.313 5 25.8046 7.16271 25.8046 9.83333C25.8046 10.0218 25.8231 10.202 25.8415 10.3822L14.0098 15.6743C13.0692 15.0435 11.8888 14.6667 10.5977 14.6667C7.50836 14.6667 5 16.8294 5 19.5C5 22.1706 7.50836 24.3333 10.5977 24.3333C11.8795 24.3333 13.0599 23.9565 14.0098 23.3257L25.8415 28.6178C25.8138 28.798 25.8046 28.9782 25.8046 29.1667C25.8046 31.8373 28.313 34 31.4023 34C34.4916 34 37 31.8209 37 29.1503C37 26.4797 34.4916 24.3169 31.4023 24.3169Z" fill="#01131B"/>
</svg>
