<svg width="58" height="58" viewBox="0 0 58 58" fill="none" xmlns="http://www.w3.org/2000/svg">
<path d="M5 6V54H53V6H5ZM45.0046 11.3349C46.472 11.3349 47.6651 12.528 47.6651 13.9954C47.6651 15.4629 46.472 16.656 45.0046 16.656C43.5371 16.656 42.344 15.4629 42.344 13.9954C42.344 12.528 43.5234 11.3349 45.0046 11.3349ZM29 16.6697C36.3646 16.6697 42.3303 22.6354 42.3303 30C42.3303 37.3646 36.3646 43.3303 29 43.3303C21.6354 43.3303 15.6697 37.3646 15.6697 30C15.6697 22.6354 21.6354 16.6697 29 16.6697ZM29 22.0046C24.584 22.0046 21.0046 25.584 21.0046 30C21.0046 34.416 24.584 37.9954 29 37.9954C33.416 37.9954 36.9954 34.416 36.9954 30C36.9954 25.584 33.416 22.0046 29 22.0046Z" fill="#F9FBFF"/>
</svg>
