<?xml version="1.0" encoding="utf-8"?>
<!-- Generator: Adobe Illustrator 26.3.1, SVG Export Plug-In . SVG Version: 6.00 Build 0)  -->
<svg version="1.1" id="Calque_1" xmlns="http://www.w3.org/2000/svg" xmlns:xlink="http://www.w3.org/1999/xlink" x="0px" y="0px"
	 viewBox="0 0 119 32" style="enable-background:new 0 0 119 32;" xml:space="preserve">
<g>
	<polygon points="5,26.8 8.1,26.8 8.1,16.8 16.5,16.8 16.5,14 8.1,14 8.1,8 16.5,8 16.5,5.3 5,5.3 	"/>
	<polygon points="24.5,5.3 21.4,5.3 21.4,26.8 34.3,26.8 34.3,24 24.5,24 	"/>
	<polygon points="72.2,20.4 65.7,5.3 62.6,5.3 71.9,26.8 72.6,26.8 81.8,5.3 78.7,5.3 	"/>
	<rect x="85.7" y="5.3" width="3.1" height="21.4"/>
	<path d="M104.3,5.2h-2.2l-9.3,21.6H96l2.7-6.4h9.2l2.9,6.4h3.2L104.3,5.2z M100,17.7l3.2-7.8l3.5,7.8H100z"/>
	<path d="M60.7,17.8c0.1-0.6,0.2-1.2,0.2-1.8c0-3.2-1.1-5.8-3.3-7.9C55.3,6,52.5,5,49.2,5c-3.3,0-6.1,1-8.3,3.1
		c-0.8,0.8-1.4,1.6-1.9,2.6c-1.9,0.1-3.4,0.9-4.8,2.4c-0.6,0.6-1.8,2.1-2.3,2.7c0.7-0.3,2.2-1,2.9-1.3c1.1-0.6,2.1-1,3.2-1.2
		c-0.2,0.9-0.4,1.8-0.4,2.8c0,3.1,1.1,5.7,3.3,7.8C43,26,45.7,27,49,27c3.4,0,6.2-1,8.5-3.1c1.1-1,1.9-2.2,2.5-3.4
		c1.2-0.4,2.3-1.1,3.3-2.2c0.6-0.6,1.8-2.1,2.3-2.7c-0.7,0.3-2.2,1-2.9,1.3C62,17.3,61.4,17.6,60.7,17.8z M49.3,7.9
		c2.4,0,4.3,0.8,5.9,2.3c1.6,1.5,2.4,3.5,2.4,5.7c0,0.8-0.1,1.6-0.3,2.3c-2.1-0.2-4.7-1.3-8.6-3.9v0c-2.5-1.6-4.6-2.6-6.4-3.2
		c0.3-0.3,0.5-0.7,0.9-1C44.8,8.7,46.8,7.9,49.3,7.9z M49.2,24.2c-2.4,0-4.4-0.8-6-2.3c-1.6-1.5-2.4-3.5-2.4-5.8
		c0-1,0.2-1.9,0.4-2.7c1.9,0.4,4.2,1.5,7.5,3.7v0c3.1,2,5.6,3.1,7.6,3.5c-0.3,0.4-0.7,0.9-1.1,1.3C53.6,23.4,51.6,24.2,49.2,24.2z"
		/>
</g>
</svg>
