<?xml version="1.0" encoding="utf-8"?>
<!-- Generator: Adobe Illustrator 26.3.1, SVG Export Plug-In . SVG Version: 6.00 Build 0)  -->
<svg version="1.1" id="Calque_1" xmlns="http://www.w3.org/2000/svg" xmlns:xlink="http://www.w3.org/1999/xlink" x="0px" y="0px"
	 viewBox="0 0 106 106" style="enable-background:new 0 0 106 106;" xml:space="preserve">
<style type="text/css">
	.st0{display:none;}
	.st1{display:inline;}
	.st2{fill:#111010;}
	.st3{fill:#F9FBFF;}
</style>
<g id="carte" class="st0">
	<g class="st1">
		<path class="st2" d="M64.8,44.2h11.4c0.9,0,1.6-0.7,1.6-1.6c0-0.9-0.7-1.6-1.6-1.6H64.8c-0.9,0-1.6,0.7-1.6,1.6
			C63.2,43.5,63.9,44.2,64.8,44.2z"/>
		<path class="st2" d="M64.8,38.3h15.8c0.9,0,1.6-0.7,1.6-1.6c0-0.9-0.7-1.6-1.6-1.6H64.8c-0.9,0-1.6,0.7-1.6,1.6
			C63.2,37.6,63.9,38.3,64.8,38.3z"/>
		<path class="st2" d="M64.8,32.2h23.5c0.9,0,1.6-0.7,1.6-1.6c0-0.9-0.7-1.6-1.6-1.6H64.8c-0.9,0-1.6,0.7-1.6,1.6
			C63.2,31.5,63.9,32.2,64.8,32.2z"/>
		<path class="st2" d="M64.8,26.2h18.5c0.9,0,1.6-0.7,1.6-1.6S84.2,23,83.3,23H64.8c-0.9,0-1.6,0.7-1.6,1.6
			C63.2,25.4,63.9,26.2,64.8,26.2z"/>
		<path class="st2" d="M31,62.3H19.7c-0.9,0-1.6,0.7-1.6,1.6s0.7,1.6,1.6,1.6H31c0.9,0,1.6-0.7,1.6-1.6C32.7,63.1,31.9,62.3,31,62.3
			z"/>
		<path class="st2" d="M35.5,56.4H19.7c-0.9,0-1.6,0.7-1.6,1.6s0.7,1.6,1.6,1.6h15.8c0.9,0,1.6-0.7,1.6-1.6
			C37.1,57.2,36.4,56.4,35.5,56.4z"/>
		<path class="st2" d="M89.1,100.8l-10-10.4c4.2-3.9,6.9-9.4,7.2-15.7c0-0.1,0-0.3,0-0.4h5.5c4.2,0,7.7-3.3,7.7-7.4v-52
			c0-4.1-3.4-7.4-7.7-7.4H15.3c-4.2,0-7.7,3.3-7.7,7.4v52c0,4.1,3.5,7.4,7.7,7.4h25.5c0,0.1,0,0.2,0,0.3c0,12.1,10.2,21.9,22.8,21.9
			c4.9,0,9.4-1.5,13.1-4L86.8,103c0.3,0.3,0.8,0.5,1.2,0.5c0.4,0,0.8-0.1,1.1-0.4C89.7,102.5,89.8,101.5,89.1,100.8z M15.3,71.1
			c-2.4,0-4.4-1.9-4.4-4.2v-52c0-2.3,2-4.2,4.4-4.2h76.6c2.4,0,4.4,1.9,4.4,4.2v52c0,2.3-2,4.2-4.4,4.2h-5.6
			c-0.6-4.1-2.4-8-5.5-11.1c-4.4-4.6-10.6-7.2-17.2-7.2l0,0c-11.3,0-20.7,7.9-22.5,18.3H15.3z M44,74.7c0-10.3,8.8-18.6,19.5-18.6
			l0,0c5.6,0,11,2.2,14.8,6.2c3.3,3.4,5,7.8,4.8,12.4c-0.6,10.7-9,18.7-19.5,18.7C52.8,93.3,44,84.9,44,74.7z"/>
		<path class="st2" d="M61.2,60.7c-5.2,0-11.1,4.1-11.1,9.7c0,0.9,0.7,1.6,1.6,1.6c0.9,0,1.6-0.7,1.6-1.6c0-3.6,4.2-6.4,7.8-6.4
			c0.9,0,1.6-0.7,1.6-1.6C62.8,61.4,62.1,60.7,61.2,60.7z"/>
		<path class="st2" d="M55.7,48.6c0.2-0.3,0.3-0.6,0.3-0.9l0,0c0-0.3-0.1-0.6-0.2-0.8c-0.4-0.7-0.8-1.5-1.2-2.3
			c-2.7-4.8-5.8-10.3,2.5-18.5c0.5-0.5,0.6-1.1,0.4-1.7s-0.8-1-1.5-1c-4.5-0.1-13-5.2-17.6-8.5c-0.4-0.3-0.9-0.4-1.4-0.3
			s-0.9,0.5-1.1,1c-2.4,6.2-14.1,10.1-20.6,9.6c-0.7-0.1-1.5,0.4-1.7,1.1s0.1,1.5,0.7,1.9c15.3,8.9,9.5,20.6,9.3,21.1
			c-0.2,0.5-0.2,1,0,1.5c0.3,0.5,0.7,0.8,1.2,0.8c0.1,0,8.3,1,12.6,3.5c0.3,0.1,0.5,0.2,0.8,0.2c0.1,0,0.3,0,0.4-0.1
			c0.4-0.1,0.8-0.4,1-0.8c2.1-3.8,4.5-3.5,7.5-3C50.1,51.9,53.5,52.4,55.7,48.6z M37.7,51.6c-3.4-1.6-7.9-2.5-10.4-2.9
			c1.2-3.9,2.4-12.9-7.2-20.6c6.6-0.9,14.5-4.3,17.9-9.6c2.9,2,9.4,6.1,14.7,7.5c-7.4,8.8-3.6,15.5-1,20.1c0.3,0.5,0.5,0.9,0.8,1.4
			c-0.9,1.1-2.1,1.1-4.7,0.7C44.8,47.9,40.8,47.3,37.7,51.6z"/>
	</g>
</g>
<g id="association" class="st0">
	<path class="st1" d="M92.8,14.8C87.3,8.6,80.4,5.2,73.5,5c-5.6-0.1-10.9,2-14.8,6c-0.5,0.5-3,3.3-6.2,7l-6.8-7.3
		C42.2,6.9,37.3,4.9,31.9,5C24.5,5.1,17,9,11.2,15.8C0.9,29.6-1,43.6,23.4,66.9L21,70.3c-2,2.8-1.6,6.8,0.9,9.1
		c1.1,1.1,2.5,1.6,4,1.6c0.2,0,0.4,0,0.5,0c0.8-0.1,1.5-0.3,2.2-0.7c-0.4,2.3,0.2,4.8,2,6.4c1.1,1.1,2.5,1.6,4,1.6
		c0.2,0,0.4,0,0.5,0c0.7-0.1,1.4-0.3,2.1-0.6c-0.1,2,0.6,4,2.1,5.4c1.1,1.1,2.5,1.6,4,1.6c0.2,0,0.4,0,0.6,0
		c0.7-0.1,1.4-0.3,2.1-0.6c-0.1,2,0.6,4,2.1,5.4c1.1,1.1,2.5,1.6,4,1.6c0.2,0,0.4,0,0.6,0c1.7-0.2,3.3-1.1,4.4-2.6l5.8-8.2
		c0.8,1,1.5,1.9,3.7,3.8c1.3,1.2,2.9,1.7,4.4,1.7c1.6,0,3.2-0.6,4.6-1.8c2.3-2,3.7-5.2,3.1-8.3c0.3,0,0.5,0.1,0.8,0.1
		c1.1,0,2.3-0.3,3.4-0.9c3.1-1.8,5-6,3.3-10.1c2.2-0.5,4.3-2.2,5.3-4.6c1.3-3,0.9-6.2-0.9-9l6.6-7.9
		C105.1,43.6,103.1,26.4,92.8,14.8z M26.1,77.6c-0.5,0-1.1-0.2-1.6-0.6c-1.3-1.2-1.4-3.4-0.4-4.9l7.3-10.4c0.4-0.6,1-1,1.6-1.1
		c0.5,0,1.1,0.2,1.6,0.6c1.3,1.2,1.4,3.4,0.4,4.9l-7.3,10.4C27.3,77.2,26.7,77.5,26.1,77.6z M34.9,84.9c-0.5,0-1.1-0.2-1.6-0.6
		c-1.3-1.2-1.4-3.4-0.4-4.9L40.2,69c0.4-0.6,1-1,1.6-1.1c0.5,0,1.1,0.2,1.6,0.6c1.3,1.2,1.4,3.4,0.4,4.9l-7.3,10.4
		C36.1,84.5,35.5,84.8,34.9,84.9z M43.6,91.3c-0.5,0.1-1.1-0.2-1.6-0.6c-1.3-1.2-1.4-3.4-0.4-4.9L49,75.4c0.4-0.6,1-1,1.6-1.1
		c0.5-0.1,1.1,0.2,1.6,0.6c1.3,1.2,1.4,3.4,0.4,4.9l-7.3,10.4C44.8,90.9,44.2,91.2,43.6,91.3z M54,96.6c-0.4,0.6-1,1-1.6,1.1
		c-0.5,0.1-1.1-0.2-1.6-0.6c-1.3-1.2-1.4-3.4-0.4-4.9l7.3-10.4c0.4-0.6,1-1,1.6-1.1c0.5-0.1,1.1,0.2,1.6,0.6
		c1.3,1.2,1.4,3.4,0.4,4.9L54,96.6z M88.1,68.8c-0.6,1.4-1.8,2.5-2.9,2.7c-0.6,0.1-1.1-0.2-1.6-0.7c-5-6.3-16.5-19.1-16.6-19.2
		c-0.7-0.7-1.8-0.8-2.6-0.2c-0.8,0.6-0.9,1.7-0.2,2.4c1.7,1.9,11.3,12.7,16,18.4c0,0.1,0.1,0.2,0.2,0.3c0.2,0.2,0.3,0.4,0.5,0.6
		c0.7,0.9,1.3,1.7,1.6,2.1c1.8,3,0.2,5.9-1.4,6.8c-1.3,0.8-2.6,0.4-3.8-1c-0.7-0.9-3.8-4.4-7-8.2c-3.3-3.8-7-8.1-7.7-9
		c-0.5-0.7-1.5-0.9-2.2-0.6c-0.4,0-0.8,0.1-1.1,0.4c-0.8,0.6-0.9,1.6-0.3,2.4c0.8,0.9,4.4,5.2,7.9,9.4c3.3,4,6.5,7.8,7.2,8.6
		c2.3,2.5,0.9,6-0.9,7.5c-1.3,1.1-2.7,1.2-3.9,0.1c-2-1.8-2.5-2.4-3.3-3.5c-0.2-0.3-0.5-0.7-0.8-1.1c1.3-2.7,0.7-6-1.5-8
		c-1.3-1.2-2.9-1.7-4.6-1.6c-0.7,0.1-1.4,0.3-2.1,0.6c0.1-2-0.6-4-2.1-5.4c-1.3-1.2-2.9-1.7-4.6-1.6c-0.7,0.1-1.4,0.3-2.1,0.6
		c0.1-2-0.6-4-2.1-5.4c-1.3-1.2-2.9-1.7-4.6-1.6c-0.8,0.1-1.5,0.3-2.2,0.7c0.4-2.3-0.2-4.8-2-6.4c-1.3-1.2-2.9-1.7-4.6-1.6
		c-1.7,0.2-3.3,1.1-4.4,2.6l-2.8,4C3.3,42.7,4.8,30.4,14.2,17.8c5-5.9,11.5-9.3,17.8-9.4c4.3,0,8.1,1.5,10.9,4.5l7.2,7.8
		c-6.1,7-13.3,15.5-14.8,17.8c-3.1,4.8-1.1,10.2,2.6,12.5c3.2,2,6.9,1.3,9.4-1.6c0.1-0.1,3.9-4.4,7.9-8.8s6.2-6.9,7.5-8.3l24.1,29.8
		l0,0l0,0C88.6,64.1,89.1,66.6,88.1,68.8z M94.2,51.1l-5.9,7.1L64.2,28.6c-0.3-0.4-0.9-0.7-1.4-0.7l0,0c-0.6,0-1.1,0.2-1.4,0.6
		c-0.1,0.2-4.6,5.2-9,10c-6.5,7.3-7.9,8.8-7.9,8.8c-1.7,2-3.4,1.6-4.5,1c-2-1.3-3.7-4.7-1.5-8c2.2-3.4,20.9-24.9,22.9-26.9
		c3.2-3.3,7.3-5,12-4.9c5.9,0.1,11.7,3.2,16.5,8.5C99.2,27.4,101.2,42.7,94.2,51.1L94.2,51.1z"/>
</g>
<g id="Calque_4">
	<path class="st3" d="M101,53.1C101,26.5,79.5,5,53,5l0,0C26.5,5,5,26.5,5,53.1C5,59,6.1,64.7,8.1,70.2l0,0l0.7,1.7
		c0,0,0,0.1,0.1,0.1l0.6,1.4l0,0c1,2.2,2.2,4.3,3.6,6.3l0,0l1,1.3l0,0l1.1,1.5l0,0c4.2,5.3,9.5,9.8,15.5,12.9c1.8,1,3.7,1.8,5.7,2.5
		c5.3,2,10.9,3,16.7,3c5.7,0,11.4-1,16.7-3c2-0.7,3.8-1.6,5.6-2.5c6-3.1,11.3-7.6,15.5-12.9l0,0l1.1-1.5c0-0.1,0.1-0.1,0.1-0.2
		l0.9-1.2l0,0c1.3-2,2.5-4.1,3.6-6.3l0,0l0.6-1.5c0,0,0-0.1,0.1-0.1L98,70l0,0C99.9,64.7,101,59,101,53.1z M53,8.6
		c24.5,0,44.4,19.9,44.4,44.5c0,5.4-0.9,10.6-2.8,15.6c0,0,0,0-0.1,0c-0.7-0.5-1.3-1-1.9-1.5c-2-1.8-4.4-3.8-8.9-3.8s-6.8,2-8.9,3.8
		c-1.9,1.6-3.3,2.9-6.5,2.9s-4.7-1.3-6.5-2.9c-2-1.8-4.4-3.8-8.9-3.8s-6.8,2-8.9,3.8c-1.9,1.6-3.3,2.9-6.5,2.9s-4.7-1.3-6.5-2.9
		c-2-1.8-4.4-3.8-8.9-3.8s-6.8,2-8.9,3.8c-0.6,0.5-1.2,1.1-1.9,1.5l0,0c-1.9-5-2.8-10.2-2.8-15.6C8.6,28.5,28.5,8.6,53,8.6z
		 M41.9,96.2c1.3-0.6,2.4-1.4,3.4-2.1c2.3-1.6,4.4-3,7.6-3c3.3,0,5.3,1.4,7.6,3c1,0.7,2.2,1.5,3.4,2.1
		C56.8,98.1,49.2,98.1,41.9,96.2z M73.6,92.6c-1.1,0.6-2.3,1.1-3.6,1.7c-3.1-0.1-5.1-1.4-7.4-3c-2.5-1.7-5.3-3.7-9.7-3.7
		s-7.2,2-9.7,3.7c-2.3,1.6-4.3,3-7.4,3c-1.2-0.5-2.4-1-3.6-1.7c-5.5-2.9-10.5-7-14.3-12c0.1,0,0.1-0.1,0.2-0.1
		c0.1-0.1,0.3-0.2,0.4-0.2c0.1-0.1,0.2-0.1,0.3-0.2c0.3-0.1,0.5-0.2,0.8-0.3c0.1,0,0.2,0,0.3-0.1c0.2-0.1,0.5-0.1,0.7-0.1
		c0.1,0,0.2,0,0.3,0c0.3,0,0.7-0.1,1.1-0.1l0,0c2.8,0,4.3,1,5.8,2.3c0.2,0.2,0.5,0.4,0.7,0.6c2,1.8,4.4,3.8,8.9,3.8s6.8-2,8.9-3.8
		c1.9-1.6,3.3-2.9,6.5-2.9s4.7,1.3,6.5,2.9c1.5,1.3,3.2,2.8,5.9,3.5c0.9,0.2,1.9,0.3,3,0.3H70v-0.1h0.1c0.8-0.1,1.5-0.3,2.1-0.5h0.1
		c0.3-0.1,0.6-0.2,0.8-0.3c0.1,0,0.1-0.1,0.2-0.1c0.3-0.1,0.5-0.3,0.8-0.4l0.1-0.1c1.1-0.7,2-1.5,2.9-2.2c1.9-1.6,3.3-2.9,6.5-2.9
		c0.2,0,0.3,0,0.5,0s0.3,0,0.5,0s0.4,0,0.5,0.1c0.2,0,0.3,0.1,0.4,0.1c0.2,0,0.3,0.1,0.5,0.1c0.2,0.1,0.5,0.2,0.7,0.2
		c0.1,0.1,0.3,0.1,0.4,0.2c0.1,0.1,0.2,0.1,0.4,0.2c0.1,0,0.2,0.1,0.2,0.1C84.1,85.5,79.2,89.6,73.6,92.6z M90.1,77.7
		c-0.4-0.2-0.7-0.4-1.1-0.6c-0.1,0-0.1-0.1-0.2-0.1c-0.2-0.1-0.4-0.2-0.5-0.2s-0.2-0.1-0.2-0.1c-0.4-0.1-0.8-0.3-1.2-0.4
		c-0.1,0-0.1,0-0.2-0.1c-0.2,0-0.4-0.1-0.7-0.1c-0.1,0-0.2,0-0.4-0.1c-0.2,0-0.5-0.1-0.7-0.1c-0.1,0-0.2,0-0.3,0c-0.2,0-0.5,0-0.7,0
		c-4.5,0-6.8,2-8.9,3.8c-1.9,1.6-3.3,2.9-6.5,2.9h-0.2c-0.2,0-0.4,0-0.6,0s-0.3,0-0.5,0s-0.4-0.1-0.5-0.1s-0.3-0.1-0.4-0.1
		c-0.2,0-0.3-0.1-0.5-0.1c-0.1,0-0.3-0.1-0.4-0.1c-0.1-0.1-0.3-0.1-0.4-0.2s-0.2-0.1-0.3-0.2c-0.1-0.1-0.3-0.2-0.4-0.2
		c-0.1-0.1-0.2-0.1-0.3-0.2c-0.1-0.1-0.3-0.2-0.4-0.3s-0.2-0.1-0.3-0.2c-0.2-0.1-0.3-0.2-0.5-0.4c-0.1-0.1-0.1-0.1-0.2-0.2
		c-0.2-0.2-0.4-0.4-0.7-0.6c-0.3-0.2-0.5-0.5-0.8-0.7c-1.9-1.6-4.1-3.1-8.1-3.1l0,0l0,0c-4.5,0-6.8,2-8.9,3.8
		c-1.6,1.4-3,2.6-5.4,2.9c-0.3,0-0.7,0.1-1.1,0.1c-0.8,0-1.5-0.1-2.1-0.2c-1.8-0.4-3-1.5-4.4-2.7c-2-1.8-4.4-3.8-8.9-3.8l0,0l0,0
		l0,0c-0.4,0-0.8,0-1.2,0.1c-0.1,0-0.2,0-0.3,0c-0.4,0-0.7,0.1-1,0.2h-0.1c-0.8,0.2-1.4,0.4-2.1,0.6c0,0,0,0-0.1,0
		c-0.3,0.1-0.6,0.3-0.9,0.4l0,0c-0.2,0.1-0.5,0.3-0.7,0.4c-1.2-1.8-2.2-3.7-3.1-5.6c1.1-0.7,2-1.5,2.9-2.2c1.9-1.6,3.4-2.9,6.5-2.9
		c3.2,0,4.7,1.3,6.5,2.9c2,1.8,4.4,3.8,8.9,3.8s6.8-2,8.9-3.8c1.9-1.6,3.3-2.9,6.5-2.9s4.7,1.3,6.5,2.9c2,1.8,4.4,3.8,8.9,3.8
		s6.8-2,8.9-3.8c1.9-1.6,3.3-2.9,6.5-2.9s4.7,1.3,6.5,2.9c0.8,0.7,1.8,1.5,2.9,2.2C92.3,73.9,91.3,75.8,90.1,77.7z"/>
</g>
</svg>
