<?xml version="1.0" encoding="utf-8"?>
<!-- Generator: Adobe Illustrator 26.3.1, SVG Export Plug-In . SVG Version: 6.00 Build 0)  -->
<svg version="1.1" id="Calque_1" xmlns="http://www.w3.org/2000/svg" xmlns:xlink="http://www.w3.org/1999/xlink" x="0px" y="0px"
	 viewBox="0 0 114 106" style="enable-background:new 0 0 114 106;" xml:space="preserve">
<style type="text/css">
	.st0{fill:#F9FBFF;}
</style>
<g>
	<path class="st0" d="M25,68.4C-2.7,43.7-0.6,28.9,11.1,14.2l0.1-0.1C17.4,7.2,25.6,3.2,33.7,3C39.6,2.9,45,5,48.8,8.9l9,9.1
		l-2.9,2.8l-9-9.1C42.9,8.5,38.6,6.9,33.8,7c-6.9,0.1-14.1,3.7-19.6,9.7C5.5,27.6-0.5,40.3,27.7,65.4L25,68.4z"/>
	<path class="st0" d="M76.8,97.6c-1.7,0-3.3-0.6-4.7-1.7c-2.6-2.1-3.3-3-4.2-4.2c-0.3-0.3-0.5-0.7-0.9-1.1c-0.7-0.8-0.6-2.1,0.2-2.8
		c0.8-0.7,2.1-0.6,2.8,0.2c0.4,0.5,0.7,0.9,1,1.2c0.8,1,1.4,1.7,3.6,3.5c2.5,2.1,4.8-0.2,5.3-0.7c1.5-1.7,2.3-4.4,0.3-6.5
		c-0.8-0.9-4.3-4.8-8-8.9c-3.9-4.3-7.8-8.8-8.7-9.6c-0.8-0.8-0.7-2.1,0-2.8s2.1-0.7,2.8,0c0.9,0.9,4.7,5.2,8.8,9.8
		c3.5,3.9,7.1,7.9,7.9,8.8c3.6,3.8,2.6,8.9-0.2,12C81.1,96.6,79,97.6,76.8,97.6z"/>
	<path class="st0" d="M86.2,87.3c-2.1,0-4.2-1-5.8-2.8c-0.7-0.9-4.2-4.6-7.6-8.3c-4-4.3-7.8-8.4-8.6-9.4c-0.7-0.8-0.6-2.1,0.2-2.8
		c0.8-0.7,2.1-0.6,2.8,0.2c0.8,0.9,4.9,5.4,8.5,9.2c3.6,3.8,6.9,7.5,7.7,8.4c2.1,2.5,4.3,1.1,5,0.6c1.6-1.2,2.6-3.6,1-6.1
		c-2-3.1-17.2-19-20.1-21.9c-0.8-0.8-0.8-2.1,0-2.8c0.8-0.8,2.1-0.8,2.8,0c0.2,0.2,18,18.6,20.6,22.6c2.9,4.4,1.2,9.1-2,11.5
		C89.4,86.7,87.8,87.3,86.2,87.3z"/>
	<path class="st0" d="M92.3,76.1c-1.9,0-3.7-0.9-5.1-2.5c-0.7-0.8-0.6-2.1,0.2-2.8c0.8-0.7,2.1-0.6,2.8,0.2c0.8,0.9,1.6,1.2,2.6,1
		c1.4-0.3,2.7-1.7,3.3-3.3c0.3-1.1,0.6-3.4-1.6-5.6c-0.8-0.8-0.7-2.1,0-2.8s2.1-0.7,2.8,0c2.6,2.7,3.6,6.2,2.5,9.6
		c-1,3.1-3.4,5.5-6.3,6.1C93.1,76.1,92.7,76.1,92.3,76.1z"/>
	<path class="st0" d="M95.9,63.7C95.9,63.7,95.9,63.7,95.9,63.7c-0.6,0-1.1-0.3-1.5-0.7L67.6,32.3c-1.3,1.4-3.7,3.8-7.8,8.1
		c-4.6,4.7-9.1,9.5-9.3,9.6c-3.1,3.4-7.7,3.8-11.3,0.9c-3.4-2.7-5.1-7.9-1.7-12.7c2.8-4,24-26.6,25.8-28.2c10-9.5,26.1-7.9,37.3,3.9
		c11.6,12,13.7,30,4.9,39.9L97.4,63C97,63.5,96.5,63.7,95.9,63.7z M67.7,27.3C67.7,27.3,67.7,27.3,67.7,27.3c0.6,0,1.1,0.3,1.5,0.7
		l26.7,30.6l6.6-7.5c0,0,0,0,0,0c7.5-8.4,5.4-23.9-4.7-34.5C88.1,6.6,74.5,5,66.1,13c-2.2,2.1-22.8,24.1-25.2,27.6
		c-2,2.8-0.9,5.7,1,7.2c1.5,1.2,3.8,1.7,5.8-0.5c0.1-0.1,1.6-1.7,9.3-9.7c4.6-4.7,9.1-9.5,9.3-9.6C66.6,27.6,67.2,27.3,67.7,27.3z"
		/>
	<path class="st0" d="M27.1,82.4c-1.6,0-3.1-0.6-4.3-1.6c-2.8-2.4-3.3-6.9-1-9.9l8.1-10.7c1.1-1.5,2.8-2.5,4.6-2.6
		c1.8-0.2,3.6,0.4,5,1.6c2.8,2.4,3.3,6.9,1,9.9l-8.1,10.7c-1.1,1.5-2.8,2.5-4.6,2.6C27.6,82.4,27.3,82.4,27.1,82.4z M35.2,61.6
		c-0.1,0-0.2,0-0.3,0c-0.7,0.1-1.4,0.5-1.8,1.1L25,73.3c-1,1.3-0.8,3.4,0.4,4.4c0.6,0.5,1.2,0.7,1.9,0.6c0.7-0.1,1.4-0.5,1.8-1.1
		l8.1-10.7c1-1.3,0.8-3.4-0.4-4.4C36.4,61.8,35.8,61.6,35.2,61.6z"/>
	<path class="st0" d="M36.8,89.9c-1.6,0-3.1-0.6-4.3-1.6c-2.8-2.4-3.3-6.9-1-9.9l8.1-10.7c1.1-1.5,2.8-2.5,4.6-2.6
		c1.8-0.2,3.6,0.4,5,1.6c2.8,2.4,3.3,6.9,1,9.9l-8.1,10.7c-1.1,1.5-2.8,2.5-4.6,2.6C37.2,89.9,37,89.9,36.8,89.9z M44.9,69
		c-0.1,0-0.2,0-0.3,0c-0.7,0.1-1.4,0.5-1.8,1.1l-8.1,10.7c-1,1.3-0.8,3.4,0.4,4.4c0.6,0.5,1.2,0.7,1.9,0.6c0.7-0.1,1.4-0.5,1.8-1.1
		L47,74.1c1-1.3,0.8-3.4-0.4-4.4C46.1,69.3,45.5,69,44.9,69z"/>
	<path class="st0" d="M46.5,96.4c-1.6,0-3.1-0.6-4.3-1.6c-2.8-2.4-3.3-6.9-1-9.9l8.1-10.7c1.1-1.5,2.8-2.5,4.6-2.6
		c1.8-0.2,3.6,0.4,5,1.6c2.8,2.4,3.3,6.9,1,9.9l-8.1,10.7c-1.1,1.5-2.8,2.5-4.6,2.6C46.9,96.4,46.7,96.4,46.5,96.4z M54.5,75.6
		c-0.1,0-0.2,0-0.3,0c-0.7,0.1-1.4,0.5-1.8,1.1l-8.1,10.7c-1,1.3-0.8,3.4,0.4,4.4c0.6,0.5,1.2,0.7,1.9,0.6c0.7-0.1,1.4-0.5,1.8-1.1
		l8.1-10.7c1-1.3,0.8-3.4-0.4-4.4C55.7,75.8,55.1,75.6,54.5,75.6z"/>
	<path class="st0" d="M56.1,103c-1.6,0-3.1-0.6-4.3-1.6c-2.8-2.4-3.3-6.9-1-9.9l8.1-10.7c1.1-1.5,2.8-2.5,4.6-2.6
		c1.8-0.2,3.6,0.4,5,1.6c2.8,2.4,3.3,6.9,1,9.9l-8.1,10.7c-1.1,1.5-2.8,2.5-4.6,2.6C56.6,103,56.4,103,56.1,103z M64.2,82.2
		c-0.1,0-0.2,0-0.3,0c-0.7,0.1-1.4,0.5-1.8,1.1h0L54,93.9c-1,1.3-0.8,3.4,0.4,4.4c0.6,0.5,1.2,0.7,1.9,0.6c0.7-0.1,1.4-0.5,1.8-1.1
		l8.1-10.7c1-1.3,0.8-3.4-0.4-4.4C65.4,82.4,64.8,82.2,64.2,82.2z"/>
</g>
</svg>
