<?xml version="1.0" encoding="utf-8"?>
<!-- Generator: Adobe Illustrator 26.3.1, SVG Export Plug-In . SVG Version: 6.00 Build 0)  -->
<svg version="1.1" id="Calque_1" xmlns="http://www.w3.org/2000/svg" xmlns:xlink="http://www.w3.org/1999/xlink" x="0px" y="0px"
	 viewBox="0 0 102 106" style="enable-background:new 0 0 102 106;" xml:space="preserve">
<style type="text/css">
	.st0{fill:#F9FBFF;}
</style>
<path class="st0" d="M63.1,41.7h11.4c0.9,0,1.7-0.7,1.7-1.6s-0.7-1.6-1.7-1.6H63.1c-0.9,0-1.6,0.7-1.6,1.6S62.2,41.7,63.1,41.7z"/>
<path class="st0" d="M63.1,35.8h15.8c0.9,0,1.7-0.7,1.7-1.6s-0.7-1.6-1.7-1.6H63.1c-0.9,0-1.6,0.7-1.6,1.6S62.2,35.8,63.1,35.8z"/>
<path class="st0" d="M63.1,29.7h23.5c0.9,0,1.7-0.7,1.7-1.6c0-0.9-0.7-1.6-1.7-1.6H63.1c-0.9,0-1.6,0.7-1.6,1.6
	C61.5,29,62.2,29.7,63.1,29.7z"/>
<path class="st0" d="M63.1,23.6h18.5c0.9,0,1.7-0.7,1.7-1.6c0-0.9-0.7-1.6-1.7-1.6H63.1c-0.9,0-1.6,0.7-1.6,1.6
	C61.5,22.9,62.2,23.6,63.1,23.6z"/>
<path class="st0" d="M29.3,59.8H17.9c-0.9,0-1.7,0.7-1.7,1.6s0.7,1.6,1.7,1.6h11.4c0.9,0,1.7-0.7,1.7-1.6S30.2,59.8,29.3,59.8z"/>
<path class="st0" d="M33.8,53.9H17.9c-0.9,0-1.7,0.7-1.7,1.6s0.7,1.6,1.7,1.6h15.8c0.9,0,1.7-0.7,1.7-1.6S34.7,53.9,33.8,53.9z"/>
<path class="st0" d="M87.4,99.2l-10-10.4c4.2-3.9,6.9-9.4,7.2-15.7c0-0.2,0-0.3,0-0.4h5.5c4.2,0,7.7-3.3,7.7-7.4v-52
	c0-4.1-3.4-7.4-7.7-7.4H13.5c-4.2,0-7.7,3.3-7.7,7.4v52c0,4.1,3.4,7.4,7.7,7.4H39c0,0,0,0.2,0,0.4c0,12,10.2,21.9,22.8,21.9
	c4.9,0,9.4-1.5,13.1-4l10.1,10.5c0.3,0.4,0.8,0.5,1.2,0.5c0.4,0,0.8-0.2,1.1-0.4C88,100.9,88.1,99.8,87.4,99.2L87.4,99.2z
	 M13.5,69.5c-2.4,0-4.4-1.9-4.4-4.2v-52c0-2.3,2-4.1,4.4-4.1h76.6c2.4,0,4.4,1.9,4.4,4.1v52c0,2.3-2,4.2-4.4,4.2h-5.7
	c-0.6-4.1-2.4-8-5.5-11.1c-4.4-4.6-10.6-7.2-17.2-7.2l0,0c-11.3,0-20.7,7.9-22.5,18.3C39.3,69.5,13.5,69.5,13.5,69.5z M42.3,73
	c0-10.3,8.8-18.6,19.5-18.6l0,0c5.6,0,11,2.2,14.8,6.1c3.3,3.4,5,7.8,4.8,12.4c-0.6,10.7-9,18.7-19.5,18.7S42.3,83.3,42.3,73z"/>
<path class="st0" d="M54.3,57c-1.7,0-3.6,1.3-3.6,3c0,0.3,0.2,0.5,0.5,0.5c0.3,0,0.5-0.2,0.5-0.5c0-1.1,1.4-2,2.5-2
	c0.3,0,0.5-0.2,0.5-0.5C54.9,57.3,54.6,57,54.3,57L54.3,57z"/>
<path class="st0" d="M54,46.1c0.2-0.3,0.3-0.6,0.3-0.9l0,0c0-0.3-0.1-0.6-0.2-0.8c-0.3-0.7-0.8-1.5-1.2-2.3
	c-2.7-4.8-5.8-10.3,2.5-18.5c0.5-0.4,0.6-1.1,0.4-1.8c-0.2-0.6-0.8-1-1.5-1c-4.5-0.1-13-5.2-17.6-8.5c-0.4-0.3-1-0.4-1.4-0.3
	c-0.5,0.1-0.9,0.5-1.1,1c-2.5,6.2-14.1,10.1-20.6,9.6c-0.7-0.1-1.5,0.4-1.7,1.1c-0.2,0.7,0.1,1.5,0.7,1.9
	c15.3,8.9,9.5,20.6,9.3,21.1s-0.2,1,0,1.5c0.2,0.5,0.7,0.8,1.3,0.9c0.1,0,8.3,1,12.7,3.5c0.2,0.2,0.6,0.2,0.8,0.2
	c0.2,0,0.3,0,0.5-0.1c0.4-0.1,0.8-0.4,1-0.8c2.1-3.8,4.5-3.5,7.5-3C48.4,49.4,51.8,49.9,54,46.1L54,46.1z M36,49.1
	c-3.4-1.6-7.9-2.5-10.4-2.9c1.2-4,2.4-12.9-7.2-20.6c6.6-1,14.5-4.3,17.9-9.6c2.9,2,9.4,6.1,14.7,7.5c-7.3,8.8-3.6,15.5-1,20.1
	c0.3,0.5,0.5,0.9,0.8,1.4c-0.9,1.1-2.1,1.1-4.7,0.7C43,45.3,39,44.7,36,49.1L36,49.1z"/>
</svg>
